<svg width="64" height="64" viewBox="0 0 64 64" fill="none" xmlns="http://www.w3.org/2000/svg">
<rect x="2.5" y="2.5" width="59" height="59" rx="29.5" fill="white"/>
<rect x="2.5" y="2.5" width="59" height="59" rx="29.5" stroke="#D7DB2D" stroke-width="5"/>
<path d="M29.46 38H26.708V31.84C26.708 31.6907 26.708 31.4827 26.708 31.216C26.7187 30.9387 26.724 30.6453 26.724 30.336C26.7347 30.0267 26.7453 29.7493 26.756 29.504C26.6707 29.6107 26.5533 29.7387 26.404 29.888C26.2547 30.0267 26.116 30.1493 25.988 30.256L24.676 31.328L23.316 29.632L27.108 26.576H29.46V38ZM40.438 38H32.31V36.16L35.142 33.296C35.718 32.6987 36.1767 32.208 36.518 31.824C36.8593 31.44 37.0993 31.104 37.238 30.816C37.3873 30.5173 37.462 30.2027 37.462 29.872C37.462 29.4773 37.3447 29.184 37.11 28.992C36.8753 28.8 36.5713 28.704 36.198 28.704C35.8033 28.704 35.4087 28.8053 35.014 29.008C34.6193 29.2107 34.1927 29.504 33.734 29.888L32.246 28.144C32.5767 27.8453 32.9287 27.568 33.302 27.312C33.6753 27.0453 34.1127 26.832 34.614 26.672C35.126 26.5013 35.7393 26.416 36.454 26.416C37.222 26.416 37.878 26.5547 38.422 26.832C38.9767 27.0987 39.4033 27.4667 39.702 27.936C40.0113 28.3947 40.166 28.9227 40.166 29.52C40.166 30.1707 40.0433 30.7573 39.798 31.28C39.5527 31.792 39.19 32.3093 38.71 32.832C38.23 33.344 37.6433 33.9147 36.95 34.544L35.766 35.632V35.728H40.438V38Z" fill="black"/>
</svg>
