<svg width="64" height="64" viewBox="0 0 64 64" fill="none" xmlns="http://www.w3.org/2000/svg">
<rect x="2.5" y="2.5" width="59" height="59" rx="29.5" fill="white"/>
<rect x="2.5" y="2.5" width="59" height="59" rx="29.5" stroke="#D7DB2D" stroke-width="5"/>
<path d="M29.46 38H26.708V31.84C26.708 31.6907 26.708 31.4827 26.708 31.216C26.708 30.9387 26.7133 30.6453 26.724 30.336C26.7347 30.016 26.7453 29.7387 26.756 29.504C26.6707 29.6107 26.5533 29.7387 26.404 29.888C26.2547 30.0267 26.116 30.1493 25.988 30.256L24.676 31.328L23.316 29.632L27.108 26.576H29.46V38ZM40.742 35.712H39.43V38H36.758V35.712H32.022V33.76L36.918 26.576H39.43V33.632H40.742V35.712ZM36.758 31.984C36.758 31.824 36.758 31.6373 36.758 31.424C36.7687 31.2 36.774 30.9813 36.774 30.768C36.7847 30.544 36.7953 30.352 36.806 30.192C36.8167 30.0213 36.8273 29.9147 36.838 29.872H36.758C36.662 30.096 36.566 30.2987 36.47 30.48C36.374 30.6507 36.2567 30.8427 36.118 31.056L34.406 33.632H36.758V31.984Z" fill="black"/>
</svg>
