<svg width="52" height="52" viewBox="0 0 52 52" fill="none" xmlns="http://www.w3.org/2000/svg">
<rect x="2.5" y="2.5" width="47" height="47" rx="23.5" fill="white"/>
<rect x="2.5" y="2.5" width="47" height="47" rx="23.5" stroke="#D7DB2D" stroke-width="5"/>
<path d="M29.688 32H21.56V30.16L24.392 27.296C24.968 26.6987 25.4267 26.208 25.768 25.824C26.1093 25.44 26.3493 25.104 26.488 24.816C26.6373 24.5173 26.712 24.2027 26.712 23.872C26.712 23.4773 26.5947 23.184 26.36 22.992C26.1253 22.8 25.8213 22.704 25.448 22.704C25.0533 22.704 24.6587 22.8053 24.264 23.008C23.8693 23.2107 23.4427 23.504 22.984 23.888L21.496 22.144C21.8267 21.8453 22.1787 21.568 22.552 21.312C22.9253 21.0453 23.3627 20.832 23.864 20.672C24.376 20.5013 24.9893 20.416 25.704 20.416C26.472 20.416 27.128 20.5547 27.672 20.832C28.2267 21.0987 28.6533 21.4667 28.952 21.936C29.2613 22.3947 29.416 22.9227 29.416 23.52C29.416 24.1707 29.2933 24.7573 29.048 25.28C28.8027 25.792 28.44 26.3093 27.96 26.832C27.48 27.344 26.8933 27.9147 26.2 28.544L25.016 29.632V29.728H29.688V32Z" fill="black"/>
</svg>
