<svg width="52" height="52" viewBox="0 0 52 52" fill="none" xmlns="http://www.w3.org/2000/svg">
<rect x="2.5" y="2.5" width="47" height="47" rx="23.5" fill="white"/>
<rect x="2.5" y="2.5" width="47" height="47" rx="23.5" stroke="#D7DB2D" stroke-width="5"/>
<path d="M29.992 29.712H28.68V32H26.008V29.712H21.272V27.76L26.168 20.576H28.68V27.632H29.992V29.712ZM26.008 25.984C26.008 25.7707 26.0133 25.5093 26.024 25.2C26.0347 24.8907 26.0453 24.608 26.056 24.352C26.0667 24.0853 26.0773 23.9253 26.088 23.872H26.008C25.912 24.096 25.816 24.2987 25.72 24.48C25.624 24.6507 25.5067 24.8427 25.368 25.056L23.656 27.632H26.008V25.984Z" fill="black"/>
</svg>
