<svg width="52" height="52" viewBox="0 0 52 52" fill="none" xmlns="http://www.w3.org/2000/svg">
<rect x="2.5" y="2.5" width="47" height="47" rx="23.5" fill="white"/>
<rect x="2.5" y="2.5" width="47" height="47" rx="23.5" stroke="#D7DB2D" stroke-width="5"/>
<path d="M21.56 27.152C21.56 26.5013 21.6027 25.856 21.688 25.216C21.784 24.5653 21.9547 23.952 22.2 23.376C22.4453 22.8 22.7867 22.2933 23.224 21.856C23.6613 21.408 24.2213 21.0613 24.904 20.816C25.5867 20.56 26.4187 20.432 27.4 20.432C27.624 20.432 27.8907 20.4427 28.2 20.464C28.5093 20.4853 28.7707 20.5173 28.984 20.56V22.704C28.7707 22.6613 28.536 22.6293 28.28 22.608C28.0347 22.576 27.7573 22.56 27.448 22.56C26.584 22.56 25.9067 22.6933 25.416 22.96C24.936 23.2267 24.5947 23.6053 24.392 24.096C24.1893 24.5867 24.072 25.1573 24.04 25.808H24.136C24.3387 25.4347 24.6267 25.12 25 24.864C25.384 24.608 25.8853 24.48 26.504 24.48C27.5067 24.48 28.296 24.8 28.872 25.44C29.448 26.08 29.736 26.9813 29.736 28.144C29.736 29.4027 29.3787 30.3893 28.664 31.104C27.96 31.808 27 32.16 25.784 32.16C24.9947 32.16 24.28 31.984 23.64 31.632C23 31.2693 22.4933 30.72 22.12 29.984C21.7467 29.2373 21.56 28.2933 21.56 27.152ZM25.736 29.984C26.1413 29.984 26.4667 29.84 26.712 29.552C26.968 29.264 27.096 28.8107 27.096 28.192C27.096 27.7013 26.9893 27.312 26.776 27.024C26.5627 26.736 26.2267 26.592 25.768 26.592C25.3093 26.592 24.9413 26.7413 24.664 27.04C24.3973 27.3387 24.264 27.664 24.264 28.016C24.264 28.3253 24.3173 28.6347 24.424 28.944C24.5307 29.2427 24.6907 29.4933 24.904 29.696C25.128 29.888 25.4053 29.984 25.736 29.984Z" fill="black"/>
</svg>
