<svg width="25" height="32" viewBox="0 0 25 32" fill="none" xmlns="http://www.w3.org/2000/svg">
<path d="M24.875 12.475C24.875 21.9078 13.2994 30.5722 12.8064 30.9365C12.7177 31.0021 12.6103 31.0375 12.5 31.0375C12.3897 31.0375 12.2823 31.0021 12.1936 30.9365C11.7006 30.5722 0.125 21.9078 0.125 12.475C0.125 9.19292 1.42879 6.04529 3.74955 3.72453C6.07032 1.40377 9.21795 0.0999756 12.5 0.0999756C15.7821 0.0999756 18.9297 1.40377 21.2504 3.72453C23.5712 6.04529 24.875 9.19292 24.875 12.475ZM21.7813 12.475C21.7813 10.6393 21.2369 8.84488 20.2171 7.31859C19.1972 5.79229 17.7477 4.60269 16.0518 3.90022C14.3559 3.19774 12.4897 3.01394 10.6893 3.37206C8.88893 3.73018 7.23517 4.61413 5.93717 5.91214C4.63916 7.21015 3.75521 8.86391 3.39709 10.6643C3.03897 12.4647 3.22277 14.3308 3.92524 16.0268C4.62772 17.7227 5.81732 19.1722 7.34361 20.1921C8.86991 21.2119 10.6643 21.7562 12.5 21.7562C14.9607 21.7534 17.3198 20.7747 19.0598 19.0347C20.7997 17.2948 21.7785 14.9357 21.7813 12.475Z" fill="#222222"/>
<path d="M21.7813 12.475C21.7813 10.6393 21.2369 8.84488 20.2171 7.31859C19.1972 5.79229 17.7477 4.60269 16.0518 3.90022C14.3559 3.19774 12.4897 3.01394 10.6893 3.37206C8.88893 3.73018 7.23517 4.61413 5.93717 5.91214C4.63916 7.21015 3.75521 8.86391 3.39709 10.6643C3.03897 12.4647 3.22277 14.3308 3.92524 16.0268C4.62772 17.7227 5.81732 19.1722 7.34361 20.1921C8.86991 21.2119 10.6643 21.7562 12.5 21.7562C14.9607 21.7534 17.3198 20.7747 19.0598 19.0347C20.7997 17.2948 21.7785 14.9357 21.7813 12.475Z" fill="white"/>
<path d="M15.3618 8.625C14.5035 8.625 13.7647 9.14434 13.444 9.88439L13.4435 9.88419L12.6377 11.6698L11.8319 9.88419L11.8314 9.88439C11.5108 9.14434 10.7719 8.625 9.91356 8.625C8.76205 8.625 7.8252 9.55937 7.8252 10.7079C7.8252 11.8564 8.762 12.7908 9.91356 12.7908C10.4241 12.7908 10.8921 12.6069 11.2553 12.3023L11.8038 13.5178L10.3216 16.8024L11.7084 17.425L12.6377 15.3657L13.567 17.425L14.9538 16.8024L13.4716 13.5178L14.0201 12.3023C14.3833 12.6069 14.8513 12.7908 15.3618 12.7908C16.5133 12.7908 17.4502 11.8564 17.4502 10.7079C17.4502 9.55937 16.5134 8.625 15.3618 8.625ZM9.91361 11.2739C9.60071 11.2739 9.34612 11.02 9.34612 10.7079C9.34612 10.3958 9.60066 10.142 9.91361 10.142C10.2266 10.142 10.4811 10.3958 10.4811 10.7079C10.481 11.02 10.2265 11.2739 9.91361 11.2739ZM15.3618 11.2739C15.0489 11.2739 14.7943 11.02 14.7943 10.7079C14.7943 10.3958 15.0489 10.142 15.3618 10.142C15.6748 10.142 15.9293 10.3958 15.9293 10.7079C15.9293 11.02 15.6748 11.2739 15.3618 11.2739Z" fill="#222222"/>
</svg>
