<svg width="15" height="15" viewBox="0 0 15 15" fill="none" xmlns="http://www.w3.org/2000/svg">
<path d="M7.5 0.59375C3.68596 0.59375 0.59375 3.68596 0.59375 7.5C0.59375 11.3081 3.69227 14.4062 7.5 14.4062C11.3137 14.4062 14.4062 11.3137 14.4062 7.5C14.4062 3.69193 11.3081 0.59375 7.5 0.59375ZM11.0859 8.5625H7.10156C7.06634 8.5625 7.03256 8.54851 7.00765 8.5236C6.98274 8.49869 6.96875 8.46491 6.96875 8.42969V2.85156C6.96875 2.81634 6.98274 2.78256 7.00765 2.75765C7.03256 2.73274 7.06634 2.71875 7.10156 2.71875H7.89844C7.93366 2.71875 7.96744 2.73274 7.99235 2.75765C8.01726 2.78256 8.03125 2.81634 8.03125 2.85156V7.5H11.0859C11.1212 7.5 11.1549 7.51399 11.1799 7.5389C11.2048 7.56381 11.2188 7.59759 11.2188 7.63281V8.42969C11.2188 8.46491 11.2048 8.49869 11.1799 8.5236C11.1549 8.54851 11.1212 8.5625 11.0859 8.5625Z" fill="#222222"/>
</svg>
