<svg width="25" height="31" viewBox="0 0 25 31" fill="none" xmlns="http://www.w3.org/2000/svg">
<path d="M7.81134 12.8418V9.25485C7.81134 9.11895 7.86532 8.98861 7.96142 8.89251C8.05752 8.79642 8.18786 8.74243 8.32376 8.74243H15.4977C15.6336 8.74243 15.7639 8.79642 15.86 8.89251C15.9561 8.98861 16.0101 9.11895 16.0101 9.25485V12.8418C16.0092 13.657 15.685 14.4385 15.1086 15.0148C14.5322 15.5912 13.7507 15.9155 12.9356 15.9163H10.8859C10.0707 15.9155 9.28922 15.5912 8.71283 15.0148C8.13644 14.4385 7.81223 13.657 7.81134 12.8418ZM16.0101 16.9412H7.81134C7.67543 16.9412 7.5451 16.9952 7.449 17.0913C7.3529 17.1874 7.29891 17.3177 7.29891 17.4536C7.29891 17.5895 7.3529 17.7198 7.449 17.8159C7.5451 17.912 7.67543 17.966 7.81134 17.966H16.0101C16.146 17.966 16.2763 17.912 16.3724 17.8159C16.4685 17.7198 16.5225 17.5895 16.5225 17.4536C16.5225 17.3177 16.4685 17.1874 16.3724 17.0913C16.2763 16.9952 16.146 16.9412 16.0101 16.9412ZM17.0349 9.76727V10.7921C17.1707 10.7925 17.3008 10.8466 17.3968 10.9427C17.4928 11.0387 17.547 11.1688 17.5474 11.3045V11.817C17.547 11.9527 17.4928 12.0828 17.3968 12.1789C17.3008 12.2749 17.1707 12.329 17.0349 12.3294V12.8418C17.0353 13.0137 17.0199 13.1852 16.9888 13.3542H17.0349C17.4423 13.353 17.8326 13.1907 18.1206 12.9027C18.4087 12.6146 18.571 12.2243 18.5722 11.817V11.3045C18.571 10.8972 18.4087 10.5069 18.1206 10.2188C17.8326 9.93081 17.4423 9.76846 17.0349 9.76727ZM11.9107 7.71759C12.0466 7.71759 12.177 7.6636 12.2731 7.5675C12.3692 7.4714 12.4231 7.34107 12.4231 7.20516V6.18032C12.4231 6.04442 12.3692 5.91408 12.2731 5.81798C12.177 5.72188 12.0466 5.6679 11.9107 5.6679C11.7748 5.6679 11.6445 5.72188 11.5484 5.81798C11.4523 5.91408 11.3983 6.04442 11.3983 6.18032V7.20516C11.3983 7.34107 11.4523 7.4714 11.5484 7.5675C11.6445 7.6636 11.7748 7.71759 11.9107 7.71759ZM9.86103 7.71759C9.99693 7.71759 10.1273 7.6636 10.2234 7.5675C10.3195 7.4714 10.3734 7.34107 10.3734 7.20516V6.18032C10.3734 6.04442 10.3195 5.91408 10.2234 5.81798C10.1273 5.72188 9.99693 5.6679 9.86103 5.6679C9.72512 5.6679 9.59479 5.72188 9.49869 5.81798C9.40259 5.91408 9.3486 6.04442 9.3486 6.18032V7.20516C9.3486 7.34107 9.40259 7.4714 9.49869 7.5675C9.59479 7.6636 9.72512 7.71759 9.86103 7.71759ZM13.9604 7.71759C14.0963 7.71759 14.2266 7.6636 14.3227 7.5675C14.4188 7.4714 14.4728 7.34107 14.4728 7.20516V6.18032C14.4728 6.04442 14.4188 5.91408 14.3227 5.81798C14.2266 5.72188 14.0963 5.6679 13.9604 5.6679C13.8245 5.6679 13.6942 5.72188 13.5981 5.81798C13.502 5.91408 13.448 6.04442 13.448 6.18032V7.20516C13.448 7.34107 13.502 7.4714 13.5981 7.5675C13.6942 7.6636 13.8245 7.71759 13.9604 7.71759ZM24.7213 12.3294C24.7213 21.7036 13.2175 30.3142 12.7276 30.6763C12.6395 30.7414 12.5328 30.7766 12.4231 30.7766C12.3135 30.7766 12.2068 30.7414 12.1186 30.6763C11.6287 30.3142 0.125 21.7036 0.125 12.3294C0.125 9.06772 1.42069 5.93964 3.72704 3.63329C6.03339 1.32694 9.16147 0.03125 12.4231 0.03125C15.6848 0.03125 18.8129 1.32694 21.1192 3.63329C23.4256 5.93964 24.7213 9.06772 24.7213 12.3294ZM21.6467 12.3294C21.6467 10.5051 21.1058 8.72184 20.0923 7.20503C19.0788 5.68821 17.6383 4.506 15.9529 3.80789C14.2675 3.10978 12.4129 2.92712 10.6237 3.28301C8.8345 3.63891 7.19101 4.51737 5.90106 5.80731C4.61112 7.09726 3.73266 8.74075 3.37676 10.53C3.02087 12.3192 3.20353 14.1737 3.90164 15.8591C4.59975 17.5445 5.78196 18.985 7.29878 19.9985C8.81559 21.012 10.5989 21.553 12.4231 21.553C14.8685 21.5502 17.213 20.5776 18.9421 18.8484C20.6713 17.1192 21.644 14.7748 21.6467 12.3294Z" fill="#BC781E"/>
<path fill-rule="evenodd" clip-rule="evenodd" d="M21.6467 12.3294C21.6467 10.5051 21.1058 8.72184 20.0923 7.20503C19.0788 5.68821 17.6383 4.506 15.9529 3.80789C14.2675 3.10978 12.4129 2.92712 10.6237 3.28301C8.8345 3.63891 7.19101 4.51737 5.90106 5.80731C4.61112 7.09726 3.73266 8.74075 3.37676 10.53C3.02087 12.3192 3.20353 14.1737 3.90164 15.8591C4.59975 17.5445 5.78196 18.985 7.29878 19.9985C8.81559 21.012 10.5989 21.553 12.4231 21.553C14.8685 21.5502 17.213 20.5776 18.9421 18.8484C20.6713 17.1192 21.644 14.7748 21.6467 12.3294ZM7.81134 9.25485V12.8418C7.81223 13.657 8.13644 14.4385 8.71283 15.0148C9.28922 15.5912 10.0707 15.9155 10.8859 15.9163H12.9356C13.7507 15.9155 14.5322 15.5912 15.1086 15.0148C15.685 14.4385 16.0092 13.657 16.0101 12.8418V9.25485C16.0101 9.11895 15.9561 8.98861 15.86 8.89251C15.7639 8.79642 15.6336 8.74243 15.4977 8.74243H8.32376C8.18786 8.74243 8.05752 8.79642 7.96142 8.89251C7.86532 8.98861 7.81134 9.11895 7.81134 9.25485ZM7.81134 16.9412H16.0101C16.146 16.9412 16.2763 16.9952 16.3724 17.0913C16.4685 17.1874 16.5225 17.3177 16.5225 17.4536C16.5225 17.5895 16.4685 17.7198 16.3724 17.8159C16.2763 17.912 16.146 17.966 16.0101 17.966H7.81134C7.67543 17.966 7.5451 17.912 7.449 17.8159C7.3529 17.7198 7.29891 17.5895 7.29891 17.4536C7.29891 17.3177 7.3529 17.1874 7.449 17.0913C7.5451 16.9952 7.67543 16.9412 7.81134 16.9412ZM17.0349 10.7921V9.76727C17.4423 9.76846 17.8326 9.93081 18.1206 10.2188C18.4087 10.5069 18.571 10.8972 18.5722 11.3045V11.817C18.571 12.2243 18.4087 12.6146 18.1206 12.9027C17.8326 13.1907 17.4423 13.353 17.0349 13.3542H16.9888C17.0199 13.1852 17.0353 13.0137 17.0349 12.8418V12.3294C17.1707 12.329 17.3008 12.2749 17.3968 12.1789C17.4928 12.0828 17.547 11.9527 17.5474 11.817V11.3045C17.547 11.1688 17.4928 11.0387 17.3968 10.9427C17.3008 10.8466 17.1707 10.7925 17.0349 10.7921ZM12.2731 7.5675C12.177 7.6636 12.0466 7.71759 11.9107 7.71759C11.7748 7.71759 11.6445 7.6636 11.5484 7.5675C11.4523 7.4714 11.3983 7.34107 11.3983 7.20516V6.18032C11.3983 6.04442 11.4523 5.91408 11.5484 5.81798C11.6445 5.72188 11.7748 5.6679 11.9107 5.6679C12.0466 5.6679 12.177 5.72188 12.2731 5.81798C12.3692 5.91408 12.4231 6.04442 12.4231 6.18032V7.20516C12.4231 7.34107 12.3692 7.4714 12.2731 7.5675ZM10.2234 7.5675C10.1273 7.6636 9.99693 7.71759 9.86103 7.71759C9.72512 7.71759 9.59479 7.6636 9.49869 7.5675C9.40259 7.4714 9.3486 7.34107 9.3486 7.20516V6.18032C9.3486 6.04442 9.40259 5.91408 9.49869 5.81798C9.59479 5.72188 9.72512 5.6679 9.86103 5.6679C9.99693 5.6679 10.1273 5.72188 10.2234 5.81798C10.3195 5.91408 10.3734 6.04442 10.3734 6.18032V7.20516C10.3734 7.34107 10.3195 7.4714 10.2234 7.5675ZM14.3227 7.5675C14.2266 7.6636 14.0963 7.71759 13.9604 7.71759C13.8245 7.71759 13.6942 7.6636 13.5981 7.5675C13.502 7.4714 13.448 7.34107 13.448 7.20516V6.18032C13.448 6.04442 13.502 5.91408 13.5981 5.81798C13.6942 5.72188 13.8245 5.6679 13.9604 5.6679C14.0963 5.6679 14.2266 5.72188 14.3227 5.81798C14.4188 5.91408 14.4728 6.04442 14.4728 6.18032V7.20516C14.4728 7.34107 14.4188 7.4714 14.3227 7.5675Z" fill="white"/>
</svg>
