<svg width="42" height="53" viewBox="0 0 42 53" fill="none" xmlns="http://www.w3.org/2000/svg">
<path d="M13.0435 22.4891V16.4022C13.0435 16.1716 13.1351 15.9504 13.2982 15.7873C13.4612 15.6242 13.6824 15.5326 13.913 15.5326H26.087C26.3176 15.5326 26.5388 15.6242 26.7018 15.7873C26.8649 15.9504 26.9565 16.1716 26.9565 16.4022V22.4891C26.955 23.8724 26.4048 25.1986 25.4267 26.1767C24.4486 27.1548 23.1224 27.705 21.7391 27.7065H18.2609C16.8776 27.705 15.5514 27.1548 14.5733 26.1767C13.5952 25.1986 13.045 23.8724 13.0435 22.4891ZM26.9565 29.4457H13.0435C12.8129 29.4457 12.5917 29.5373 12.4286 29.7003C12.2655 29.8634 12.1739 30.0846 12.1739 30.3152C12.1739 30.5458 12.2655 30.767 12.4286 30.9301C12.5917 31.0932 12.8129 31.1848 13.0435 31.1848H26.9565C27.1871 31.1848 27.4083 31.0932 27.5714 30.9301C27.7345 30.767 27.8261 30.5458 27.8261 30.3152C27.8261 30.0846 27.7345 29.8634 27.5714 29.7003C27.4083 29.5373 27.1871 29.4457 26.9565 29.4457ZM28.6957 17.2717V19.0109C28.9261 19.0116 29.1468 19.1034 29.3098 19.2663C29.4727 19.4292 29.5645 19.65 29.5652 19.8804V20.75C29.5645 20.9804 29.4727 21.2012 29.3098 21.3641C29.1468 21.527 28.9261 21.6189 28.6957 21.6196V22.4891C28.6963 22.7808 28.6701 23.0719 28.6174 23.3587H28.6957C29.3869 23.3567 30.0493 23.0812 30.5381 22.5924C31.0268 22.1036 31.3023 21.4412 31.3043 20.75V19.8804C31.3023 19.1892 31.0268 18.5268 30.5381 18.038C30.0493 17.5492 29.3869 17.2738 28.6957 17.2717ZM20 13.7935C20.2306 13.7935 20.4518 13.7019 20.6149 13.5388C20.778 13.3757 20.8696 13.1545 20.8696 12.9239V11.1848C20.8696 10.9542 20.778 10.733 20.6149 10.5699C20.4518 10.4068 20.2306 10.3152 20 10.3152C19.7694 10.3152 19.5482 10.4068 19.3851 10.5699C19.222 10.733 19.1304 10.9542 19.1304 11.1848V12.9239C19.1304 13.1545 19.222 13.3757 19.3851 13.5388C19.5482 13.7019 19.7694 13.7935 20 13.7935ZM16.5217 13.7935C16.7524 13.7935 16.9735 13.7019 17.1366 13.5388C17.2997 13.3757 17.3913 13.1545 17.3913 12.9239V11.1848C17.3913 10.9542 17.2997 10.733 17.1366 10.5699C16.9735 10.4068 16.7524 10.3152 16.5217 10.3152C16.2911 10.3152 16.0699 10.4068 15.9069 10.5699C15.7438 10.733 15.6522 10.9542 15.6522 11.1848V12.9239C15.6522 13.1545 15.7438 13.3757 15.9069 13.5388C16.0699 13.7019 16.2911 13.7935 16.5217 13.7935ZM23.4783 13.7935C23.7089 13.7935 23.9301 13.7019 24.0931 13.5388C24.2562 13.3757 24.3478 13.1545 24.3478 12.9239V11.1848C24.3478 10.9542 24.2562 10.733 24.0931 10.5699C23.9301 10.4068 23.7089 10.3152 23.4783 10.3152C23.2476 10.3152 23.0265 10.4068 22.8634 10.5699C22.7003 10.733 22.6087 10.9542 22.6087 11.1848V12.9239C22.6087 13.1545 22.7003 13.3757 22.8634 13.5388C23.0265 13.7019 23.2476 13.7935 23.4783 13.7935ZM41.7391 21.6196C41.7391 37.5274 22.2176 52.1393 21.3863 52.7537C21.2367 52.8642 21.0556 52.9239 20.8696 52.9239C20.6835 52.9239 20.5024 52.8642 20.3528 52.7537C19.5215 52.1393 0 37.5274 0 21.6196C8.24772e-08 16.0846 2.19875 10.7764 6.11255 6.86255C10.0264 2.94875 15.3346 0.75 20.8696 0.75C26.4045 0.75 31.7128 2.94875 35.6266 6.86255C39.5404 10.7764 41.7391 16.0846 41.7391 21.6196ZM36.5217 21.6196C36.5217 18.5239 35.6038 15.4977 33.8839 12.9237C32.164 10.3497 29.7195 8.34352 26.8594 7.15884C23.9993 5.97417 20.8522 5.6642 17.816 6.26814C14.7798 6.87209 11.9908 8.36281 9.80181 10.5518C7.61281 12.7408 6.12209 15.5298 5.51814 18.566C4.9142 21.6022 5.22417 24.7493 6.40884 27.6094C7.59352 30.4695 9.5997 32.914 12.1737 34.6339C14.7477 36.3538 17.7739 37.2717 20.8696 37.2717C25.0193 37.267 28.9978 35.6165 31.9321 32.6821C34.8665 29.7478 36.517 25.7693 36.5217 21.6196Z" fill="#222222"/>
<path fill-rule="evenodd" clip-rule="evenodd" d="M36.5217 21.6196C36.5217 18.5239 35.6038 15.4977 33.8839 12.9237C32.164 10.3497 29.7195 8.34352 26.8594 7.15884C23.9993 5.97417 20.8522 5.6642 17.816 6.26814C14.7798 6.87209 11.9908 8.36281 9.80181 10.5518C7.61281 12.7408 6.12209 15.5298 5.51814 18.566C4.9142 21.6022 5.22417 24.7493 6.40884 27.6094C7.59352 30.4695 9.5997 32.914 12.1737 34.6339C14.7477 36.3538 17.7739 37.2717 20.8696 37.2717C25.0193 37.267 28.9978 35.6165 31.9321 32.6821C34.8665 29.7478 36.517 25.7693 36.5217 21.6196ZM13.0435 16.4022V22.4891C13.045 23.8724 13.5952 25.1986 14.5733 26.1767C15.5514 27.1548 16.8776 27.705 18.2609 27.7065H21.7391C23.1224 27.705 24.4486 27.1548 25.4267 26.1767C26.4048 25.1986 26.955 23.8724 26.9565 22.4891V16.4022C26.9565 16.1716 26.8649 15.9504 26.7018 15.7873C26.5388 15.6242 26.3176 15.5326 26.087 15.5326H13.913C13.6824 15.5326 13.4612 15.6242 13.2982 15.7873C13.1351 15.9504 13.0435 16.1716 13.0435 16.4022ZM13.0435 29.4457H26.9565C27.1871 29.4457 27.4083 29.5373 27.5714 29.7003C27.7345 29.8634 27.8261 30.0846 27.8261 30.3152C27.8261 30.5458 27.7345 30.767 27.5714 30.9301C27.4083 31.0932 27.1871 31.1848 26.9565 31.1848H13.0435C12.8129 31.1848 12.5917 31.0932 12.4286 30.9301C12.2655 30.767 12.1739 30.5458 12.1739 30.3152C12.1739 30.0846 12.2655 29.8634 12.4286 29.7003C12.5917 29.5373 12.8129 29.4457 13.0435 29.4457ZM28.6957 19.0109V17.2717C29.3869 17.2738 30.0493 17.5492 30.5381 18.038C31.0268 18.5268 31.3023 19.1892 31.3043 19.8804V20.75C31.3023 21.4412 31.0268 22.1036 30.5381 22.5924C30.0493 23.0812 29.3869 23.3567 28.6957 23.3587H28.6174C28.6701 23.0719 28.6963 22.7808 28.6957 22.4891V21.6196C28.9261 21.6189 29.1468 21.527 29.3098 21.3641C29.4727 21.2012 29.5645 20.9804 29.5652 20.75V19.8804C29.5645 19.65 29.4727 19.4292 29.3098 19.2663C29.1468 19.1034 28.9261 19.0116 28.6957 19.0109ZM20.6149 13.5388C20.4518 13.7019 20.2306 13.7935 20 13.7935C19.7694 13.7935 19.5482 13.7019 19.3851 13.5388C19.222 13.3757 19.1304 13.1545 19.1304 12.9239V11.1848C19.1304 10.9542 19.222 10.733 19.3851 10.5699C19.5482 10.4068 19.7694 10.3152 20 10.3152C20.2306 10.3152 20.4518 10.4068 20.6149 10.5699C20.778 10.733 20.8696 10.9542 20.8696 11.1848V12.9239C20.8696 13.1545 20.778 13.3757 20.6149 13.5388ZM17.1366 13.5388C16.9735 13.7019 16.7524 13.7935 16.5217 13.7935C16.2911 13.7935 16.0699 13.7019 15.9069 13.5388C15.7438 13.3757 15.6522 13.1545 15.6522 12.9239V11.1848C15.6522 10.9542 15.7438 10.733 15.9069 10.5699C16.0699 10.4068 16.2911 10.3152 16.5217 10.3152C16.7524 10.3152 16.9735 10.4068 17.1366 10.5699C17.2997 10.733 17.3913 10.9542 17.3913 11.1848V12.9239C17.3913 13.1545 17.2997 13.3757 17.1366 13.5388ZM24.0931 13.5388C23.9301 13.7019 23.7089 13.7935 23.4783 13.7935C23.2476 13.7935 23.0265 13.7019 22.8634 13.5388C22.7003 13.3757 22.6087 13.1545 22.6087 12.9239V11.1848C22.6087 10.9542 22.7003 10.733 22.8634 10.5699C23.0265 10.4068 23.2476 10.3152 23.4783 10.3152C23.7089 10.3152 23.9301 10.4068 24.0931 10.5699C24.2562 10.733 24.3478 10.9542 24.3478 11.1848V12.9239C24.3478 13.1545 24.2562 13.3757 24.0931 13.5388Z" fill="white"/>
</svg>
