<svg width="75" height="70" viewBox="0 0 75 70" fill="none" xmlns="http://www.w3.org/2000/svg">
<path fill-rule="evenodd" clip-rule="evenodd" d="M42.6536 0.542555C40.2124 1.57689 35.7495 8.70233 34.0711 14.2954L33.232 17.1303L32.3924 15.0616C28.2728 4.98638 23.4666 0.77241 19.6141 3.91373C17.1347 5.9441 18.3175 15.483 22.0557 23.7194C22.8186 25.3667 23.3907 26.7458 23.3907 26.7841C23.3907 26.8224 21.7887 26.4393 19.8815 25.9413C8.85775 23.1064 -3.27229 26.7458 0.809305 31.611C2.48765 33.6414 11.146 37.1275 18.8512 38.8514C20.644 39.2345 21.8264 39.5792 21.5213 39.6175C17.1728 39.8474 2.44913 51.1864 2.44913 54.2511C2.44913 57.9288 10.1924 56.9714 19.4615 52.1828L24.0773 49.7694L23.3526 51.8381C21.2928 57.8142 20.8728 64.7864 22.513 66.0506C26.2512 69.0004 30.7904 66.0506 33.5367 58.8869C34.8718 55.4391 34.6433 55.3625 37.0464 60.0361C41.6237 69.0387 45.7811 71.9502 49.5955 68.7322C50.7017 67.7745 49.7481 58.9252 48.0316 54.4814C47.879 54.06 48.6423 54.4048 50.2825 55.5157C59.7041 61.9133 71.2233 60.0358 66.5316 52.9103C64.9677 50.5352 61.0773 47.0495 56.767 44.138L53.2577 41.7628L56.2326 41.4564C66.8367 40.3837 75 34.9056 75 28.8528C75 24.9836 70.8804 23.9106 62.6412 25.7111L61.5728 25.9413L62.7938 23.8726C69.3165 12.7631 61.4588 8.89388 50.9691 18.088C49.7866 19.1223 49.0233 19.62 49.1759 19.1986C53.3336 7.89747 49.7866 -2.52215 42.6536 0.542555ZM44.6753 8.20432C44.4083 12.38 42.6918 19.582 40.1742 27.014L38.3048 32.5687C38.5336 22.9915 38.3429 16.1342 42.7295 7.36153C44.5223 3.7605 44.9423 3.99035 44.6753 8.20432ZM27.4337 14.6015C28.5398 17.6279 31.5914 27.1289 31.0955 29.4274C30.7904 30.8065 25.2217 19.6203 24.0773 15.2531C22.5134 9.20035 25.145 8.28056 27.4337 14.6015ZM58.5979 19.8502C56.5381 24.5239 52.7615 29.0443 49.1759 30.9981C47.6883 31.8026 46.6969 32.3768 46.0485 32.7982C45.6289 33.0664 45.133 32.6453 45.2856 32.1856C46.1629 29.3125 58.7505 16.2875 59.2082 17.7432C59.2845 17.9731 58.9794 18.8925 58.5979 19.8502ZM16.6392 28.508C19.4237 29.2359 29.6846 34.3309 31.401 35.7101C32.5835 36.6295 32.1639 37.7021 31.3248 37.7021C26.8619 37.6638 12.4811 33.9095 8.3615 31.6876C3.17387 28.8528 9.12476 26.5542 16.6392 28.508ZM68.8202 29.1209C68.8202 35.5568 57.7202 40.3071 48.9852 37.6255L47.2687 37.0892C49.2903 36.0548 52.7615 34.3692 54.745 32.9135C56.7666 31.4195 61.1536 29.5423 65.1206 28.508C68.8206 27.512 68.8202 27.5503 68.8202 29.1209ZM50.1295 44.4445C56.5378 48.6967 61.1914 53.4467 61.1914 55.7835C61.1914 59.1547 46.0099 47.8536 42.8821 42.1839C40.9367 38.6594 41.7759 38.8897 50.1295 44.4445ZM29.5697 42.1076C28.2728 43.142 25.1072 44.9425 19.5763 47.8156C10.0021 52.7575 9.77284 52.8724 11.6419 50.9187C15.3038 47.0878 22.6656 42.6056 27.2429 41.3798C29.5697 40.7285 31.3625 40.6902 29.5697 42.1076ZM42.1959 50.6118C43.1113 52.2591 44.446 58.2739 43.0728 58.8103C41.6996 59.3466 36.5124 45.9385 36.5124 45.134C36.5124 44.138 39.5258 45.7466 42.1959 50.6118Z" fill="#D7DB2D"/>
</svg>
