<svg width="12" height="12" viewBox="0 0 12 12" fill="none" xmlns="http://www.w3.org/2000/svg">
<path d="M6 4.875C6.09946 4.875 6.19484 4.91451 6.26517 4.98484C6.33549 5.05516 6.375 5.15054 6.375 5.25V8.625C6.375 8.72446 6.33549 8.81984 6.26517 8.89017C6.19484 8.96049 6.09946 9 6 9C5.90054 9 5.80516 8.96049 5.73484 8.89017C5.66451 8.81984 5.625 8.72446 5.625 8.625V5.25C5.625 5.15054 5.66451 5.05516 5.73484 4.98484C5.80516 4.91451 5.90054 4.875 6 4.875ZM6 4.125C6.14918 4.125 6.29226 4.06574 6.39775 3.96025C6.50324 3.85476 6.5625 3.71168 6.5625 3.5625C6.5625 3.41332 6.50324 3.27024 6.39775 3.16475C6.29226 3.05926 6.14918 3 6 3C5.85082 3 5.70774 3.05926 5.60225 3.16475C5.49676 3.27024 5.4375 3.41332 5.4375 3.5625C5.4375 3.71168 5.49676 3.85476 5.60225 3.96025C5.70774 4.06574 5.85082 4.125 6 4.125ZM0.75 6C0.75 3.1005 3.1005 0.75 6 0.75C8.8995 0.75 11.25 3.1005 11.25 6C11.25 8.8995 8.8995 11.25 6 11.25C3.1005 11.25 0.75 8.8995 0.75 6ZM6 1.5C3.51488 1.5 1.5 3.51488 1.5 6C1.5 8.48512 3.51488 10.5 6 10.5C8.48512 10.5 10.5 8.48512 10.5 6C10.5 3.51488 8.48512 1.5 6 1.5Z" fill="#D7DB2D"/>
</svg>
