<svg width="1598" height="2496" viewBox="0 0 1598 2496" fill="none" xmlns="http://www.w3.org/2000/svg">
<path fill-rule="evenodd" clip-rule="evenodd" d="M1238.16 177.523C1241.18 192.106 1248.54 187.601 1245.96 173.741C1241.27 148.626 1257.48 112.649 1279.59 93.1387C1315.85 61.0684 1416.99 51.1463 1471 74.5956C1522.58 96.8844 1538.78 111.088 1561.1 152.935C1594.08 214.861 1590.73 268.662 1528.32 337.934C1471.83 400.758 1386.61 387.147 1326.58 306.326C1318.25 295.042 1298.03 273.146 1281.09 256.795C1259.75 236.262 1249.88 222.562 1247.03 209.396C1244.59 197.657 1241.26 198.456 1240.74 210.774C1239.92 230.13 1251.05 247.409 1284.16 278.55C1299.08 292.582 1312.65 307.849 1322.06 321.412C1386.2 413.337 1480 415.796 1553.24 326.77C1575.67 299.518 1610.19 220.011 1577.4 153.628C1549.91 98.046 1537.96 86.2557 1481.02 59.8613C1422.82 32.9428 1321.18 40.8455 1280.46 75.4296C1254.84 97.3757 1232.33 148.717 1238.16 177.523ZM1279.37 214.414C1282.67 219.725 1285.67 223.848 1288.57 227.497C1293.36 233.577 1302.79 227.514 1299.32 220.667C1296.5 215.141 1290.59 207.487 1284.51 198.414C1279.66 191.039 1276.57 191.73 1274.78 200.703C1273.89 205.014 1274.19 206.319 1279.37 214.414ZM1303.66 137.88C1305.52 143.836 1323.71 169.289 1326.29 169.398C1328.29 169.483 1330.98 164.074 1331.17 159.616C1331.33 155.98 1311.53 124.112 1309.07 124.007C1306.37 123.893 1302.41 133.949 1303.66 137.88ZM1346.24 247.459C1350.66 259.752 1363.87 275.238 1366.4 270.998C1369.82 265.149 1356.92 234.045 1350.94 233.791C1347.77 233.774 1344.56 242.804 1346.24 247.459ZM1364.8 187.018C1380.07 211.994 1381.66 213.237 1384.61 204.783C1386.34 199.921 1371.8 168.864 1367.81 168.695C1362.29 168.578 1360.4 179.897 1364.8 187.018ZM1377.36 112.689C1380.32 120.337 1392.34 141.65 1393.75 141.709C1403.02 142.103 1390.88 98.5738 1381.21 96.7523C1376.43 95.844 1374.28 104.92 1377.36 112.689ZM1411.52 318.279C1423.88 337.02 1426.26 339.002 1429.34 332.905C1432.55 326.694 1432.32 326.45 1414.85 297.972C1410.01 290.127 1408.04 289.338 1405.48 294.4C1402.02 301.187 1403.12 305.7 1411.52 318.279ZM1426.46 237.706C1435.7 252.436 1438.06 255.005 1440.61 252.998C1444.74 249.882 1444.5 244.583 1439.37 235.199C1436.64 230.264 1432.83 223.169 1430.88 219.442C1426.53 211.148 1425.03 210.38 1421.7 214.234C1417 219.558 1417.98 224.3 1426.46 237.706ZM1465.5 151.34C1470.32 165.06 1484.96 183.075 1487.17 177.998C1491.34 168.421 1470.84 130.765 1466.24 139.619C1464.45 142.951 1464.24 147.761 1465.5 151.34ZM1504.67 263.947C1506.94 271.33 1518.57 288.042 1521.5 288.167C1528.66 288.471 1518.15 256.528 1509.31 251.569C1504.03 248.641 1501.77 254.774 1504.67 263.947ZM1518.58 141.256C1528.57 163.305 1538.22 171.354 1538.45 157.613C1538.53 152.916 1525.08 126.724 1521.2 123.856C1514.35 119.099 1512.77 128.669 1518.58 141.256Z" fill="#F0F0EF"/>
<path fill-rule="evenodd" clip-rule="evenodd" d="M10.1566 1578.52C13.18 1593.11 20.5404 1588.6 17.9563 1574.74C13.265 1549.63 29.4847 1513.65 51.5855 1494.14C87.8533 1462.07 188.992 1452.15 242.997 1475.6C294.583 1497.88 310.785 1512.09 333.099 1553.93C366.076 1615.86 362.732 1669.66 300.321 1738.93C243.826 1801.76 158.612 1788.15 98.5844 1707.33C90.2497 1696.04 70.026 1674.15 53.0923 1657.8C31.753 1637.26 21.8754 1623.56 19.0268 1610.4C16.5876 1598.66 13.2632 1599.46 12.7397 1611.77C11.9171 1631.13 23.0519 1648.41 56.1628 1679.55C71.0792 1693.58 84.6519 1708.85 94.065 1722.41C158.204 1814.34 252 1816.8 325.24 1727.77C347.669 1700.52 382.192 1621.01 349.404 1554.63C321.915 1499.05 309.96 1487.26 253.025 1460.86C194.82 1433.94 93.1774 1441.85 52.4552 1476.43C26.8426 1498.38 4.3294 1549.72 10.1566 1578.52ZM51.3677 1615.41C54.6677 1620.72 57.6654 1624.85 60.5659 1628.5C65.361 1634.58 74.7859 1628.51 71.3161 1621.67C68.4953 1616.14 62.5916 1608.49 56.5134 1599.41C51.6558 1592.04 48.5705 1592.73 46.7789 1601.7C45.8906 1606.01 46.1881 1607.32 51.3677 1615.41ZM75.6559 1538.88C77.5183 1544.84 95.7115 1570.29 98.2924 1570.4C100.287 1570.48 102.983 1565.07 103.173 1560.62C103.327 1556.98 83.5287 1525.11 81.0651 1525.01C78.367 1524.89 74.4127 1534.95 75.6559 1538.88ZM118.243 1648.46C122.657 1660.75 135.867 1676.24 138.397 1672C141.819 1666.15 128.92 1635.05 122.938 1634.79C119.765 1634.77 116.561 1643.8 118.243 1648.46ZM136.796 1588.02C152.071 1612.99 153.663 1614.24 156.608 1605.78C158.342 1600.92 143.795 1569.86 139.807 1569.69C134.288 1569.58 132.398 1580.9 136.796 1588.02ZM149.357 1513.69C152.323 1521.34 164.345 1542.65 165.752 1542.71C175.02 1543.1 162.883 1499.57 153.206 1497.75C148.427 1496.84 146.279 1505.92 149.357 1513.69ZM183.516 1719.28C195.882 1738.02 198.265 1740 201.344 1733.9C204.546 1727.69 204.323 1727.45 186.847 1698.97C182.009 1691.13 180.045 1690.34 177.479 1695.4C174.018 1702.19 175.119 1706.7 183.516 1719.28ZM198.457 1638.71C207.703 1653.44 210.061 1656 212.614 1654C216.742 1650.88 216.498 1645.58 211.373 1636.2C208.644 1631.26 204.833 1624.17 202.876 1620.44C198.527 1612.15 197.032 1611.38 193.695 1615.23C189.003 1620.56 189.978 1625.3 198.457 1638.71ZM237.501 1552.34C242.324 1566.06 256.955 1584.08 259.169 1579C263.337 1569.42 242.843 1531.77 238.236 1540.62C236.449 1543.95 236.243 1548.76 237.501 1552.34ZM276.67 1664.95C278.942 1672.33 290.572 1689.04 293.505 1689.17C300.661 1689.47 290.148 1657.53 281.31 1652.57C276.028 1649.64 273.77 1655.77 276.67 1664.95ZM290.58 1542.26C300.573 1564.3 310.22 1572.35 310.452 1558.61C310.534 1553.92 297.075 1527.72 293.201 1524.86C286.352 1520.1 284.769 1529.67 290.58 1542.26Z" fill="#F0F0EF"/>
<path fill-rule="evenodd" clip-rule="evenodd" d="M1204.16 2274.52C1207.18 2289.11 1214.54 2284.6 1211.96 2270.74C1207.27 2245.63 1223.48 2209.65 1245.59 2190.14C1281.85 2158.07 1382.99 2148.15 1437 2171.6C1488.58 2193.88 1504.78 2208.09 1527.1 2249.93C1560.08 2311.86 1556.73 2365.66 1494.32 2434.93C1437.83 2497.76 1352.61 2484.15 1292.58 2403.33C1284.25 2392.04 1264.03 2370.15 1247.09 2353.8C1225.75 2333.26 1215.88 2319.56 1213.03 2306.4C1210.59 2294.66 1207.26 2295.46 1206.74 2307.77C1205.92 2327.13 1217.05 2344.41 1250.16 2375.55C1265.08 2389.58 1278.65 2404.85 1288.06 2418.41C1352.2 2510.34 1446 2512.8 1519.24 2423.77C1541.67 2396.52 1576.19 2317.01 1543.4 2250.63C1515.91 2195.05 1503.96 2183.26 1447.02 2156.86C1388.82 2129.94 1287.18 2137.85 1246.46 2172.43C1220.84 2194.38 1198.33 2245.72 1204.16 2274.52ZM1245.37 2311.41C1248.67 2316.72 1251.67 2320.85 1254.57 2324.5C1259.36 2330.58 1268.79 2324.51 1265.32 2317.67C1262.5 2312.14 1256.59 2304.49 1250.51 2295.41C1245.66 2288.04 1242.57 2288.73 1240.78 2297.7C1239.89 2302.01 1240.19 2303.32 1245.37 2311.41ZM1269.66 2234.88C1271.52 2240.84 1289.71 2266.29 1292.29 2266.4C1294.29 2266.48 1296.98 2261.07 1297.17 2256.62C1297.33 2252.98 1277.53 2221.11 1275.07 2221.01C1272.37 2220.89 1268.41 2230.95 1269.66 2234.88ZM1312.24 2344.46C1316.66 2356.75 1329.87 2372.24 1332.4 2368C1335.82 2362.15 1322.92 2331.05 1316.94 2330.79C1313.77 2330.77 1310.56 2339.8 1312.24 2344.46ZM1330.8 2284.02C1346.07 2308.99 1347.66 2310.24 1350.61 2301.78C1352.34 2296.92 1337.8 2265.86 1333.81 2265.69C1328.29 2265.58 1326.4 2276.9 1330.8 2284.02ZM1343.36 2209.69C1346.32 2217.34 1358.34 2238.65 1359.75 2238.71C1369.02 2239.1 1356.88 2195.57 1347.21 2193.75C1342.43 2192.84 1340.28 2201.92 1343.36 2209.69ZM1377.52 2415.28C1389.88 2434.02 1392.26 2436 1395.34 2429.9C1398.55 2423.69 1398.32 2423.45 1380.85 2394.97C1376.01 2387.13 1374.04 2386.34 1371.48 2391.4C1368.02 2398.19 1369.12 2402.7 1377.52 2415.28ZM1392.46 2334.71C1401.7 2349.44 1404.06 2352 1406.61 2350C1410.74 2346.88 1410.5 2341.58 1405.37 2332.2C1402.64 2327.26 1398.83 2320.17 1396.88 2316.44C1392.53 2308.15 1391.03 2307.38 1387.7 2311.23C1383 2316.56 1383.98 2321.3 1392.46 2334.71ZM1431.5 2248.34C1436.32 2262.06 1450.96 2280.08 1453.17 2275C1457.34 2265.42 1436.84 2227.77 1432.24 2236.62C1430.45 2239.95 1430.24 2244.76 1431.5 2248.34ZM1470.67 2360.95C1472.94 2368.33 1484.57 2385.04 1487.5 2385.17C1494.66 2385.47 1484.15 2353.53 1475.31 2348.57C1470.03 2345.64 1467.77 2351.77 1470.67 2360.95ZM1484.58 2238.26C1494.57 2260.3 1504.22 2268.35 1504.45 2254.61C1504.53 2249.92 1491.08 2223.72 1487.2 2220.86C1480.35 2216.1 1478.77 2225.67 1484.58 2238.26Z" fill="#F0F0EF"/>
<path fill-rule="evenodd" clip-rule="evenodd" d="M1210.48 782.915L1210.46 782.92C1250.91 971.692 1131.06 1158.66 942.256 1200.44L911.332 1060.69C1023.61 1035.85 1094.78 924.437 1070.32 812.188C1044.71 700.726 933.627 630.314 821.79 654.933L822.038 656.051C633.252 697.827 445.701 578.88 402.734 390.646L402.696 390.653C402.637 390.387 402.583 390.121 402.529 389.854C402.481 389.618 402.433 389.381 402.382 389.146C402.354 389.021 402.325 388.898 402.295 388.774C402.26 388.628 402.224 388.483 402.191 388.336L402.213 388.331C389.055 326.942 392.867 265.749 410.475 209.673L693.282 74.1582L701.336 110.558C589.053 135.405 517.886 246.814 542.352 359.063C567.96 470.525 679.041 540.937 790.878 516.319L790.63 515.2C979.416 473.424 1166.97 592.37 1209.93 780.605L1209.97 780.598C1210.03 780.859 1210.08 781.122 1210.14 781.384C1210.18 781.624 1210.23 781.865 1210.29 782.105C1210.32 782.243 1210.35 782.379 1210.38 782.516C1210.41 782.648 1210.45 782.781 1210.48 782.915Z" fill="#B1B1B1" fill-opacity="0.09"/>
<path fill-rule="evenodd" clip-rule="evenodd" d="M928.91 2005.89L928.897 2005.87C774.897 2122.3 554.793 2092.67 437.154 1939.2L550.751 1852.13C620.712 1943.4 751.758 1960.83 843.158 1891.23C933.362 1820.92 950.248 1690.49 880.681 1599.53L879.772 1600.23C762.143 1446.77 790.707 1226.53 943.161 1108.05L943.138 1108.02C943.354 1107.85 943.573 1107.69 943.792 1107.53C943.986 1107.39 944.18 1107.24 944.372 1107.1C944.473 1107.02 944.572 1106.94 944.672 1106.86C944.789 1106.77 944.906 1106.67 945.025 1106.58L945.038 1106.6C995.119 1068.74 1052.19 1046.34 1110.46 1038.6L1352.77 1237.67L1323.18 1260.35C1253.22 1169.08 1122.18 1151.65 1030.78 1221.25C940.573 1291.55 923.687 1421.98 993.253 1512.95L994.163 1512.25C1111.79 1665.7 1083.23 1885.95 930.774 2004.42L930.797 2004.46C930.584 2004.62 930.369 2004.78 930.154 2004.94C929.957 2005.08 929.759 2005.23 929.563 2005.38C929.452 2005.46 929.342 2005.55 929.232 2005.64C929.126 2005.72 929.019 2005.81 928.91 2005.89Z" fill="#B1B1B1" fill-opacity="0.09"/>
</svg>
