<svg width="25" height="31" viewBox="0 0 25 31" fill="none" xmlns="http://www.w3.org/2000/svg">
<path d="M12.5 0.03125C9.2191 0.0350029 6.07365 1.34 3.7537 3.65995C1.43375 5.9799 0.128753 9.12535 0.125 12.4063C0.125 21.8391 11.7006 30.5035 12.1936 30.8678C12.2823 30.9334 12.3897 30.9688 12.5 30.9688C12.6103 30.9688 12.7177 30.9334 12.8064 30.8678C13.2994 30.5035 24.875 21.8391 24.875 12.4063C24.8712 9.12535 23.5663 5.9799 21.2463 3.65995C18.9264 1.34 15.7809 0.0350029 12.5 0.03125ZM12.5 21.6875C10.6643 21.6875 8.86991 21.1432 7.34361 20.1233C5.81732 19.1035 4.62772 17.654 3.92524 15.958C3.22277 14.2621 3.03897 12.396 3.39709 10.5956C3.75521 8.79518 4.63916 7.14142 5.93717 5.84342C7.23517 4.54541 8.88893 3.66146 10.6893 3.30334C12.4897 2.94522 14.3559 3.12902 16.0518 3.83149C17.7477 4.53397 19.1972 5.72357 20.2171 7.24986C21.2369 8.77616 21.7813 10.5706 21.7813 12.4063C21.7785 14.8669 20.7997 17.226 19.0598 18.966C17.3198 20.706 14.9607 21.6847 12.5 21.6875ZM18.1719 9.82813C18.1918 10.3958 18.0588 10.9583 17.7866 11.4568C17.5145 11.9554 17.1132 12.3715 16.625 12.6617V17.0469C16.625 17.3204 16.5164 17.5827 16.323 17.7761C16.1296 17.9695 15.8673 18.0781 15.5938 18.0781C15.3202 18.0781 15.0579 17.9695 14.8645 17.7761C14.6711 17.5827 14.5625 17.3204 14.5625 17.0469V12.6617C14.0743 12.3715 13.673 11.9554 13.4009 11.4568C13.1287 10.9583 12.9957 10.3958 13.0156 9.82813C13.0156 8.12213 14.1723 6.73438 15.5938 6.73438C17.0152 6.73438 18.1719 8.12213 18.1719 9.82813ZM11.9844 7.25V11.375C11.9839 11.7851 11.8208 12.1783 11.5308 12.4683C11.2408 12.7583 10.8476 12.9214 10.4375 12.9219V17.0469C10.4375 17.3204 10.3289 17.5827 10.1355 17.7761C9.94206 17.9695 9.67975 18.0781 9.40625 18.0781C9.13275 18.0781 8.87044 17.9695 8.67705 17.7761C8.48365 17.5827 8.375 17.3204 8.375 17.0469V12.9219C7.96488 12.9214 7.57169 12.7583 7.28169 12.4683C6.99169 12.1783 6.82857 11.7851 6.82813 11.375V7.25C6.82813 7.11325 6.88245 6.9821 6.97915 6.8854C7.07585 6.7887 7.207 6.73438 7.34375 6.73438C7.4805 6.73438 7.61165 6.7887 7.70835 6.8854C7.80505 6.9821 7.85938 7.11325 7.85938 7.25V9.82813H8.89063V7.25C8.89063 7.11325 8.94495 6.9821 9.04165 6.8854C9.13835 6.7887 9.2695 6.73438 9.40625 6.73438C9.543 6.73438 9.67415 6.7887 9.77085 6.8854C9.86755 6.9821 9.92188 7.11325 9.92188 7.25V9.82813H10.9531V7.25C10.9531 7.11325 11.0074 6.9821 11.1041 6.8854C11.2008 6.7887 11.332 6.73438 11.4688 6.73438C11.6055 6.73438 11.7367 6.7887 11.8334 6.8854C11.9301 6.9821 11.9844 7.11325 11.9844 7.25Z" fill="#222222"/>
<path fill-rule="evenodd" clip-rule="evenodd" d="M12.5 21.6875C10.6643 21.6875 8.86991 21.1432 7.34361 20.1233C5.81732 19.1035 4.62772 17.654 3.92524 15.958C3.22277 14.2621 3.03897 12.396 3.39709 10.5956C3.75521 8.79518 4.63916 7.14142 5.93717 5.84342C7.23517 4.54541 8.88893 3.66146 10.6893 3.30334C12.4897 2.94522 14.3559 3.12902 16.0518 3.83149C17.7477 4.53397 19.1972 5.72357 20.2171 7.24986C21.2369 8.77616 21.7813 10.5706 21.7813 12.4063C21.7785 14.8669 20.7997 17.226 19.0598 18.966C17.3198 20.706 14.9607 21.6847 12.5 21.6875ZM17.7866 11.4568C18.0588 10.9583 18.1918 10.3958 18.1719 9.82813C18.1719 8.12213 17.0152 6.73438 15.5938 6.73438C14.1723 6.73438 13.0156 8.12213 13.0156 9.82813C12.9957 10.3958 13.1287 10.9583 13.4009 11.4568C13.673 11.9554 14.0743 12.3715 14.5625 12.6617V17.0469C14.5625 17.3204 14.6711 17.5827 14.8645 17.7761C15.0579 17.9695 15.3202 18.0781 15.5938 18.0781C15.8673 18.0781 16.1296 17.9695 16.323 17.7761C16.5164 17.5827 16.625 17.3204 16.625 17.0469V12.6617C17.1132 12.3715 17.5145 11.9554 17.7866 11.4568ZM11.9844 11.375V7.25C11.9844 7.11325 11.9301 6.9821 11.8334 6.8854C11.7367 6.7887 11.6055 6.73438 11.4688 6.73438C11.332 6.73438 11.2008 6.7887 11.1041 6.8854C11.0074 6.9821 10.9531 7.11325 10.9531 7.25V9.82813H9.92188V7.25C9.92188 7.11325 9.86755 6.9821 9.77085 6.8854C9.67415 6.7887 9.543 6.73438 9.40625 6.73438C9.2695 6.73438 9.13835 6.7887 9.04165 6.8854C8.94495 6.9821 8.89063 7.11325 8.89063 7.25V9.82813H7.85938V7.25C7.85938 7.11325 7.80505 6.9821 7.70835 6.8854C7.61165 6.7887 7.4805 6.73438 7.34375 6.73438C7.207 6.73438 7.07585 6.7887 6.97915 6.8854C6.88245 6.9821 6.82813 7.11325 6.82813 7.25V11.375C6.82857 11.7851 6.99169 12.1783 7.28169 12.4683C7.57169 12.7583 7.96488 12.9214 8.375 12.9219V17.0469C8.375 17.3204 8.48365 17.5827 8.67705 17.7761C8.87044 17.9695 9.13275 18.0781 9.40625 18.0781C9.67975 18.0781 9.94206 17.9695 10.1355 17.7761C10.3289 17.5827 10.4375 17.3204 10.4375 17.0469V12.9219C10.8476 12.9214 11.2408 12.7583 11.5308 12.4683C11.8208 12.1783 11.9839 11.7851 11.9844 11.375Z" fill="white"/>
</svg>
