<svg width="42" height="54" viewBox="0 0 42 54" fill="none" xmlns="http://www.w3.org/2000/svg">
<path d="M30.4691 16.8764C30.5496 16.9926 30.6008 17.1266 30.6182 17.267C30.6357 17.4073 30.619 17.5497 30.5695 17.6822L27.9445 24.6822C27.8819 24.849 27.7699 24.9927 27.6235 25.0941C27.477 25.1956 27.3031 25.25 27.125 25.25H16.625C16.4299 25.25 16.2404 25.1848 16.0865 25.0647C15.9327 24.9446 15.8235 24.7766 15.7761 24.5873L13.4826 15.4131C13.4356 15.2236 13.3264 15.0553 13.1725 14.9351C13.0186 14.8149 12.8289 14.7497 12.6337 14.75H11.375C11.1429 14.75 10.9204 14.6578 10.7563 14.4937C10.5922 14.3296 10.5 14.1071 10.5 13.875C10.5 13.6429 10.5922 13.4204 10.7563 13.2563C10.9204 13.0922 11.1429 13 11.375 13H12.6337C13.2193 12.9993 13.7883 13.1948 14.2499 13.5551C14.7115 13.9155 15.0391 14.4201 15.1805 14.9884L15.5582 16.5H29.75C29.8914 16.4999 30.0306 16.5341 30.1559 16.5997C30.2811 16.6652 30.3886 16.7602 30.4691 16.8764ZM18.375 26.125C17.8558 26.125 17.3483 26.279 16.9166 26.5674C16.485 26.8558 16.1485 27.2658 15.9498 27.7455C15.7511 28.2251 15.6992 28.7529 15.8004 29.2621C15.9017 29.7713 16.1517 30.239 16.5188 30.6062C16.886 30.9733 17.3537 31.2233 17.8629 31.3246C18.3721 31.4258 18.8999 31.3739 19.3795 31.1752C19.8592 30.9765 20.2692 30.64 20.5576 30.2084C20.846 29.7767 21 29.2692 21 28.75C20.9992 28.054 20.7224 27.3868 20.2303 26.8947C19.7382 26.4026 19.071 26.1258 18.375 26.125ZM25.375 26.125C24.8558 26.125 24.3483 26.279 23.9166 26.5674C23.485 26.8558 23.1485 27.2658 22.9498 27.7455C22.7511 28.2251 22.6992 28.7529 22.8004 29.2621C22.9017 29.7713 23.1517 30.239 23.5188 30.6062C23.886 30.9733 24.3537 31.2233 24.8629 31.3246C25.3721 31.4258 25.8999 31.3739 26.3795 31.1752C26.8592 30.9765 27.2692 30.64 27.5576 30.2084C27.846 29.7767 28 29.2692 28 28.75C27.9992 28.054 27.7224 27.3868 27.2303 26.8947C26.7382 26.4026 26.071 26.1258 25.375 26.125ZM42 21.75C42 37.7573 22.3565 52.4605 21.52 53.0787C21.3694 53.1899 21.1872 53.25 21 53.25C20.8128 53.25 20.6306 53.1899 20.48 53.0787C19.6435 52.4605 0 37.7573 0 21.75C8.29927e-08 16.1805 2.21249 10.839 6.15076 6.90076C10.089 2.96249 15.4305 0.75 21 0.75C26.5695 0.75 31.911 2.96249 35.8492 6.90076C39.7875 10.839 42 16.1805 42 21.75ZM36.75 21.75C36.75 18.6349 35.8263 15.5898 34.0956 12.9998C32.365 10.4097 29.9052 8.39098 27.0273 7.1989C24.1493 6.00682 20.9825 5.69492 17.9273 6.30263C14.8721 6.91035 12.0657 8.41039 9.86307 10.6131C7.66039 12.8157 6.16035 15.6221 5.55263 18.6773C4.94492 21.7325 5.25682 24.8993 6.4489 27.7773C7.64098 30.6552 9.65969 33.115 12.2498 34.8456C14.8398 36.5763 17.8849 37.5 21 37.5C25.1757 37.4953 29.179 35.8344 32.1317 32.8817C35.0844 29.929 36.7453 25.9257 36.75 21.75Z" fill="#222222"/>
<path fill-rule="evenodd" clip-rule="evenodd" d="M36.75 21.75C36.75 18.6349 35.8263 15.5898 34.0956 12.9998C32.365 10.4097 29.9052 8.39098 27.0273 7.1989C24.1493 6.00682 20.9825 5.69492 17.9273 6.30263C14.8721 6.91035 12.0657 8.41039 9.86307 10.6131C7.66039 12.8157 6.16035 15.6221 5.55263 18.6773C4.94492 21.7325 5.25682 24.8993 6.4489 27.7773C7.64098 30.6552 9.65969 33.115 12.2498 34.8456C14.8398 36.5763 17.8849 37.5 21 37.5C25.1757 37.4953 29.179 35.8344 32.1317 32.8817C35.0844 29.929 36.7453 25.9257 36.75 21.75ZM30.6182 17.267C30.6008 17.1266 30.5496 16.9926 30.4691 16.8764C30.3886 16.7602 30.2811 16.6652 30.1559 16.5997C30.0306 16.5341 29.8914 16.4999 29.75 16.5H15.5582L15.1805 14.9884C15.0391 14.4201 14.7115 13.9155 14.2499 13.5551C13.7883 13.1948 13.2193 12.9993 12.6337 13H11.375C11.1429 13 10.9204 13.0922 10.7563 13.2563C10.5922 13.4204 10.5 13.6429 10.5 13.875C10.5 14.1071 10.5922 14.3296 10.7563 14.4937C10.9204 14.6578 11.1429 14.75 11.375 14.75H12.6337C12.8289 14.7497 13.0186 14.8149 13.1725 14.9351C13.3264 15.0553 13.4356 15.2236 13.4826 15.4131L15.7761 24.5873C15.8235 24.7766 15.9327 24.9446 16.0865 25.0647C16.2404 25.1848 16.4299 25.25 16.625 25.25H27.125C27.3031 25.25 27.477 25.1956 27.6235 25.0941C27.7699 24.9927 27.8819 24.849 27.9445 24.6822L30.5695 17.6822C30.619 17.5497 30.6357 17.4073 30.6182 17.267ZM16.9166 26.5674C17.3483 26.279 17.8558 26.125 18.375 26.125C19.071 26.1258 19.7382 26.4026 20.2303 26.8947C20.7224 27.3868 20.9992 28.054 21 28.75C21 29.2692 20.846 29.7767 20.5576 30.2084C20.2692 30.64 19.8592 30.9765 19.3795 31.1752C18.8999 31.3739 18.3721 31.4258 17.8629 31.3246C17.3537 31.2233 16.886 30.9733 16.5188 30.6062C16.1517 30.239 15.9017 29.7713 15.8004 29.2621C15.6992 28.7529 15.7511 28.2251 15.9498 27.7455C16.1485 27.2658 16.485 26.8558 16.9166 26.5674ZM23.9166 26.5674C24.3483 26.279 24.8558 26.125 25.375 26.125C26.071 26.1258 26.7382 26.4026 27.2303 26.8947C27.7224 27.3868 27.9992 28.054 28 28.75C28 29.2692 27.846 29.7767 27.5576 30.2084C27.2692 30.64 26.8592 30.9765 26.3795 31.1752C25.8999 31.3739 25.3721 31.4258 24.8629 31.3246C24.3537 31.2233 23.886 30.9733 23.5188 30.6062C23.1517 30.239 22.9017 29.7713 22.8004 29.2621C22.6992 28.7529 22.7511 28.2251 22.9498 27.7455C23.1485 27.2658 23.485 26.8558 23.9166 26.5674Z" fill="white"/>
</svg>
