<svg width="774" height="636" viewBox="0 0 774 636" fill="none" xmlns="http://www.w3.org/2000/svg">
<path fill-rule="evenodd" clip-rule="evenodd" d="M1173.79 10.2984L1128.13 -149C1114.59 -92.1136 1121.43 -30.2121 1152.06 24.7853L1152.38 24.6058C1189.43 93.4194 1164.46 179.708 1096.15 218.04C1027.12 255.766 940.169 230.777 901.763 162.005L902.452 161.621C837.734 45.4299 690.901 3.26658 574.449 67.1206L574.435 67.0975C574.275 67.187 574.116 67.2791 573.958 67.3713L573.957 67.3716L573.956 67.372C573.81 67.4568 573.664 67.5416 573.517 67.6244C573.395 67.6921 573.271 67.7566 573.148 67.8226L573.1 67.8483C573.071 67.864 573.042 67.8799 573.013 67.8959L573.02 67.9092C457.864 133.056 416.295 279.247 479.997 395.245L479.372 395.593C517.864 464.699 493.051 552.184 424.136 590.856C355.058 628.607 268.04 603.559 229.674 534.68L228.564 535.299C163.353 420.43 17.4086 379.007 -98.4598 442.54L-98.4733 442.517C-98.6354 442.608 -98.7958 442.701 -98.9562 442.794L-98.9588 442.795C-99.1028 442.879 -99.2468 442.963 -99.3923 443.044C-99.4771 443.091 -99.5627 443.137 -99.6485 443.183L-99.6493 443.183L-99.6501 443.183C-99.732 443.227 -99.8141 443.271 -99.8957 443.316L-99.8885 443.329C-215.472 508.718 -256.921 655.755 -192.198 771.956L-106.186 724.048C-144.678 654.941 -119.865 567.457 -50.9506 528.784C18.1284 491.033 105.146 516.081 143.511 584.96L144.622 584.342C209.833 699.211 355.777 740.634 471.646 677.1L471.659 677.123C471.821 677.033 471.98 676.94 472.14 676.848C472.201 676.812 472.263 676.776 472.324 676.741C472.409 676.692 472.493 676.644 472.578 676.596C472.663 676.549 472.748 676.504 472.833 676.458C472.916 676.414 472.999 676.37 473.082 676.325L473.074 676.312C588.23 611.164 629.799 464.973 566.098 348.976L566.723 348.628C528.231 279.521 553.044 192.037 621.958 153.364C690.99 115.639 777.936 140.627 816.342 209.4L815.653 209.784C880.371 325.975 1027.2 368.138 1143.66 304.284L1143.67 304.307C1143.83 304.217 1143.99 304.123 1144.15 304.029C1144.3 303.946 1144.44 303.862 1144.59 303.78C1144.67 303.733 1144.76 303.688 1144.84 303.643C1144.93 303.599 1145.01 303.555 1145.09 303.509L1145.08 303.496C1182.67 282.231 1212.41 252.327 1233.22 217.661L1173.79 10.2984Z" fill="url(#paint0_linear_1888_4279)"/>
<defs>
<linearGradient id="paint0_linear_1888_4279" x1="393.064" y1="61.674" x2="563.676" y2="656.956" gradientUnits="userSpaceOnUse">
<stop stop-color="#CC9955"/>
<stop offset="1" stop-color="#BC781E"/>
</linearGradient>
</defs>
</svg>
