<svg width="109" height="71" viewBox="0 0 109 71" fill="none" xmlns="http://www.w3.org/2000/svg">
<path fill-rule="evenodd" clip-rule="evenodd" d="M101.675 2.58993C108.428 13.5292 89.8832 40.0411 72.6679 44.0475C70.1136 44.6398 70.1136 44.5002 72.7729 41.3996C81.2406 31.4359 85.3345 21.96 83.0251 17.6749C80.1209 12.3446 72.1081 12.484 66.8945 17.9188C58.2869 26.9071 55.9425 37.4629 61.2261 43.3157L62.4858 44.7093L59.9315 47.0435C53.3533 53.0357 43.8009 58.0176 38.7272 58.0176H37.5725C45.6553 48.4022 60.1414 29.9029 48.8745 24.2591C34.9483 17.2914 17.5581 45.6498 28.755 57.0071L30.3296 58.6099C30.2946 58.6447 11.8197 73.9735 6.11622 66.0304C2.75714 61.362 4.57661 50.562 10.1051 42.0266L11.1898 40.3545C11.4698 39.9016 11.3648 39.3442 10.9449 39.0307C6.85104 36.1739 -1.26675 52.4783 0.167855 60.6304C2.40724 73.4161 17.3831 74.5659 31.9391 63.0344L34.7034 60.8744L36.6278 61.2228C44.7806 62.7208 56.1175 58.1571 64.9351 49.7959C67.4894 47.3572 67.5944 47.3223 68.784 47.6358C87.294 52.6177 117.561 16.8387 106.714 2.69438C104.929 0.429886 98.8408 -1.97389 101.675 2.58993ZM78.2664 18.0232C78.7213 22.6219 74.7323 30.356 67.6643 38.752C64.935 41.992 64.7951 42.0269 64.2003 39.5185C62.6257 32.9341 69.9037 19.7304 76.4119 17.3962C78.1614 16.7691 78.1264 16.7691 78.2664 18.0232ZM47.7548 27.2204C49.7142 32.3067 41.9114 47.5662 33.3037 55.5442L32.429 56.3454L31.4143 54.3248C29.1049 49.6217 30.1196 42.3402 33.9336 36.6267C38.4473 29.8332 46.6351 24.2591 47.7548 27.2204Z" fill="#D7DB2D"/>
</svg>
