<svg width="59" height="53" viewBox="0 0 59 53" fill="none" xmlns="http://www.w3.org/2000/svg">
<path fill-rule="evenodd" clip-rule="evenodd" d="M24.0743 27.026C18.4524 44.1039 18.9828 51.1047 25.8776 50.935C28.8264 50.8502 29.5689 51.6139 27.2353 52.3352C21.6771 54.0112 16.8613 50.1076 16.8613 43.9341C16.8613 40.2332 19.2464 32.8958 20.8185 28.0599C21.5623 25.7716 22.1241 24.0434 22.165 23.5255C22.6529 16.7792 19.8738 20.1099 16.0763 30.8022C12.8729 39.8397 12.385 40.3911 7.73894 40.3698C-0.598468 40.3486 -1.87133 35.936 2.35041 21.7433C5.59627 10.8601 14.9944 1.82272 24.5835 0.295251C29.7174 -0.510911 35.1909 0.570959 29.9932 0.740677C19.301 1.10133 9.37248 9.1631 5.87198 20.3433C5.63861 21.107 5.10833 22.7828 4.68403 24.0769C1.92611 32.6264 2.2231 36.6363 5.72354 38.6304C9.09669 40.5398 11.1757 38.6302 13.1063 31.7778C15.355 23.8435 17.7523 19.6644 20.3617 19.1128C24.3501 18.2642 25.8776 21.5313 24.0743 27.026ZM34.2572 0.634671C37.7364 -0.74429 47.5801 4.2201 52.3958 9.77846C58.9724 17.3734 60.6908 29.9959 54.6658 43.5734C51.8442 49.9166 48.4286 52.229 43.3159 51.9108C36.6969 51.4865 35.3816 45.1221 39.8367 35.1723C41.2793 31.9265 42.0218 29.8687 42.2127 28.4685C42.5097 26.1773 41.5339 26.2409 40.3034 27.8957C38.2955 30.561 37.0615 34.5361 35.866 38.3872C35.6341 39.1341 35.4037 39.8763 35.1694 40.6033C34.5118 42.6612 32.2206 47.4771 31.3083 48.7076C29.8233 50.7018 27.4685 50.744 28.7838 48.771C29.3566 47.9012 31.4356 42.8945 34.2572 35.6179C37.7576 26.5804 38.7335 25.2226 41.7036 25.2226C45.6071 25.2226 45.9253 28.5321 42.7855 35.9149C41.0035 40.1366 40.0488 43.1915 41.0247 46.8829C42.4461 52.1866 47.0497 50.4258 48.8742 48.1134C58.0814 36.4452 57.5722 18.5612 47.7073 8.73872C44.0796 5.13225 37.9273 1.88643 34.7027 1.88643C33.0479 1.88643 32.8146 1.20747 34.2572 0.634671Z" fill="#D7DB2D"/>
</svg>
