<svg width="118" height="49" viewBox="0 0 118 49" fill="none" xmlns="http://www.w3.org/2000/svg">
<path fill-rule="evenodd" clip-rule="evenodd" d="M100.337 0.336871C87.7444 3.62228 91.6173 6.68703 98.5663 4.43138C110.03 0.704644 116.868 6.46637 113.505 17.0581C111.114 24.5607 99.6286 33.4607 87.8329 36.9422C75.5282 40.5709 54.0393 40.8161 39.5879 37.3345C38.1937 36.9913 25.2472 34.2943 22.9899 33.7794C13.54 31.5973 8.40563 31.3031 4.73193 32.8232C-0.225359 34.8827 -1.66387 43.1208 2.23115 47.1417C3.95735 48.9315 4.3557 48.6373 3.29343 46.4062C-1.06633 37.2365 8.36137 32.4309 23.2112 36.2557C30.7135 38.1927 36.4896 39.0998 40.5174 40.1296C76.6348 49.3729 117.377 35.4712 117.289 13.7973C117.267 5.63276 108.06 -1.6736 100.337 0.336871Z" fill="#D7DB2D"/>
</svg>
