<svg xmlns="http://www.w3.org/2000/svg" width="347" height="356" viewBox="0 0 347 356" fill="none">
  <path fill-rule="evenodd" clip-rule="evenodd" d="M205.924 1.41425C191.482 5.05419 196.296 12.2166 210.034 9.04638C234.926 3.29293 271.561 17.9703 291.991 39.2229C325.573 74.0962 339.78 174.723 318.645 229.674C298.567 282.16 285.064 298.95 244.202 323.021C183.732 358.598 129.838 357.542 57.9784 298.129C-7.18784 244.351 2.79274 158.637 80.9922 95.2313C91.912 86.425 112.93 65.2899 128.546 47.6772C148.155 25.4853 161.423 15.0349 174.456 11.6298C186.081 8.69437 185.141 5.40691 172.813 5.40691C153.439 5.40691 136.648 17.2654 106.941 51.6687C93.5559 67.1674 78.8787 81.3761 65.728 91.3565C-23.3913 159.341 -21.8651 253.156 70.1898 322.55C98.37 343.803 179.271 374.918 244.202 339.341C298.567 309.517 309.839 297.072 333.792 239.068C358.215 179.772 346.003 78.5569 309.721 39.3398C286.707 14.6822 234.457 -5.63079 205.924 1.41425ZM170.816 44.1546C165.65 47.6772 161.658 50.8472 158.135 53.9C152.265 58.949 158.723 68.1079 165.415 64.3505C170.816 61.2977 178.214 55.0742 187.02 48.6163C194.183 43.4499 193.361 40.3968 184.319 38.9878C179.975 38.2833 178.683 38.636 170.816 44.1546ZM248.312 65.1713C242.441 67.2848 217.783 86.5424 217.783 89.1256C217.783 91.1217 223.302 93.5863 227.764 93.5863C231.404 93.5863 262.402 72.4523 262.402 69.9866C262.402 67.286 252.187 63.7623 248.312 65.1713ZM140.64 112.373C128.546 117.305 113.634 131.16 117.979 133.508C123.967 136.678 154.495 122.471 154.495 116.483C154.378 113.312 145.22 110.494 140.64 112.373ZM201.815 128.343C177.509 144.664 176.335 146.308 184.907 148.891C189.838 150.417 220.249 134.565 220.249 130.573C220.132 125.054 208.742 123.646 201.815 128.343ZM276.61 137.736C269.095 141.024 248.312 153.94 248.312 155.349C248.312 164.625 291.287 150.651 292.696 140.905C293.4 136.091 284.242 134.331 276.61 137.736ZM72.6556 180.594C54.4563 193.744 52.5772 196.209 58.8004 199.027C65.1409 201.963 65.3757 201.729 93.0862 183.059C100.718 177.893 101.423 175.897 96.2565 173.549C89.3289 170.378 84.867 171.67 72.6556 180.594ZM153.791 192.101C139.466 201.964 137 204.428 139.114 206.894C142.401 210.886 147.685 210.417 156.844 204.898C161.658 201.963 168.586 197.853 172.225 195.739C180.327 191.043 181.032 189.516 177.04 186.346C171.521 181.884 166.824 183.059 153.791 192.101ZM241.737 227.442C228.234 232.843 210.856 248.226 216.022 250.222C225.768 253.98 262.519 231.905 253.478 227.678C250.073 226.034 245.259 226.033 241.737 227.442ZM130.895 271.357C123.615 273.941 107.411 286.269 107.411 289.205C107.411 296.367 138.879 284.508 143.458 275.467C146.159 270.066 139.936 268.07 130.895 271.357ZM254.065 280.045C232.461 290.965 224.828 300.945 238.566 300.593C243.263 300.476 268.86 285.917 271.561 281.925C276.022 274.88 266.394 273.705 254.065 280.045Z" fill="#F0F0EF"/>
</svg>