<svg width="30" height="30" viewBox="0 0 30 30" fill="none" xmlns="http://www.w3.org/2000/svg">
<g id="Logo 8">
<path id="Vector" d="M15.1324 29.3401C22.9784 29.3401 29.3389 22.9795 29.3389 15.1334C29.3389 7.2873 22.9784 0.926758 15.1324 0.926758C7.28629 0.926758 0.925781 7.2873 0.925781 15.1334C0.925781 22.9795 7.28629 29.3401 15.1324 29.3401Z" fill="white"/>
<path id="Vector_2" d="M7.01554 14.8224C7.01554 14.8224 14.0528 11.8285 16.4934 10.7743C17.429 10.3526 20.6018 9.0032 20.6018 9.0032C20.6018 9.0032 22.0662 8.41289 21.9442 9.84657C21.9035 10.4369 21.5781 12.5031 21.2527 14.738C20.7645 17.9006 20.2357 21.3584 20.2357 21.3584C20.2357 21.3584 20.1544 22.3282 19.4629 22.4969C18.7714 22.6656 17.6323 21.9066 17.429 21.7379C17.2662 21.6114 14.3782 19.7138 13.3205 18.7861C13.0358 18.5331 12.7104 18.0272 13.3612 17.4368C14.8256 16.0452 16.5747 14.3164 17.6323 13.22C18.1205 12.714 18.6086 11.5333 16.5747 12.967C13.6867 15.0332 10.8392 16.9729 10.8392 16.9729C10.8392 16.9729 10.1884 17.3946 8.96806 17.0151C7.74769 16.6356 6.32398 16.1296 6.32398 16.1296C6.32398 16.1296 5.34777 15.4971 7.01554 14.8224Z" fill="#222222"/>
</g>
</svg>
