<svg width="28" height="23" viewBox="0 0 28 23" fill="none" xmlns="http://www.w3.org/2000/svg">
<g id="Capa 2">
<g id="ELEMENTS">
<path id="Vector" d="M26.918 2.96288C26.0594 3.33239 25.1567 3.5897 24.2324 3.72845C24.6645 3.65436 25.3004 2.87645 25.5536 2.56158C25.9381 2.08663 26.2312 1.54444 26.4179 0.962543C26.4179 0.919326 26.4611 0.857587 26.4179 0.826718C26.3961 0.81483 26.3717 0.8086 26.3469 0.8086C26.3221 0.8086 26.2977 0.81483 26.2759 0.826718C25.2722 1.37028 24.2039 1.78514 23.0964 2.0615C23.0578 2.07329 23.0167 2.07435 22.9775 2.06456C22.9384 2.05477 22.9026 2.0345 22.8741 2.00593C22.7879 1.90328 22.6951 1.80635 22.5963 1.71576C22.1446 1.31103 21.6321 0.979774 21.0775 0.73411C20.329 0.427006 19.5204 0.294007 18.7129 0.345155C17.9294 0.394637 17.1645 0.60479 16.4656 0.962543C15.7775 1.33972 15.1727 1.85213 14.6876 2.46897C14.1773 3.10386 13.8089 3.84067 13.6072 4.62983C13.4408 5.38049 13.4219 6.15632 13.5516 6.91417C13.5516 7.04382 13.5516 7.06234 13.4405 7.04382C9.0385 6.39556 5.4268 4.83357 2.4757 1.48115C2.34605 1.33298 2.27813 1.33298 2.17318 1.48115C0.889016 3.4321 1.51257 6.51904 3.11778 8.04399C3.33386 8.24773 3.55612 8.44529 3.79073 8.63051C3.05475 8.57826 2.33675 8.37882 1.67927 8.04399C1.55579 7.96373 1.48788 8.00695 1.48171 8.15512C1.4642 8.36055 1.4642 8.56709 1.48171 8.77251C1.61053 9.757 1.9985 10.6896 2.60596 11.475C3.21342 12.2603 4.01857 12.8703 4.93906 13.2424C5.16346 13.3385 5.39727 13.4109 5.63671 13.4585C4.95538 13.5926 4.25659 13.6135 3.56847 13.5202C3.4203 13.4894 3.36473 13.5696 3.4203 13.7116C4.32785 16.1812 6.29731 16.9344 7.74199 17.3542C7.93956 17.3851 8.13712 17.3851 8.35938 17.4345C8.35938 17.4345 8.35938 17.4345 8.32234 17.4715C7.89634 18.2494 6.17383 18.7742 5.38358 19.0459C3.94117 19.564 2.40328 19.762 0.876668 19.6262C0.635887 19.5892 0.580323 19.5953 0.518584 19.6262C0.456846 19.6571 0.518584 19.725 0.586497 19.7867C0.895189 19.9905 1.20388 20.1695 1.52492 20.3424C2.48066 20.8637 3.49107 21.2778 4.53776 21.5772C9.95841 23.0712 16.0582 21.9723 20.1267 17.9284C23.3248 14.755 24.4484 10.3777 24.4484 5.99426C24.4484 5.82757 24.6522 5.72878 24.7695 5.64235C25.5786 5.01193 26.2919 4.26742 26.8871 3.4321C26.9902 3.30758 27.043 3.14904 27.0353 2.98758C27.0353 2.89497 27.0353 2.91349 26.918 2.96288Z" fill="white"/>
</g>
</g>
</svg>
