<svg width="32" height="18" viewBox="0 0 32 18" fill="none" xmlns="http://www.w3.org/2000/svg">
<path fill-rule="evenodd" clip-rule="evenodd" d="M30.7392 1.19147C30.9579 0.504668 30.7392 0 29.6984 0H26.2565C25.3813 0 24.9779 0.435958 24.7591 0.916694C24.7591 0.916694 23.0088 4.93445 20.5292 7.54424C19.727 8.2997 19.3624 8.54006 18.9248 8.54006C18.706 8.54006 18.3893 8.29969 18.3893 7.61295V1.19147C18.3893 0.367308 18.1353 0 17.406 0H11.9974C11.4505 0 11.1216 0.382514 11.1216 0.745036C11.1216 1.52633 12.3613 1.7065 12.489 3.90427V8.67748C12.489 9.72399 12.2884 9.91372 11.8508 9.91372C10.684 9.91372 7.84572 5.87802 6.16236 1.26012C5.83247 0.362566 5.50158 0 4.62194 0H1.18008C0.196688 0 0 0.435958 0 0.916694C0 1.77521 1.16687 6.03333 5.43313 11.665C8.27728 15.511 12.2845 17.5958 15.9309 17.5958C18.1187 17.5958 18.3894 17.1327 18.3894 16.3351V13.4284C18.3894 12.5023 18.5966 12.3175 19.2895 12.3175C19.7999 12.3175 20.6751 12.5578 22.7171 14.4122C25.0508 16.6099 25.4355 17.5958 26.7482 17.5958H30.1901C31.1734 17.5958 31.6651 17.1327 31.3815 16.2189C31.0711 15.3082 29.9569 13.9868 28.4784 12.4205C27.6762 11.5276 26.4729 10.5662 26.1082 10.0853C25.5977 9.46729 25.7436 9.19251 26.1082 8.64313C26.1082 8.64313 30.3016 3.08011 30.7392 1.19147Z" fill="white"/>
</svg>
