<svg width="27" height="27" viewBox="0 0 27 27" fill="none" xmlns="http://www.w3.org/2000/svg">
<g id="Group 686">
<path id="Vector" d="M0.0625 26.062L1.92794 19.132C0.423509 16.4324 -0.0544633 13.2822 0.581731 10.2595C1.21793 7.23679 2.92561 4.54429 5.39143 2.67608C7.85724 0.807865 10.9158 -0.110731 14.0058 0.0888498C17.0958 0.288431 20.0101 1.5928 22.2137 3.76261C24.4174 5.93242 25.7627 8.82211 26.0028 11.9014C26.2428 14.9808 25.3615 18.0432 23.5206 20.5267C21.6797 23.0102 19.0027 24.7482 15.9807 25.4219C12.9588 26.0955 9.79463 25.6595 7.06892 24.194L0.0625 26.062ZM7.40675 21.6007L7.84007 21.8571C9.81435 23.0244 12.1203 23.5074 14.3985 23.2309C16.6768 22.9545 18.7993 21.934 20.4355 20.3287C22.0716 18.7233 23.1293 16.6232 23.4439 14.3556C23.7585 12.0881 23.3122 9.78035 22.1746 7.79217C21.037 5.80398 19.272 4.24699 17.1546 3.36384C15.0373 2.48069 12.6865 2.32097 10.4686 2.90959C8.25073 3.49821 6.29036 4.8021 4.89299 6.61806C3.49562 8.43402 2.73974 10.66 2.74315 12.9492C2.7413 14.8474 3.26758 16.7087 4.26341 18.3262L4.53515 18.7731L3.49227 22.641L7.40675 21.6007Z" fill="white"/>
<path id="Vector_2" fill-rule="evenodd" clip-rule="evenodd" d="M17.924 14.7285C17.67 14.5241 17.3726 14.3803 17.0544 14.3079C16.7362 14.2355 16.4057 14.2366 16.0879 14.3109C15.6106 14.5087 15.3021 15.2559 14.9936 15.6295C14.9286 15.7191 14.833 15.7819 14.7248 15.8062C14.6167 15.8304 14.5033 15.8145 14.4061 15.7614C12.6584 15.0786 11.1935 13.8265 10.2493 12.2085C10.1687 12.1075 10.1306 11.9793 10.1429 11.8508C10.1553 11.7224 10.2171 11.6037 10.3154 11.5199C10.6594 11.1801 10.912 10.7594 11.0498 10.2965C11.0804 9.7859 10.9631 9.27731 10.7119 8.83137C10.5178 8.20617 10.1482 7.64948 9.64702 7.22707C9.38851 7.1111 9.10187 7.07221 8.82169 7.1151C8.54151 7.158 8.27976 7.28084 8.06801 7.46881C7.70041 7.78516 7.40863 8.17973 7.21416 8.62346C7.01969 9.06719 6.92749 9.54878 6.94434 10.0328C6.94547 10.3045 6.98 10.5752 7.04716 10.8386C7.2177 11.4714 7.47996 12.0761 7.82565 12.6333C8.07506 13.0602 8.34718 13.4735 8.64086 13.8714C9.59528 15.1782 10.795 16.2878 12.1734 17.1386C12.8652 17.5709 13.6045 17.9224 14.3767 18.1861C15.1789 18.5488 16.0647 18.6881 16.9399 18.589C17.4385 18.5137 17.911 18.3174 18.3157 18.0172C18.7203 17.717 19.0449 17.3222 19.2607 16.8675C19.3874 16.5929 19.4259 16.2858 19.3708 15.9885C19.2386 15.3804 18.4234 15.0215 17.924 14.7285Z" fill="white"/>
</g>
</svg>
