<svg width="32" height="24" viewBox="0 0 32 24" fill="none" xmlns="http://www.w3.org/2000/svg">
<path id="youtube" d="M31.2 3.64286C30.8 2.14286 29.8 1.07143 28.4 0.642858C26 3.83173e-07 15.8 0 15.8 0C15.8 0 5.80001 3.83173e-07 3.20001 0.642858C1.80001 1.07143 0.799994 2.14286 0.399994 3.64286C-6.10948e-06 6.42857 0 12 0 12C0 12 6.07967e-06 17.5714 0.600006 20.3571C1.00001 21.8571 1.99999 22.9286 3.39999 23.3571C5.79999 24 16 24 16 24C16 24 26 24 28.6 23.3571C30 22.9286 31 21.8571 31.4 20.3571C32 17.5714 32 12 32 12C32 12 32 6.42857 31.2 3.64286ZM12.8 17.1429V6.85714L21.2 12L12.8 17.1429Z" fill="#9E9E9E"/>
</svg>
