<svg width="64" height="72" viewBox="0 0 64 72" fill="none" xmlns="http://www.w3.org/2000/svg">
<path fill-rule="evenodd" clip-rule="evenodd" d="M6.43358 36.8236C5.90321 31.5358 6.99782 28.7899 10.1567 27.5013C16.8873 24.7698 18.1541 21.9503 16.3381 13.794C14.9463 7.55879 15.1352 5.28233 17.326 2.82223C20.2941 -0.536691 13.9484 -0.0606911 11.6874 3.83275C10.0358 6.67895 9.94549 8.7096 11.2736 13.8163C13.3086 21.6865 12.6707 23.775 7.70679 25.6694C1.72836 27.9201 -0.263065 32.0066 1.33492 38.6215C2.12349 42.027 6.9257 41.8801 6.43358 36.8236ZM34.0497 34.6983C33.539 35.4997 32.7144 37.5249 32.2219 39.1551C30.8972 43.6558 30.4894 43.9895 26.9446 43.5884C20.3153 42.8206 13.9388 46.6776 13.6728 51.6342C13.4124 55.8564 16.9067 55.7784 18.1327 51.5234C19.4409 46.9968 21.2514 45.6567 25.5732 46.0728C32.273 46.7224 35.7653 44.5264 37.3282 38.7408C38.6895 33.6687 39.9503 32.4973 42.7978 33.6366C45.2979 34.6325 49.0363 33.8503 48.1741 32.5016C46.0776 29.1649 36.6126 30.6484 34.0497 34.6983ZM44.0318 66.052C44.7211 66.1035 45.4496 65.6292 46.8804 64.7145C53.6503 60.3868 59.009 61.0533 62.4962 66.6798C65.6518 71.7874 60.8219 73.377 57.6259 68.149C55.8373 65.2367 54.4712 63.4427 51.453 65.4087C50.0171 66.3632 48.6423 67.242 46.9555 67.9184C42.919 69.5489 39.6097 68.8875 36.6263 65.9352C33.1981 62.5729 30.4547 62.6825 27.4895 66.3318C25.2499 69.1155 20.5017 69.1182 24.1288 64.7899C28.2106 59.9152 36.3651 59.5253 41.1556 63.9897C42.6061 65.3442 43.2966 65.9972 44.0318 66.052Z" fill="#D7DB2D"/>
</svg>
