<svg width="64" height="42" viewBox="0 0 64 42" fill="none" xmlns="http://www.w3.org/2000/svg">
<path fill-rule="evenodd" clip-rule="evenodd" d="M32.6794 2.42655C30.6723 3.30143 27.7903 4.79388 26.2464 5.72022C17.8064 10.7122 7.71954 11.742 4.5288 7.98514C2.57318 5.66928 0 5.35997 0 7.41852C0 10.8151 5.24929 13.3368 12.3513 13.3368H17.2403L14.6671 16.9393C7.30783 27.1805 6.63881 36.7013 13.0203 39.9435C17.9093 42.4652 24.9599 41.0762 38.7521 34.7462C42.6633 32.945 42.9721 32.8415 42.6119 33.8194C40.0387 40.5611 55.6836 41.5904 62.7341 35.1574C65.6676 32.4813 63.1458 31.6579 58.8229 33.8708C50.8975 37.9364 47.7582 34.6433 53.3163 28.0559C55.4263 25.5857 53.3163 21.9313 39.4211 28.4157C20.9457 37.0101 17.8579 37.8855 17.2918 34.7462C15.7479 25.6372 25.3201 11.8444 37.2596 6.029C47.6553 0.934103 39.8843 -0.764195 32.6794 2.42655Z" fill="#D7DB2D"/>
</svg>
