<svg width="118" height="32" viewBox="0 0 118 32" fill="none" xmlns="http://www.w3.org/2000/svg">
<path fill-rule="evenodd" clip-rule="evenodd" d="M110.018 0.284738C105.889 1.26561 95.8245 7.93043 85.5453 16.5067C82.0186 19.4493 83.4809 22.4172 89.0936 17.9404L96.2977 12.2059C111.329 0.259459 118.576 -1.17405 115.2 8.55906C110.942 20.8828 98.3621 27.5226 77.1155 28.7298C64.9869 29.4087 54.7722 27.4219 38.2137 21.0085C35.4396 19.927 35.4611 20.1032 37.8051 18.3177C41.805 15.2744 46.665 10.1941 48.6434 7.02491C52.7078 0.511057 53.6325 -2.75827 47.7617 4.2335C43.3963 9.4145 39.2889 13.2121 34.3214 16.7079L32.0204 18.3427L29.8269 17.3115C12.4296 9.31386 0 9.43953 0 17.6385C0 26.919 18.2144 30.0123 30.9451 22.8948L33.6332 21.411C34.4504 21.7129 40.1921 24.454 53.3314 28.4278C75.7392 35.1933 102.082 30.8928 112.577 18.7703C120.899 9.18794 119.329 -1.92836 110.018 0.284738ZM14.1285 14.4948C18.1499 15.1235 29.6979 18.921 29.6979 19.6253C29.6979 19.8516 25.2464 22.0649 23.5906 22.6433C15.3113 25.5608 2.81713 23.5991 2.81713 19.3486C2.81713 15.3498 7.29006 13.4384 14.1285 14.4948Z" fill="#D7DB2D"/>
</svg>
