<svg width="61" height="54" viewBox="0 0 61 54" fill="none" xmlns="http://www.w3.org/2000/svg">
<path fill-rule="evenodd" clip-rule="evenodd" d="M60.5848 34.7611C60.5213 12.4082 44.941 -2.75879 25.3225 0.420865C10.6325 2.80561 -2.65838 14.2524 0.457612 31.8994C1.79307 39.4034 8.34315 50.9456 12.5085 53.0759C14.925 54.316 18.1365 53.6483 16.801 52.1538C0.998155 34.4114 2.61978 13.521 20.553 4.87238C38.5817 -3.80807 56.6103 13.9344 54.7343 38.6403C54.3209 44.0139 60.6166 48.3383 60.5848 34.7611ZM29.2976 27.702C21.4756 29.9277 22.0162 47.0025 29.9335 47.0025C32.5726 47.0025 32.7316 46.3665 31.0464 42.7099C29.1068 38.5128 28.7888 34.9516 30.0925 32.1535C32.2547 27.4794 35.4661 32.0899 36.1338 40.8021C36.42 44.427 36.4836 44.6495 37.5647 45.0947C38.614 45.5398 40.9351 45.3491 41.4756 44.8085C42.3977 43.8864 42.5249 23.8864 29.2976 27.702ZM17.8505 47.257C8.53411 34.6337 12.2861 19.3078 25.2591 16.9548C41.1891 14.0614 50.9189 22.0741 51.0461 38.1631C51.1097 46.7482 45.4181 46.939 45.3227 38.7355C45.1955 25.9851 40.1399 19.1488 30.8871 19.1806C18.1367 19.2124 14.2893 33.2347 23.3831 46.621C26.213 50.7864 20.903 51.3905 17.8505 47.257Z" fill="#D7DB2D"/>
</svg>
