<svg width="1686" height="3970" viewBox="0 0 1686 3970" fill="none" xmlns="http://www.w3.org/2000/svg">
<path fill-rule="evenodd" clip-rule="evenodd" d="M205.924 2253.41C191.482 2257.05 196.296 2264.22 210.034 2261.05C234.926 2255.29 271.561 2269.97 291.991 2291.22C325.573 2326.1 339.78 2426.72 318.645 2481.67C298.567 2534.16 285.064 2550.95 244.202 2575.02C183.732 2610.6 129.838 2609.54 57.9784 2550.13C-7.18784 2496.35 2.79274 2410.64 80.9922 2347.23C91.912 2338.43 112.93 2317.29 128.546 2299.68C148.155 2277.49 161.423 2267.03 174.456 2263.63C186.081 2260.69 185.141 2257.41 172.813 2257.41C153.439 2257.41 136.648 2269.27 106.941 2303.67C93.5559 2319.17 78.8787 2333.38 65.728 2343.36C-23.3913 2411.34 -21.8651 2505.16 70.1898 2574.55C98.37 2595.8 179.271 2626.92 244.202 2591.34C298.567 2561.52 309.839 2549.07 333.792 2491.07C358.215 2431.77 346.003 2330.56 309.721 2291.34C286.707 2266.68 234.457 2246.37 205.924 2253.41ZM170.816 2296.15C165.65 2299.68 161.658 2302.85 158.135 2305.9C152.265 2310.95 158.723 2320.11 165.415 2316.35C170.817 2313.3 178.214 2307.07 187.02 2300.62C194.183 2295.45 193.361 2292.4 184.319 2290.99C179.975 2290.28 178.683 2290.64 170.816 2296.15ZM248.312 2317.17C242.441 2319.28 217.783 2338.54 217.783 2341.13C217.783 2343.12 223.302 2345.59 227.764 2345.59C231.404 2345.59 262.402 2324.45 262.402 2321.99C262.402 2319.29 252.187 2315.76 248.312 2317.17ZM140.64 2364.37C128.546 2369.3 113.634 2383.16 117.979 2385.51C123.967 2388.68 154.495 2374.47 154.495 2368.48C154.378 2365.31 145.22 2362.49 140.64 2364.37ZM201.815 2380.34C177.509 2396.66 176.335 2398.31 184.907 2400.89C189.838 2402.42 220.249 2386.56 220.249 2382.57C220.132 2377.05 208.742 2375.65 201.815 2380.34ZM276.61 2389.74C269.095 2393.02 248.312 2405.94 248.312 2407.35C248.312 2416.62 291.287 2402.65 292.696 2392.91C293.4 2388.09 284.242 2386.33 276.61 2389.74ZM72.6556 2432.59C54.4563 2445.74 52.5772 2448.21 58.8004 2451.03C65.1409 2453.96 65.3757 2453.73 93.0862 2435.06C100.718 2429.89 101.423 2427.9 96.2565 2425.55C89.3289 2422.38 84.867 2423.67 72.6556 2432.59ZM153.791 2444.1C139.466 2453.96 137 2456.43 139.114 2458.89C142.401 2462.89 147.685 2462.42 156.844 2456.9C161.658 2453.96 168.586 2449.85 172.225 2447.74C180.327 2443.04 181.032 2441.52 177.04 2438.35C171.521 2433.88 166.824 2435.06 153.791 2444.1ZM241.737 2479.44C228.234 2484.84 210.856 2500.23 216.022 2502.22C225.768 2505.98 262.519 2483.91 253.478 2479.68C250.073 2478.03 245.259 2478.03 241.737 2479.44ZM130.895 2523.36C123.615 2525.94 107.411 2538.27 107.411 2541.2C107.411 2548.37 138.879 2536.51 143.458 2527.47C146.159 2522.07 139.936 2520.07 130.895 2523.36ZM254.065 2532.05C232.461 2542.96 224.828 2552.95 238.566 2552.59C243.263 2552.48 268.86 2537.92 271.561 2533.92C276.022 2526.88 266.394 2525.7 254.065 2532.05Z" fill="#F0F0EF"/>
<path fill-rule="evenodd" clip-rule="evenodd" d="M611.157 3748.52C614.18 3763.11 621.54 3758.6 618.956 3744.74C614.265 3719.63 630.485 3683.65 652.586 3664.14C688.853 3632.07 789.992 3622.15 843.997 3645.6C895.583 3667.88 911.785 3682.09 934.099 3723.93C967.076 3785.86 963.732 3839.66 901.321 3908.93C844.826 3971.76 759.612 3958.15 699.584 3877.33C691.25 3866.04 671.026 3844.15 654.092 3827.8C632.753 3807.26 622.875 3793.56 620.027 3780.4C617.588 3768.66 614.263 3769.46 613.74 3781.77C612.917 3801.13 624.052 3818.41 657.163 3849.55C672.079 3863.58 685.652 3878.85 695.065 3892.41C759.204 3984.34 853 3986.8 926.24 3897.77C948.669 3870.52 983.192 3791.01 950.404 3724.63C922.915 3669.05 910.96 3657.26 854.025 3630.86C795.82 3603.94 694.177 3611.85 653.455 3646.43C627.843 3668.38 605.329 3719.72 611.157 3748.52ZM652.368 3785.41C655.668 3790.72 658.665 3794.85 661.566 3798.5C666.361 3804.58 675.786 3798.51 672.316 3791.67C669.495 3786.14 663.592 3778.49 657.513 3769.41C652.656 3762.04 649.571 3762.73 647.779 3771.7C646.891 3776.01 647.188 3777.32 652.368 3785.41ZM676.656 3708.88C678.518 3714.84 696.712 3740.29 699.292 3740.4C701.287 3740.48 703.983 3735.07 704.173 3730.62C704.327 3726.98 684.529 3695.11 682.065 3695.01C679.367 3694.89 675.413 3704.95 676.656 3708.88ZM719.243 3818.46C723.657 3830.75 736.867 3846.24 739.397 3842C742.819 3836.15 729.92 3805.05 723.938 3804.79C720.765 3804.77 717.561 3813.8 719.243 3818.46ZM737.796 3758.02C753.071 3782.99 754.663 3784.24 757.608 3775.78C759.342 3770.92 744.795 3739.86 740.807 3739.69C735.288 3739.58 733.398 3750.9 737.796 3758.02ZM750.357 3683.69C753.323 3691.34 765.345 3712.65 766.752 3712.71C776.02 3713.1 763.883 3669.57 754.206 3667.75C749.427 3666.84 747.279 3675.92 750.357 3683.69ZM784.516 3889.28C796.882 3908.02 799.265 3910 802.344 3903.9C805.546 3897.69 805.323 3897.45 787.847 3868.97C783.009 3861.13 781.045 3860.34 778.479 3865.4C775.018 3872.19 776.119 3876.7 784.516 3889.28ZM799.457 3808.71C808.703 3823.44 811.061 3826 813.614 3824C817.742 3820.88 817.498 3815.58 812.373 3806.2C809.644 3801.26 805.833 3794.17 803.876 3790.44C799.527 3782.15 798.032 3781.38 794.695 3785.23C790.003 3790.56 790.978 3795.3 799.457 3808.71ZM838.501 3722.34C843.324 3736.06 857.955 3754.08 860.169 3749C864.337 3739.42 843.843 3701.77 839.236 3710.62C837.449 3713.95 837.243 3718.76 838.501 3722.34ZM877.67 3834.95C879.942 3842.33 891.572 3859.04 894.505 3859.17C901.661 3859.47 891.148 3827.53 882.31 3822.57C877.028 3819.64 874.77 3825.77 877.67 3834.95ZM891.58 3712.26C901.573 3734.3 911.22 3742.35 911.452 3728.61C911.534 3723.92 898.075 3697.72 894.201 3694.86C887.352 3690.1 885.769 3699.67 891.58 3712.26Z" fill="#F0F0EF"/>
<path fill-rule="evenodd" clip-rule="evenodd" d="M1315.16 1937.52C1318.18 1952.11 1325.54 1947.6 1322.96 1933.74C1318.27 1908.63 1334.48 1872.65 1356.59 1853.14C1392.85 1821.07 1493.99 1811.15 1548 1834.6C1599.58 1856.88 1615.78 1871.09 1638.1 1912.93C1671.08 1974.86 1667.73 2028.66 1605.32 2097.93C1548.83 2160.76 1463.61 2147.15 1403.58 2066.33C1395.25 2055.04 1375.03 2033.15 1358.09 2016.8C1336.75 1996.26 1326.88 1982.56 1324.03 1969.4C1321.59 1957.66 1318.26 1958.46 1317.74 1970.77C1316.92 1990.13 1328.05 2007.41 1361.16 2038.55C1376.08 2052.58 1389.65 2067.85 1399.06 2081.41C1463.2 2173.34 1557 2175.8 1630.24 2086.77C1652.67 2059.52 1687.19 1980.01 1654.4 1913.63C1626.91 1858.05 1614.96 1846.26 1558.02 1819.86C1499.82 1792.94 1398.18 1800.85 1357.46 1835.43C1331.84 1857.38 1309.33 1908.72 1315.16 1937.52ZM1356.37 1974.41C1359.67 1979.72 1362.67 1983.85 1365.57 1987.5C1370.36 1993.58 1379.79 1987.51 1376.32 1980.67C1373.5 1975.14 1367.59 1967.49 1361.51 1958.41C1356.66 1951.04 1353.57 1951.73 1351.78 1960.7C1350.89 1965.01 1351.19 1966.32 1356.37 1974.41ZM1380.66 1897.88C1382.52 1903.84 1400.71 1929.29 1403.29 1929.4C1405.29 1929.48 1407.98 1924.07 1408.17 1919.62C1408.33 1915.98 1388.53 1884.11 1386.07 1884.01C1383.37 1883.89 1379.41 1893.95 1380.66 1897.88ZM1423.24 2007.46C1427.66 2019.75 1440.87 2035.24 1443.4 2031C1446.82 2025.15 1433.92 1994.05 1427.94 1993.79C1424.77 1993.77 1421.56 2002.8 1423.24 2007.46ZM1441.8 1947.02C1457.07 1971.99 1458.66 1973.24 1461.61 1964.78C1463.34 1959.92 1448.8 1928.86 1444.81 1928.69C1439.29 1928.58 1437.4 1939.9 1441.8 1947.02ZM1454.36 1872.69C1457.32 1880.34 1469.34 1901.65 1470.75 1901.71C1480.02 1902.1 1467.88 1858.57 1458.21 1856.75C1453.43 1855.84 1451.28 1864.92 1454.36 1872.69ZM1488.52 2078.28C1500.88 2097.02 1503.26 2099 1506.34 2092.9C1509.55 2086.69 1509.32 2086.45 1491.85 2057.97C1487.01 2050.13 1485.04 2049.34 1482.48 2054.4C1479.02 2061.19 1480.12 2065.7 1488.52 2078.28ZM1503.46 1997.71C1512.7 2012.44 1515.06 2015 1517.61 2013C1521.74 2009.88 1521.5 2004.58 1516.37 1995.2C1513.64 1990.26 1509.83 1983.17 1507.88 1979.44C1503.53 1971.15 1502.03 1970.38 1498.7 1974.23C1494 1979.56 1494.98 1984.3 1503.46 1997.71ZM1542.5 1911.34C1547.32 1925.06 1561.96 1943.08 1564.17 1938C1568.34 1928.42 1547.84 1890.77 1543.24 1899.62C1541.45 1902.95 1541.24 1907.76 1542.5 1911.34ZM1581.67 2023.95C1583.94 2031.33 1595.57 2048.04 1598.5 2048.17C1605.66 2048.47 1595.15 2016.53 1586.31 2011.57C1581.03 2008.64 1578.77 2014.77 1581.67 2023.95ZM1595.58 1901.26C1605.57 1923.3 1615.22 1931.35 1615.45 1917.61C1615.53 1912.92 1602.08 1886.72 1598.2 1883.86C1591.35 1879.1 1589.77 1888.67 1595.58 1901.26Z" fill="#F0F0EF"/>
<path fill-rule="evenodd" clip-rule="evenodd" d="M1326.16 140.523C1329.18 155.106 1336.54 150.601 1333.96 136.741C1329.27 111.626 1345.48 75.6485 1367.59 56.1387C1403.85 24.0684 1504.99 14.1463 1559 37.5956C1610.58 59.8844 1626.78 74.0882 1649.1 115.935C1682.08 177.861 1678.73 231.662 1616.32 300.934C1559.83 363.758 1474.61 350.147 1414.58 269.326C1406.25 258.042 1386.03 236.146 1369.09 219.795C1347.75 199.262 1337.88 185.562 1335.03 172.396C1332.59 160.657 1329.26 161.456 1328.74 173.774C1327.92 193.13 1339.05 210.409 1372.16 241.55C1387.08 255.582 1400.65 270.849 1410.06 284.412C1474.2 376.337 1568 378.796 1641.24 289.77C1663.67 262.518 1698.19 183.011 1665.4 116.628C1637.91 61.046 1625.96 49.2557 1569.02 22.8613C1510.82 -4.05723 1409.18 3.84554 1368.46 38.4296C1342.84 60.3757 1320.33 111.717 1326.16 140.523ZM1367.37 177.414C1370.67 182.725 1373.67 186.848 1376.57 190.497C1381.36 196.577 1390.79 190.514 1387.32 183.667C1384.5 178.141 1378.59 170.487 1372.51 161.414C1367.66 154.039 1364.57 154.73 1362.78 163.703C1361.89 168.014 1362.19 169.319 1367.37 177.414ZM1391.66 100.88C1393.52 106.836 1411.71 132.289 1414.29 132.398C1416.29 132.483 1418.98 127.074 1419.17 122.616C1419.33 118.98 1399.53 87.1121 1397.07 87.0074C1394.37 86.8928 1390.41 96.9492 1391.66 100.88ZM1434.24 210.459C1438.66 222.752 1451.87 238.238 1454.4 233.998C1457.82 228.149 1444.92 197.045 1438.94 196.791C1435.77 196.774 1432.56 205.804 1434.24 210.459ZM1452.8 150.018C1468.07 174.994 1469.66 176.237 1472.61 167.783C1474.34 162.921 1459.8 131.864 1455.81 131.695C1450.29 131.578 1448.4 142.897 1452.8 150.018ZM1465.36 75.6894C1468.32 83.337 1480.34 104.65 1481.75 104.709C1491.02 105.103 1478.88 61.5738 1469.21 59.7523C1464.43 58.844 1462.28 67.9196 1465.36 75.6894ZM1499.52 281.279C1511.88 300.02 1514.26 302.002 1517.34 295.905C1520.55 289.694 1520.32 289.45 1502.85 260.972C1498.01 253.127 1496.04 252.338 1493.48 257.4C1490.02 264.187 1491.12 268.7 1499.52 281.279ZM1514.46 200.706C1523.7 215.436 1526.06 218.005 1528.61 215.998C1532.74 212.882 1532.5 207.583 1527.37 198.199C1524.64 193.264 1520.83 186.169 1518.88 182.442C1514.53 174.148 1513.03 173.38 1509.7 177.234C1505 182.558 1505.98 187.3 1514.46 200.706ZM1553.5 114.34C1558.32 128.06 1572.96 146.075 1575.17 140.998C1579.34 131.421 1558.84 93.7652 1554.24 102.619C1552.45 105.951 1552.24 110.761 1553.5 114.34ZM1592.67 226.947C1594.94 234.33 1606.57 251.042 1609.5 251.167C1616.66 251.471 1606.15 219.528 1597.31 214.569C1592.03 211.641 1589.77 217.774 1592.67 226.947ZM1606.58 104.256C1616.57 126.305 1626.22 134.354 1626.45 120.613C1626.53 115.916 1613.08 89.7238 1609.2 86.8561C1602.35 82.0991 1600.77 91.6688 1606.58 104.256Z" fill="#F0F0EF"/>
<path fill-rule="evenodd" clip-rule="evenodd" d="M17.1566 1187.52C20.18 1202.11 27.5404 1197.6 24.9563 1183.74C20.265 1158.63 36.4847 1122.65 58.5855 1103.14C94.8533 1071.07 195.992 1061.15 249.997 1084.6C301.583 1106.88 317.785 1121.09 340.099 1162.93C373.076 1224.86 369.732 1278.66 307.321 1347.93C250.826 1410.76 165.612 1397.15 105.584 1316.33C97.2497 1305.04 77.026 1283.15 60.0923 1266.8C38.753 1246.26 28.8754 1232.56 26.0268 1219.4C23.5876 1207.66 20.2632 1208.46 19.7397 1220.77C18.9171 1240.13 30.0519 1257.41 63.1628 1288.55C78.0792 1302.58 91.6519 1317.85 101.065 1331.41C165.204 1423.34 259 1425.8 332.24 1336.77C354.669 1309.52 389.192 1230.01 356.404 1163.63C328.915 1108.05 316.96 1096.26 260.025 1069.86C201.82 1042.94 100.177 1050.85 59.4552 1085.43C33.8426 1107.38 11.3294 1158.72 17.1566 1187.52ZM58.3677 1224.41C61.6677 1229.72 64.6654 1233.85 67.5659 1237.5C72.361 1243.58 81.7859 1237.51 78.3161 1230.67C75.4953 1225.14 69.5916 1217.49 63.5134 1208.41C58.6558 1201.04 55.5705 1201.73 53.7789 1210.7C52.8906 1215.01 53.1881 1216.32 58.3677 1224.41ZM82.6559 1147.88C84.5183 1153.84 102.712 1179.29 105.292 1179.4C107.287 1179.48 109.983 1174.07 110.173 1169.62C110.327 1165.98 90.5287 1134.11 88.0651 1134.01C85.367 1133.89 81.4127 1143.95 82.6559 1147.88ZM125.243 1257.46C129.657 1269.75 142.867 1285.24 145.397 1281C148.819 1275.15 135.92 1244.05 129.938 1243.79C126.765 1243.77 123.561 1252.8 125.243 1257.46ZM143.796 1197.02C159.071 1221.99 160.663 1223.24 163.608 1214.78C165.342 1209.92 150.795 1178.86 146.807 1178.69C141.288 1178.58 139.398 1189.9 143.796 1197.02ZM156.357 1122.69C159.323 1130.34 171.345 1151.65 172.752 1151.71C182.02 1152.1 169.883 1108.57 160.206 1106.75C155.427 1105.84 153.279 1114.92 156.357 1122.69ZM190.516 1328.28C202.882 1347.02 205.265 1349 208.344 1342.9C211.546 1336.69 211.323 1336.45 193.847 1307.97C189.009 1300.13 187.045 1299.34 184.479 1304.4C181.018 1311.19 182.119 1315.7 190.516 1328.28ZM205.457 1247.71C214.703 1262.44 217.061 1265 219.614 1263C223.742 1259.88 223.498 1254.58 218.373 1245.2C215.644 1240.26 211.833 1233.17 209.876 1229.44C205.527 1221.15 204.032 1220.38 200.695 1224.23C196.003 1229.56 196.978 1234.3 205.457 1247.71ZM244.501 1161.34C249.324 1175.06 263.955 1193.08 266.169 1188C270.337 1178.42 249.843 1140.77 245.236 1149.62C243.449 1152.95 243.243 1157.76 244.501 1161.34ZM283.67 1273.95C285.942 1281.33 297.572 1298.04 300.505 1298.17C307.661 1298.47 297.148 1266.53 288.31 1261.57C283.028 1258.64 280.77 1264.77 283.67 1273.95ZM297.58 1151.26C307.573 1173.3 317.22 1181.35 317.452 1167.61C317.534 1162.92 304.075 1136.72 300.201 1133.86C293.352 1129.1 291.769 1138.67 297.58 1151.26Z" fill="#F0F0EF"/>
</svg>
