<svg width="58" height="38" viewBox="0 0 58 38" fill="none" xmlns="http://www.w3.org/2000/svg">
<g id="Group">
<g id="Group_2">
<path id="Vector" d="M45.4515 21.7578L47.1117 21.7196C65.2964 21.4143 59.2349 -4.99614 39.7761 1.98809C25.4136 7.1404 28.0776 30.841 43.4439 34.7338C50.239 36.4513 57.8063 35.23 52.1695 33.3217C47.3434 31.7188 43.4439 27.1009 43.7142 23.3226C43.7914 22.483 44.5249 21.7578 45.4515 21.7578Z" fill="#D7DB2D"/>
<path id="Vector_2" d="M9.97032 1.03422C-7.51942 7.67496 -0.415441 36.6806 19.0047 37.94C24.0625 38.2835 25.3752 37.1004 21.5529 35.6883C17.8465 34.3144 13.1748 27.8263 12.6729 23.4373C12.5571 22.5595 13.252 21.8343 14.14 21.8343C19.2363 21.8343 21.3599 21.8344 24.3328 17.7889C31.6298 7.78961 21.939 -3.50744 9.97032 1.03422Z" fill="#D7DB2D"/>
</g>
</g>
</svg>
