<svg width="58" height="39" viewBox="0 0 58 39" fill="none" xmlns="http://www.w3.org/2000/svg">
<g id="Group">
<g id="Group_2">
<path id="Vector" d="M12.5485 16.6839L10.8883 16.7221C-7.29642 17.0274 -1.23485 43.4378 18.2239 36.4536C32.5864 31.3013 29.9224 7.60067 14.5561 3.70782C7.76097 1.99039 0.193674 3.21167 5.83054 5.11993C10.6566 6.72287 14.5561 11.3407 14.2858 15.1191C14.2086 15.9587 13.4751 16.6839 12.5485 16.6839Z" fill="#D7DB2D"/>
<path id="Vector_2" d="M48.0297 37.4074C65.5194 30.7667 58.4154 1.76106 38.9953 0.501606C33.9375 0.158119 32.6248 1.34124 36.4471 2.75335C40.1535 4.1273 44.8252 10.6154 45.3271 15.0044C45.4429 15.8822 44.748 16.6074 43.86 16.6074C38.7637 16.6074 36.6401 16.6072 33.6672 20.6528C26.3702 30.652 36.061 41.9491 48.0297 37.4074Z" fill="#D7DB2D"/>
</g>
</g>
</svg>
