<svg width="1440" height="2264" viewBox="0 0 1440 2264" fill="none" xmlns="http://www.w3.org/2000/svg">
<path fill-rule="evenodd" clip-rule="evenodd" d="M90.9243 701.34C76.482 704.79 81.2961 711.579 95.0339 708.574C119.926 703.121 156.561 717.032 176.991 737.175C210.573 770.227 224.78 865.6 203.645 917.682C183.567 967.428 170.064 983.342 129.202 1006.16C68.7324 1039.88 14.8378 1038.87 -57.0216 982.563C-122.188 931.593 -112.207 850.354 -34.0078 790.259C-23.088 781.913 -2.07026 761.881 13.5462 745.188C33.155 724.155 46.4231 714.25 59.4564 711.023C71.0807 708.24 70.1414 705.125 57.8126 705.125C38.4387 705.125 21.6481 716.364 -8.05853 748.971C-21.4441 763.66 -36.1213 777.127 -49.272 786.587C-138.391 851.022 -136.865 939.939 -44.8102 1005.71C-16.63 1025.85 64.2705 1055.34 129.202 1021.62C183.567 993.356 194.839 981.561 218.792 926.585C243.215 870.386 231.003 774.455 194.721 737.286C171.707 713.916 119.457 694.663 90.9243 701.34ZM55.8165 741.849C50.6501 745.188 46.6579 748.192 43.1354 751.086C37.2646 755.871 43.7225 764.552 50.4153 760.991C55.8165 758.097 63.2138 752.199 72.0201 746.078C79.1826 741.181 78.3606 738.288 69.3195 736.952C64.9751 736.284 63.6835 736.619 55.8165 741.849ZM133.312 761.769C127.441 763.772 102.783 782.024 102.783 784.472C102.783 786.364 108.302 788.7 112.764 788.7C116.404 788.7 147.402 768.669 147.402 766.332C147.402 763.773 137.187 760.433 133.312 761.769ZM25.6402 806.506C13.5462 811.18 -1.36575 824.312 2.97869 826.537C8.96697 829.542 39.4955 816.076 39.4955 810.401C39.3781 807.396 30.2195 804.725 25.6402 806.506ZM86.8147 821.642C62.5093 837.111 61.3351 838.669 69.9066 841.117C74.8381 842.564 105.249 827.539 105.249 823.755C105.132 818.525 93.7423 817.19 86.8147 821.642ZM161.61 830.545C154.095 833.661 133.312 845.902 133.312 847.238C133.312 856.03 176.287 842.785 177.696 833.549C178.4 828.986 169.242 827.318 161.61 830.545ZM-42.3444 871.165C-60.5437 883.629 -62.4228 885.965 -56.1996 888.635C-49.8591 891.418 -49.6243 891.196 -21.9138 873.502C-14.2817 868.605 -13.5772 866.713 -18.7435 864.487C-25.6711 861.483 -30.133 862.707 -42.3444 871.165ZM38.791 882.071C24.4661 891.419 22.0003 893.755 24.1138 896.092C27.4015 899.875 32.6853 899.43 41.8438 894.2C46.6579 891.418 53.5856 887.523 57.2255 885.519C65.3273 881.068 66.0318 879.621 62.0396 876.616C56.521 872.388 51.8243 873.502 38.791 882.071ZM126.737 915.567C113.234 920.686 95.8558 935.266 101.022 937.158C110.768 940.719 147.519 919.797 138.478 915.791C135.073 914.233 130.259 914.231 126.737 915.567ZM15.8946 957.189C8.61472 959.638 -7.58887 971.323 -7.58887 974.105C-7.58887 980.893 23.879 969.653 28.4583 961.084C31.1588 955.965 24.9357 954.073 15.8946 957.189ZM139.065 965.423C117.461 975.773 109.828 985.232 123.566 984.898C128.263 984.787 153.86 970.989 156.561 967.205C161.022 960.528 151.394 959.414 139.065 965.423Z" fill="#F0F0EF"/>
<path fill-rule="evenodd" clip-rule="evenodd" d="M1405.92 1714.34C1391.48 1717.79 1396.3 1724.58 1410.03 1721.57C1434.93 1716.12 1471.56 1730.03 1491.99 1750.17C1525.57 1783.23 1539.78 1878.6 1518.64 1930.68C1498.57 1980.43 1485.06 1996.34 1444.2 2019.16C1383.73 2052.88 1329.84 2051.87 1257.98 1995.56C1192.81 1944.59 1202.79 1863.35 1280.99 1803.26C1291.91 1794.91 1312.93 1774.88 1328.55 1758.19C1348.15 1737.15 1361.42 1727.25 1374.46 1724.02C1386.08 1721.24 1385.14 1718.12 1372.81 1718.12C1353.44 1718.12 1336.65 1729.36 1306.94 1761.97C1293.56 1776.66 1278.88 1790.13 1265.73 1799.59C1176.61 1864.02 1178.13 1952.94 1270.19 2018.71C1298.37 2038.85 1379.27 2068.34 1444.2 2034.62C1498.57 2006.36 1509.84 1994.56 1533.79 1939.59C1558.21 1883.39 1546 1787.46 1509.72 1750.29C1486.71 1726.92 1434.46 1707.66 1405.92 1714.34ZM1370.82 1754.85C1365.65 1758.19 1361.66 1761.19 1358.14 1764.09C1352.26 1768.87 1358.72 1777.55 1365.42 1773.99C1370.82 1771.1 1378.21 1765.2 1387.02 1759.08C1394.18 1754.18 1393.36 1751.29 1384.32 1749.95C1379.98 1749.28 1378.68 1749.62 1370.82 1754.85ZM1448.31 1774.77C1442.44 1776.77 1417.78 1795.02 1417.78 1797.47C1417.78 1799.36 1423.3 1801.7 1427.76 1801.7C1431.4 1801.7 1462.4 1781.67 1462.4 1779.33C1462.4 1776.77 1452.19 1773.43 1448.31 1774.77ZM1340.64 1819.51C1328.55 1824.18 1313.63 1837.31 1317.98 1839.54C1323.97 1842.54 1354.5 1829.08 1354.5 1823.4C1354.38 1820.4 1345.22 1817.73 1340.64 1819.51ZM1401.81 1834.64C1377.51 1850.11 1376.34 1851.67 1384.91 1854.12C1389.84 1855.56 1420.25 1840.54 1420.25 1836.76C1420.13 1831.52 1408.74 1830.19 1401.81 1834.64ZM1476.61 1843.54C1469.09 1846.66 1448.31 1858.9 1448.31 1860.24C1448.31 1869.03 1491.29 1855.79 1492.7 1846.55C1493.4 1841.99 1484.24 1840.32 1476.61 1843.54ZM1272.66 1884.16C1254.46 1896.63 1252.58 1898.96 1258.8 1901.64C1265.14 1904.42 1265.38 1904.2 1293.09 1886.5C1300.72 1881.6 1301.42 1879.71 1296.26 1877.49C1289.33 1874.48 1284.87 1875.71 1272.66 1884.16ZM1353.79 1895.07C1339.47 1904.42 1337 1906.75 1339.11 1909.09C1342.4 1912.88 1347.69 1912.43 1356.84 1907.2C1361.66 1904.42 1368.59 1900.52 1372.23 1898.52C1380.33 1894.07 1381.03 1892.62 1377.04 1889.62C1371.52 1885.39 1366.82 1886.5 1353.79 1895.07ZM1441.74 1928.57C1428.23 1933.69 1410.86 1948.27 1416.02 1950.16C1425.77 1953.72 1462.52 1932.8 1453.48 1928.79C1450.07 1927.23 1445.26 1927.23 1441.74 1928.57ZM1330.89 1970.19C1323.61 1972.64 1307.41 1984.32 1307.41 1987.1C1307.41 1993.89 1338.88 1982.65 1343.46 1974.08C1346.16 1968.97 1339.94 1967.07 1330.89 1970.19ZM1454.07 1978.42C1432.46 1988.77 1424.83 1998.23 1438.57 1997.9C1443.26 1997.79 1468.86 1983.99 1471.56 1980.21C1476.02 1973.53 1466.39 1972.41 1454.07 1978.42Z" fill="#F0F0EF"/>
<path fill-rule="evenodd" clip-rule="evenodd" d="M880.871 793.929L880.849 793.931C893.529 975.841 749.01 1134.21 557.213 1148.48L557.289 1149.46C442.592 1157.33 356.058 1252.03 364.029 1360.66C373.251 1468.78 473.107 1550.11 587.426 1542.26L587.56 1544.01C779.189 1532.33 945.953 1669.18 961.162 1850.69L961.201 1850.69C961.221 1850.94 961.236 1851.2 961.25 1851.45C961.264 1851.68 961.277 1851.91 961.294 1852.14C961.304 1852.28 961.317 1852.41 961.33 1852.54L961.333 1852.58C961.345 1852.69 961.356 1852.81 961.366 1852.93L961.344 1852.93C974.071 2035.52 828.429 2194.39 635.569 2207.63L625.185 2072.33C739.881 2064.45 826.416 1969.75 818.445 1861.13C809.223 1753.01 709.367 1671.68 595.048 1679.53L594.914 1677.78C403.285 1689.45 236.521 1552.61 221.311 1371.1L221.273 1371.1C221.253 1370.84 221.239 1370.59 221.224 1370.34C221.211 1370.1 221.197 1369.87 221.181 1369.64C221.17 1369.51 221.157 1369.38 221.144 1369.24L221.143 1369.24C221.131 1369.11 221.119 1368.98 221.109 1368.86L221.13 1368.85C208.45 1186.94 352.97 1028.57 544.766 1014.31L544.691 1013.33C659.387 1005.45 745.921 910.751 737.95 802.126C728.735 694.081 629.007 612.789 514.785 620.512L514.868 621.595C322.025 634.836 153.653 497.525 138.367 315.099L138.328 315.101C138.309 314.844 138.294 314.587 138.279 314.33C138.266 314.101 138.253 313.873 138.236 313.644C138.225 313.511 138.212 313.378 138.199 313.245C138.187 313.116 138.174 312.988 138.164 312.858L138.186 312.857C134.047 253.48 146.67 196.618 172.205 146.45L471.64 58.2197L474.344 93.4615C359.648 101.336 273.114 196.037 281.085 304.663C290.3 412.707 390.028 493.999 504.25 486.276L504.166 485.193C697.009 471.952 865.382 609.263 880.667 791.689L880.707 791.687C880.726 791.94 880.74 792.193 880.755 792.446L880.755 792.449C880.769 792.68 880.782 792.912 880.799 793.144C880.809 793.277 880.822 793.409 880.835 793.542C880.848 793.671 880.861 793.8 880.871 793.929Z" fill="#B1B1B1" fill-opacity="0.09"/>
</svg>
