<svg width="82" height="58" viewBox="0 0 82 58" fill="none" xmlns="http://www.w3.org/2000/svg">
<path fill-rule="evenodd" clip-rule="evenodd" d="M46.9446 8.52451C50.0688 11.1517 57.5599 7.21091 57.5599 2.95061C57.5599 0.64294 52.909 -0.919172 50.4594 0.607438C46.1636 3.23463 44.6725 6.60737 46.9446 8.52451ZM51.7375 2.77309C53.6191 1.10447 54.3647 1.28199 54.3647 2.48907C54.3647 3.62516 52.199 6.03933 50.3884 6.96239C48.0807 8.16948 48.7908 5.36478 51.7375 2.77309ZM1.35929 37.4236C-0.344838 39.3052 0.507261 42.536 3.52498 45.3762C8.28243 49.9205 11.4067 49.2459 12.2587 43.459C12.8268 39.6602 3.84446 34.6544 1.35929 37.4236ZM8.85047 44.7368C8.17592 45.2693 7.18185 45.1983 6.5783 44.5592C6.57238 44.5504 6.54148 44.5165 6.49079 44.4609C5.93405 43.8509 2.98979 40.6245 4.51916 39.1277C5.22921 38.4177 5.54873 38.4177 6.5073 39.1987C9.09899 41.2934 10.0576 42.5001 8.85047 44.7368ZM10.1285 19.3524C11.9036 21.3761 6.01022 26.9858 2.92157 26.1337C-1.05472 25.0332 -0.983786 22.619 3.20552 18.0747C4.69662 16.4416 8.06937 17.0447 10.1285 19.3524ZM7.35932 19.5299C6.32974 18.7489 5.12269 19.0687 3.24105 22.0865C3.17201 22.1955 3.10371 22.3012 3.03752 22.4036C2.45708 23.3016 2.03928 23.948 2.70852 24.3941C3.36552 24.8869 4.5696 23.7686 5.449 22.9519C5.52 22.886 5.58889 22.822 5.65519 22.761C7.35932 21.1634 7.92736 19.956 7.35932 19.5299ZM61.0036 38.7372C56.6723 41.6839 56.1042 48.8554 60.2225 48.8554C63.0627 48.8554 68.5656 43.3525 68.5656 40.5123C68.5656 37.9206 63.8438 36.7845 61.0036 38.7372ZM60.0095 47.0803C59.6545 47.0448 60.7196 43.885 61.7491 41.8614C62.8852 39.6602 65.0509 38.4528 65.5479 39.7664C65.9739 40.725 62.3527 47.2223 60.0095 47.0803ZM53.051 35.7199C48.3292 35.7199 42.6133 26.5243 45.5245 23.6131C47.5482 21.554 53.9741 23.0096 56.1398 25.9918C58.3409 29.045 56.2108 35.7199 53.051 35.7199ZM47.9742 26.1342C47.9742 27.9803 51.3824 33.2347 52.2345 32.7021C54.0806 31.5306 54.0451 27.4829 52.1635 25.5303C50.4594 23.7551 47.9742 24.146 47.9742 26.1342ZM76.4469 16.477C75.7369 16.264 74.6011 15.7315 73.9266 15.2699C72.258 14.1338 70.2343 14.0983 69.4888 15.2344C67.0391 19.0687 68.6367 23.116 73.9266 26.5242C78.3644 29.3644 80.7786 28.5127 81.7372 23.8264C82.4117 20.3826 80.3877 17.6131 76.4469 16.477ZM76.9443 23.9325C76.7313 24.5006 76.0567 24.643 75.5952 24.2524L74.4943 23.2225C71.4055 20.3113 70.6603 16.1933 73.181 16.1933C74.0686 16.1933 74.2106 16.2995 73.8556 16.69C73.5361 17.0806 73.8201 17.5069 75.4177 18.856C77.6189 20.6667 77.8319 21.4829 76.9443 23.9325ZM33.9149 43.814C34.8025 43.104 35.7962 43.0329 37.2163 43.5655C43.1807 45.8021 40.6249 58.2636 34.27 57.802C30.1872 57.4825 29.9031 47.0802 33.9149 43.814ZM35.1575 48.3583C34.3765 50.6305 34.1634 53.6482 34.696 54.1808C35.6546 55.1038 38.2814 48.5003 37.7488 46.5832C37.1453 44.4886 36.2936 45.0921 35.1575 48.3583ZM27.5604 9.44766C28.3414 6.92698 21.88 3.80275 19.9983 5.8264C17.9037 8.09856 15.809 13.0689 16.2706 14.8086C17.2646 18.6073 25.9628 14.489 27.5604 9.44766ZM18.9688 14.631C18.0277 13.9632 19.786 11.3488 21.0924 9.40637C21.3138 9.07704 21.5223 8.76702 21.7025 8.48909C22.9451 6.57195 24.1876 6.64296 24.1876 8.5956C24.1876 9.19914 20.0694 15.3766 18.9688 14.631ZM19.3236 35.8615C17.371 33.9089 20.2467 27.0924 23.6549 25.5658C26.8501 24.1102 31.927 28.193 30.4359 31.0332C27.6667 36.252 22.1283 38.6662 19.3236 35.8615ZM22.1283 31.5657C20.8147 34.0509 22.0573 35.8974 25.0395 33.0572C26.8146 31.353 27.6312 29.6486 27.4892 28.7255C27.1342 26.3468 23.9389 28.1574 22.1283 31.5657Z" fill="#D7DB2D"/>
</svg>
