<svg width="301" height="107" viewBox="0 0 301 107" fill="none" xmlns="http://www.w3.org/2000/svg">
<path d="M231.441 16.1528C184.05 -4.55976 92.9233 -1.0556 46.1475 17.0689C24.8446 25.3234 -14.4373 49.2411 9.4659 71.8224C13.6818 75.8054 18.8064 79.0411 24.1085 81.8411C82.46 112.654 163.845 109.516 226.469 91.0789C235.809 88.3292 245 85.065 253.455 80.6285C259.779 77.3104 265.893 73.1976 270.818 68.3982C285.234 54.3477 281.468 40.2078 265.958 28.296C247.974 14.4853 223.383 10.2054 200.179 7.86146C179.889 5.81193 159.623 5.41836 139.237 6.25484C101.004 7.82337 56.9435 10.3192 24.8773 29.201C10.8716 37.4483 -4.17562 55.0715 7.82974 69.3349C20.8391 84.7909 51.5137 89.7956 72.1456 93.0571C127.804 101.856 215.872 97.493 266.57 74.4035C272.037 71.9135 277.575 69.5931 282.466 66.3188C286.33 63.7317 290.03 60.7816 293.24 57.589C315.987 34.9633 265.229 20.7373 247.329 18.2942C191.015 10.6087 107.669 -0.482199 55.8073 19.9626" stroke="#D7DB2D" stroke-width="3" stroke-miterlimit="1.5" stroke-linecap="round" stroke-linejoin="round"/>
</svg>
