<svg width="358" height="74" viewBox="0 0 358 74" fill="none" xmlns="http://www.w3.org/2000/svg">
<path d="M275.475 11.2446C218.989 -2.93991 110.373 -0.540173 54.6202 11.872C29.2289 17.5249 -17.592 33.9043 10.8987 49.3686C15.9238 52.0962 22.0319 54.3121 28.3515 56.2296C97.9018 77.331 194.906 75.182 269.549 62.5559C280.682 60.6729 291.636 58.4374 301.714 55.3992C309.252 53.1269 316.539 50.3104 322.409 47.0236C339.592 37.4015 335.103 27.7181 316.616 19.5606C295.182 10.1026 265.87 7.17164 238.213 5.56646C214.029 4.16289 189.874 3.89337 165.576 4.46621C120.005 5.54038 67.4882 7.24958 29.2679 20.1804C12.5743 25.8283 -5.36084 37.8971 8.94858 47.6651C24.4547 58.2497 61.0163 61.677 85.6079 63.9106C151.949 69.9363 256.918 66.9484 317.346 51.1362C323.862 49.431 330.464 47.8419 336.293 45.5996C340.899 43.8278 345.309 41.8075 349.135 39.6212C376.247 24.1265 315.748 14.3842 294.412 12.7111C227.291 7.44787 127.949 -0.147491 66.1339 13.8536" stroke="#D7DB2D" stroke-width="3" stroke-miterlimit="1.5" stroke-linecap="round" stroke-linejoin="round"/>
</svg>
