<svg width="493" height="68" viewBox="0 0 493 68" fill="none" xmlns="http://www.w3.org/2000/svg">
<path d="M379.766 10.794C301.739 -2.07597 151.702 0.101372 74.6873 11.3632C39.6128 16.4922 -25.0635 31.3537 14.2923 45.3848C21.2337 47.8597 29.6712 49.8702 38.4009 51.61C134.475 70.7558 268.472 68.8059 371.581 57.35C386.959 55.6415 402.09 53.6132 416.012 50.8565C426.424 48.7948 436.491 46.2393 444.599 43.2571C468.335 34.5268 462.134 25.7408 436.597 18.3393C406.988 9.75783 366.499 7.09849 328.295 5.64207C294.887 4.36858 261.522 4.12403 227.956 4.64378C165.007 5.61841 92.4624 7.16921 39.6667 18.9016C16.6068 24.0262 -8.16793 34.9765 11.5985 43.8392C33.0179 53.4429 83.5225 56.5526 117.492 58.5791C209.133 64.0464 354.132 61.3355 437.605 46.9886C446.606 45.4414 455.725 43.9996 463.777 41.9651C470.14 40.3575 476.232 38.5245 481.517 36.5407C518.968 22.482 435.398 13.6426 405.925 12.1246C313.207 7.34912 175.98 0.457662 90.5918 13.1612" stroke="#D7DB2D" stroke-width="3" stroke-miterlimit="1.5" stroke-linecap="round" stroke-linejoin="round"/>
</svg>
