<svg width="34" height="61" viewBox="0 0 34 61" fill="none" xmlns="http://www.w3.org/2000/svg">
<path fill-rule="evenodd" clip-rule="evenodd" d="M19.7075 0.260343C12.4086 1.78965 0.764982 15.2058 0.0350864 21.1145C-0.416754 24.7292 3.64981 23.9993 3.37175 23.0956C2.39856 20.1413 14.1812 6.27329 20.2289 3.21468C28.501 -0.956149 30.795 16.2833 23.9478 31.4373L23.0442 33.4532L20.9935 33.5227C4.90106 34.0788 -8.37609 54.2726 6.77793 55.1415C12.4433 55.4543 18.4215 51.4921 23.5308 44.0193C25.8595 40.6131 25.9985 40.7869 25.4772 46.7651C24.2954 61.085 24.2954 60.9112 26.6936 60.6679C30.6907 60.2856 32.9846 41.4473 29.5785 36.7551L28.5358 35.3301L29.787 32.1672C37.0512 14.1284 31.8377 -2.27691 19.7075 0.260343ZM20.785 37.7283C15.0848 47.5298 6.01328 55.5586 5.24862 51.4573C4.27543 46.2785 14.8068 36.199 21.6191 36.06C21.6887 36.0252 21.3063 36.8246 20.785 37.7283Z" fill="#D7DB2D"/>
</svg>
