<svg width="249" height="89" viewBox="0 0 249 89" fill="none" xmlns="http://www.w3.org/2000/svg">
<path id="Union" fill-rule="evenodd" clip-rule="evenodd" d="M228.252 1.56372C228.252 0.735294 227.58 0.0637207 226.752 0.0637207C225.923 0.0637207 225.252 0.735294 225.252 1.56372C225.252 7.34913 228.025 12.5539 230.558 17.259L230.62 17.3752C233.212 22.1913 235.505 26.4512 235.505 30.8585C235.505 31.6869 236.177 32.3585 237.005 32.3585C237.834 32.3585 238.505 31.6869 238.505 30.8585C238.505 25.6829 235.889 20.8286 233.448 16.2981L233.199 15.8373C230.605 11.0169 228.252 6.47134 228.252 1.56372ZM202.747 25.6025C203.852 25.6025 204.747 26.498 204.747 27.6025C204.747 29.7047 203.929 31.5403 203.298 32.9544L203.241 33.0834C202.544 34.6479 202.08 35.7594 202.08 36.9373C202.08 38.0418 201.185 38.9373 200.08 38.9373C198.975 38.9373 198.08 38.0418 198.08 36.9373C198.08 34.8351 198.899 32.9995 199.529 31.5854L199.587 31.4564C200.283 29.8919 200.747 28.7804 200.747 27.6025C200.747 26.498 201.643 25.6025 202.747 25.6025ZM11.7732 60.5355C12.5259 60.1121 13.5068 59.3225 14.545 58.4237C15.626 57.4878 16.91 56.3077 18.3089 54.9968C19.4005 53.974 20.5587 52.875 21.7566 51.7384L21.7577 51.7373L21.7604 51.7348L21.7614 51.7338L21.7632 51.7321L21.7635 51.7319L21.7637 51.7316C23.667 49.9257 25.6702 48.0248 27.6652 46.1836C30.9166 43.1828 34.0146 40.4647 36.398 38.7587C37.5254 37.9517 38.3658 37.4653 38.9161 37.2474C39.4971 37.6497 40.274 37.731 40.9507 37.3926C41.9386 36.8986 42.3391 35.6973 41.8451 34.7093C41.4116 33.8423 40.6323 33.3202 39.7489 33.1801C38.9963 33.0607 38.278 33.2312 37.7301 33.4217C36.616 33.8089 35.3463 34.5924 34.0699 35.5061C31.464 37.3713 28.2052 40.242 24.9523 43.2441C22.9469 45.095 20.8935 47.0432 18.9688 48.8694L18.9687 48.8694L18.9682 48.8699C17.7732 50.0038 16.6277 51.0906 15.5739 52.078C14.1835 53.3808 12.9463 54.517 11.9269 55.3996C10.8646 56.3192 10.1658 56.8503 9.81212 57.0492C8.86198 57.5837 7.8645 57.9109 6.80185 58.2159C6.6531 58.2586 6.49748 58.3022 6.33692 58.3471L6.33469 58.3477C5.45165 58.5947 4.41964 58.8833 3.55962 59.3047C2.42251 59.8619 1.34136 60.7536 0.810662 62.2953C0.322844 63.7125 0.401115 65.4048 0.839074 67.3756C1.59974 70.7986 3.17187 73.0005 5.54238 74.0522C7.3922 74.873 9.44271 74.845 11.2632 74.6329C10.4089 76.7517 10.0521 79.1622 10.0521 80.9438C10.0521 82.4683 10.3663 83.8032 11.2044 84.8335C12.0439 85.8654 13.1556 86.2753 14.0244 86.4925C14.4588 86.6011 14.9023 86.6773 15.2757 86.7409L15.3264 86.7496L15.3265 86.7496L15.3268 86.7496L15.3275 86.7498C15.7018 86.8135 16.0204 86.8678 16.3331 86.9387C16.9745 87.0841 17.4189 87.2651 17.7667 87.5433C19.1302 88.6341 20.617 89.1329 22.1352 88.9809C23.5955 88.8346 24.813 88.1129 25.7552 87.2969C27.601 85.6982 28.9031 83.292 29.5857 81.7561C30.3427 80.053 30.7043 78.4808 30.3699 77.0642C30.0045 75.5162 28.9374 74.6463 27.9937 74.1308C27.4031 73.8083 26.621 73.5151 26.0359 73.2958L26.0354 73.2956L26.0345 73.2952C25.8267 73.2173 25.6438 73.1488 25.5032 73.0915C24.781 72.7974 24.4503 72.5703 24.2821 72.36C22.5444 70.1879 20.1614 69.6748 17.9821 69.6994C17.7939 69.6407 17.5937 69.6091 17.3862 69.6091C16.7376 69.6091 16.1445 69.7133 15.6034 69.8974C14.7919 70.0081 13.9798 70.15 13.2185 70.2831L13.2175 70.2833L13.2167 70.2834L13.2163 70.2835L13.2158 70.2836L13.2156 70.2836L13.2154 70.2837C12.6569 70.3813 12.1258 70.4742 11.6424 70.5464C9.64026 70.8454 8.20567 70.8579 7.16465 70.396C6.3071 70.0155 5.32527 69.1244 4.74382 66.5079C4.36806 64.8169 4.45891 63.9864 4.59286 63.5972C4.68392 63.3327 4.83372 63.1348 5.31963 62.8967C5.82183 62.6506 6.42811 62.4792 7.31723 62.2279C7.50076 62.176 7.69635 62.1207 7.90555 62.0606C9.03295 61.737 10.4005 61.3077 11.7732 60.5355ZM15.0991 75.8309C15.6144 74.6716 16.1632 74.0603 16.6832 73.7887C17.1181 73.7395 17.5436 73.7075 17.9667 73.7C19.5376 73.6721 20.4865 74.0186 21.1586 74.8588C21.9999 75.9104 23.1499 76.4521 23.9944 76.796C24.3912 76.9577 24.7093 77.0754 24.982 77.1764C25.4172 77.3375 25.7368 77.4559 26.0763 77.6413C26.4595 77.8506 26.4728 77.9525 26.4762 77.9788L26.4769 77.9831C26.5119 78.1316 26.5584 78.7187 25.9305 80.1315C25.3231 81.4982 24.3109 83.2561 23.1364 84.2733C22.5685 84.7653 22.0994 84.9644 21.7366 85.0008C21.4316 85.0313 20.9586 84.9744 20.2655 84.4199C19.2471 83.6051 18.1378 83.2463 17.2173 83.0377C16.7946 82.9419 16.3759 82.8706 16.0249 82.8109L15.9479 82.7978C15.5586 82.7315 15.2597 82.6782 14.9944 82.6119C14.4637 82.4792 14.3468 82.3577 14.3075 82.3093C14.2668 82.2593 14.0521 81.965 14.0521 80.9438C14.0521 79.4917 14.3821 77.4439 15.0991 75.8309ZM43.3892 69.6089C43.3892 65.747 40.4983 63.3126 37.5595 62.8205C36.0757 62.5721 34.4589 62.7853 33.0665 63.631C31.6401 64.4972 30.5992 65.9381 30.1762 67.8415C29.6701 70.1187 29.741 73.2547 30.6617 75.9337C31.0909 77.1827 31.7587 78.4548 32.7228 79.4782C32.722 79.522 32.7215 79.5661 32.7215 79.6104C32.7215 80.7149 33.617 81.6104 34.7215 81.6104C35.0854 81.6104 35.4265 81.5132 35.7204 81.3435C36.2009 81.4835 36.7171 81.5743 37.2711 81.6069C38.1046 81.6559 38.7011 81.8685 39.5688 82.1777L39.5689 82.1777L39.569 82.1777L39.6709 82.214C40.6078 82.5475 41.7768 82.9439 43.3895 82.9439C44.5393 82.9439 45.5025 82.6555 46.3235 82.1541C47.1007 81.6796 47.6621 81.0644 48.0703 80.5891C48.1688 80.4744 48.2604 80.3669 48.3463 80.266C49.0532 79.4359 49.3766 79.0561 50.0228 78.8407C51.0707 78.4914 51.637 77.3587 51.2877 76.3108C50.9384 75.263 49.8058 74.6966 48.7579 75.0459C46.9711 75.6415 45.9083 76.9292 45.2632 77.7108L45.2626 77.7115C45.1804 77.8111 45.105 77.9024 45.0358 77.983C44.6831 78.3937 44.4565 78.6074 44.2389 78.7403C44.0652 78.8464 43.8271 78.9439 43.3895 78.9439C42.4875 78.9439 41.8499 78.7438 41.0121 78.4456L40.8365 78.3828L40.8361 78.3826C40.0263 78.0921 38.9766 77.7156 37.606 77.6202C38.0195 77.1688 38.5848 76.6832 39.3159 76.0897C39.3863 76.0326 39.4592 75.9738 39.5342 75.9134L39.5348 75.9129L39.5369 75.9112C41.0439 74.6964 43.3892 72.8061 43.3892 69.6089ZM36.6522 73.0998C36.0277 73.6054 35.2654 74.2225 34.5789 74.9985C34.5325 74.881 34.4877 74.7594 34.4445 74.6336C33.7754 72.6866 33.7268 70.3028 34.0809 68.7092C34.2851 67.7905 34.7152 67.3095 35.1429 67.0498C35.6044 66.7695 36.2244 66.6527 36.8989 66.7656C38.2769 66.9963 39.3892 68.0508 39.3892 69.6089C39.3892 70.7425 38.6429 71.484 36.7948 72.9842L36.6522 73.0998ZM53.1353 65.8862C54.2264 64.8532 55.6895 64.2751 57.3922 64.2751C58.4967 64.2751 59.3922 65.1706 59.3922 66.2751C59.3922 67.3797 58.4967 68.2751 57.3922 68.2751C56.6351 68.2751 56.1792 68.5127 55.8853 68.791C55.5667 69.0926 55.309 69.5693 55.2039 70.2116C54.985 71.5505 55.502 73.1367 56.6412 74.0481C57.5482 74.7737 58.9031 75.0935 60.7947 75.1373C61.7164 75.1587 62.6799 75.1147 63.6926 75.0604L64.0243 75.0425L64.0247 75.0425H64.0247H64.0248H64.0249C64.9128 74.9942 65.8462 74.9434 66.7269 74.9434C67.5177 74.9434 68.2014 75.4025 68.5259 76.0686C68.288 73.8621 67.8688 71.667 67.4297 69.3732L67.4246 69.3464C67.1106 67.7062 66.7871 66.016 66.534 64.2705C66.1549 64.273 65.7747 64.2744 65.3935 64.2744C64.289 64.2744 63.3935 63.379 63.3935 62.2744C63.3935 61.1698 64.289 60.2744 65.3935 60.2744C65.6342 60.2744 65.8759 60.2738 66.1184 60.2726C66.081 59.6142 66.0605 58.948 66.0605 58.2739C66.0605 57.1694 66.9559 56.2739 68.0605 56.2739C69.1651 56.2739 70.0605 57.1694 70.0605 58.2739C70.0605 58.9281 70.0822 59.5754 70.1217 60.2184L71.0081 60.2014L71.0085 60.2014C74.9221 60.1259 78.9456 60.0484 82.8469 60.2779C84.1261 60.3531 84.6279 61.4234 84.7065 61.5926C84.8618 61.9271 84.9381 62.2735 84.9819 62.5166C85.0758 63.0369 85.1218 63.6886 85.1458 64.3607C85.1949 65.7335 85.1616 67.5458 85.0995 69.3857C85.0372 71.2325 84.9481 73.0818 84.873 74.6417L84.8729 74.6424C84.7934 76.2937 84.7294 77.6206 84.7294 78.2768C84.7294 79.3813 83.834 80.2768 82.7294 80.2768C81.6249 80.2768 80.7294 79.3813 80.7294 78.2768C80.7294 77.565 80.8014 76.0504 80.8867 74.2561L80.8868 74.2536C80.9614 72.6831 81.0462 70.8986 81.1018 69.2508C81.1635 67.4238 81.1921 65.7287 81.1484 64.5035C81.1445 64.3958 81.1402 64.2942 81.1354 64.1986C77.8781 64.0695 74.6195 64.1332 71.3049 64.1979H71.3047H71.3046H71.3044H71.3043H71.3041H71.3039H71.3038H71.3036H71.3035H71.3033H71.3027L71.3021 64.198L70.57 64.2122C70.7947 65.668 71.0725 67.1278 71.3584 68.6212L71.3827 68.7484C72.0369 72.1654 72.7276 75.7728 72.7276 79.6104C72.7276 80.715 71.8321 81.6104 70.7276 81.6104C69.623 81.6104 68.7276 80.715 68.7276 79.6104C68.7276 78.8967 68.7007 78.19 68.6522 77.4868C68.4154 78.3273 67.6431 78.9434 66.7269 78.9434C65.9623 78.9434 65.1439 78.9877 64.2383 79.0368L64.238 79.0368L63.9064 79.0547C62.8952 79.1089 61.7936 79.1615 60.702 79.1362C58.567 79.0867 56.1026 78.7397 54.1425 77.1716C51.7695 75.2732 50.8269 72.1921 51.2564 69.5661C51.4755 68.2259 52.0689 66.8958 53.1353 65.8862ZM92.3457 71.1602C92.4186 70.9235 92.5668 70.4489 92.7587 69.8635C93.8537 73.8759 95.1204 78.1936 96.9428 81.8384C97.4368 82.8263 98.6382 83.2268 99.6261 82.7328C100.614 82.2388 101.015 81.0375 100.521 80.0495C98.6457 76.2997 97.4317 71.8117 96.2404 67.4071L96.2404 67.407C95.9118 66.1924 95.585 64.9841 95.2465 63.7994C95.1846 63.5827 95.0227 63.0893 94.5768 62.6783C94.3241 62.4454 93.9769 62.2377 93.5434 62.1524C93.115 62.0681 92.7305 62.1284 92.4354 62.2299C91.9108 62.4102 91.5807 62.7476 91.4438 62.8977C91.2737 63.084 91.1389 63.28 91.0386 63.4399C90.6608 64.042 90.2871 64.9267 89.977 65.7278C89.3269 67.4074 88.699 69.4107 88.5226 69.9839C88.2945 70.7251 88.0566 71.4345 87.8225 72.1326C86.9146 74.8399 86.0634 77.3779 86.0634 80.9439C86.0634 82.0485 86.9589 82.9439 88.0634 82.9439C89.168 82.9439 90.0634 82.0485 90.0634 80.9439C90.0634 78.0815 90.6727 76.2528 91.5352 73.664L91.5353 73.6637L91.5355 73.6631C91.787 72.9083 92.06 72.0888 92.3457 71.1602ZM110.265 69.6319C110.169 70.3015 110.1 70.9509 110.061 71.4663C109.958 72.7996 109.598 73.9991 109.196 75.0574C109.271 75.1036 109.342 75.1488 109.411 75.1923L109.414 75.194C109.506 75.2516 109.593 75.3064 109.675 75.3575C110.67 75.9725 111.302 76.2769 112.067 76.2769C112.338 76.2769 112.595 76.3306 112.831 76.4279C112.377 75.2919 111.954 74.1425 111.532 72.9953C111.462 72.8041 111.392 72.613 111.321 72.4221C110.982 71.5004 110.636 70.5733 110.265 69.6319ZM113.935 78.9932C115.309 81.9284 117.1 84.8049 119.988 87.6923C120.769 88.4734 122.035 88.4734 122.816 87.6923C123.597 86.9113 123.597 85.645 122.816 84.8639C119.923 81.9705 118.302 79.1095 116.981 76.0035C116.384 74.5976 115.854 73.1582 115.286 71.6131L115.286 71.6126L115.074 71.0386C114.43 69.29 113.731 67.4276 112.857 65.4629C112.595 64.8733 112.269 64.2799 111.828 63.8244C111.373 63.3533 110.513 62.7716 109.387 63.0276C108.435 63.2439 107.903 63.9458 107.668 64.3097C107.393 64.7362 107.195 65.2202 107.049 65.6529C106.475 67.3478 106.174 69.8356 106.072 71.1595C106.007 72.0044 105.785 72.7698 105.465 73.6108C104.443 73.576 103.544 74.3269 103.415 75.3618C103.33 76.0408 103.596 76.6827 104.071 77.1055C103.694 78.226 103.399 79.4968 103.399 80.944C103.399 82.0486 104.295 82.944 105.399 82.944C106.504 82.944 107.399 82.0486 107.399 80.944C107.399 80.2089 107.517 79.5331 107.716 78.8486C108.745 79.4792 110.173 80.2769 112.067 80.2769C112.919 80.2769 113.647 79.744 113.935 78.9932ZM111.028 66.4794C111.043 66.457 111.042 66.4631 111.024 66.4871L111.028 66.4794ZM135.403 61.7221C134.83 61.52 134.172 61.5807 133.627 61.9438C131.872 63.1139 129.251 64.2483 126.416 65.1611C123.598 66.0683 120.718 66.7093 118.513 66.9543C117.416 67.0762 116.625 68.0651 116.747 69.1629C116.869 70.2607 117.857 71.0518 118.955 70.9298C120.378 70.7717 121.998 70.4774 123.68 70.077C124.268 72.7387 125.687 75.0918 126.904 77.1117L127.023 77.3085C128.754 80.1831 130.07 82.4657 130.07 84.9445C130.07 86.0491 130.965 86.9445 132.07 86.9445C133.175 86.9445 134.07 86.0491 134.07 84.9445C134.07 81.2505 132.15 78.0651 130.568 75.4415L130.449 75.2447C129.046 72.9148 127.916 70.9738 127.538 69.002C127.573 68.9909 127.607 68.9798 127.642 68.9686C129.976 68.217 132.321 67.2805 134.28 66.2123C134.65 68.5112 135.46 70.5386 136.316 72.396C136.63 73.0794 136.943 73.7265 137.246 74.3531L137.247 74.3553C138.108 76.1366 138.889 77.7524 139.407 79.5673C139.648 80.4086 139.905 81.1808 140.219 81.7052C140.307 81.8522 140.444 82.0567 140.643 82.2533C140.829 82.4376 141.206 82.7514 141.782 82.8599C143.263 83.1389 143.979 81.9142 144.087 81.7134C144.274 81.3639 144.366 80.9951 144.416 80.7652C144.474 80.4972 144.519 80.2041 144.555 79.9133C144.628 79.3314 144.684 78.6253 144.737 77.8955C144.756 77.6187 144.776 77.3365 144.795 77.051V77.0509C144.883 75.7851 144.974 74.4569 145.123 73.2674C145.213 72.5425 145.318 71.929 145.44 71.4572C145.535 71.0846 145.614 70.9122 145.637 70.8619L145.638 70.8617L145.641 70.8546C145.643 70.8488 145.645 70.8459 145.644 70.8457C145.644 70.8454 145.641 70.8492 145.635 70.8567L145.636 70.8549C145.655 70.8277 145.702 70.7612 146.824 70.5668C147.15 70.5102 147.563 70.4384 148.015 70.3043C148.261 70.6875 148.512 71.0709 148.765 71.451C149.926 73.1933 151.177 74.9338 152.218 76.3619C152.531 76.7924 152.821 77.188 153.083 77.5445L153.084 77.546L153.085 77.5474C153.714 78.4057 154.176 79.0373 154.409 79.3864C155.022 80.3054 156.264 80.5538 157.183 79.9411C158.102 79.3284 158.35 78.0866 157.737 77.1676C157.452 76.7393 156.899 75.9854 156.233 75.0755L156.231 75.0736L156.226 75.0663C155.98 74.731 155.719 74.3746 155.45 74.0056C154.418 72.5899 153.207 70.9038 152.094 69.2332C151.76 68.7318 151.439 68.2379 151.137 67.7581C151.236 67.5157 151.302 67.2818 151.348 67.0778C151.451 66.6223 151.491 66.1472 151.494 65.6984C151.5 64.8069 151.36 63.826 151.094 62.9639C150.96 62.5305 150.779 62.0773 150.535 61.6612C150.303 61.2646 149.939 60.7737 149.382 60.4231C148.756 60.0286 147.95 59.8615 147.117 60.1239C146.378 60.3568 145.844 60.8578 145.473 61.3215C144.686 62.3055 144.831 63.4995 144.958 64.1176C145.11 64.8552 145.423 65.6439 145.781 66.3987C145.799 66.4367 145.817 66.4749 145.836 66.5132L145.852 66.5473L145.88 66.6036L145.909 66.6631C145.111 66.7895 143.554 67.0544 142.51 68.3596C142.001 68.9951 141.732 69.8133 141.566 70.4604C141.384 71.1677 141.253 71.9703 141.153 72.7717C141.138 72.8955 141.123 73.0207 141.109 73.1471C141.041 73.0066 140.974 72.8671 140.907 72.7287L140.745 72.3933L140.739 72.3822L140.738 72.379L140.737 72.3773C140.461 71.8067 140.194 71.2546 139.949 70.7231C138.862 68.3621 138.07 66.1517 138.07 63.6081C138.07 62.5035 137.175 61.6081 136.07 61.6081C135.836 61.6081 135.612 61.6483 135.403 61.7221ZM148.857 63.1997C148.858 63.1708 148.856 63.1543 148.855 63.1533C148.854 63.1529 148.854 63.1559 148.854 63.1628C148.854 63.1704 148.855 63.1825 148.857 63.1997ZM147.066 63.6536C147.061 63.6476 147.059 63.6443 147.059 63.6441C147.059 63.6439 147.061 63.6469 147.066 63.6536ZM140.489 79.9875L140.489 79.9901C140.489 79.9902 140.49 79.9872 140.492 79.9806L140.489 79.9875ZM169.945 67.0754C170.737 66.5802 171.58 66.0505 172.362 65.5344C172.758 65.2733 173.159 65.0026 173.547 64.7283C173.703 64.6765 173.84 64.6447 173.955 64.6318L173.962 64.631L173.98 64.6292C174.007 64.6842 174.042 64.7701 174.079 64.8982C174.54 66.5108 174.415 68.5087 173.734 70.0357C173.076 71.5112 172.063 72.2762 170.742 72.2762C168.306 72.2762 167.289 71.8472 166.515 71.2341C166.229 71.0078 165.943 70.7292 165.624 70.3714C165.751 70.3606 165.873 70.3456 165.987 70.3293C166.26 70.2707 166.632 70.1213 166.739 70.061C166.796 70.0252 166.886 69.9631 166.92 69.9379C166.98 69.8915 167.025 69.8516 167.04 69.8385C167.068 69.813 167.092 69.7905 167.104 69.7783L167.112 69.771C167.123 69.7601 167.134 69.7494 167.143 69.7402C167.152 69.731 167.159 69.7233 167.164 69.7181C167.186 69.6957 167.215 69.6662 167.243 69.6368L167.246 69.6334L167.247 69.6325L167.25 69.629L167.252 69.6278L167.253 69.6262C167.318 69.5582 167.409 69.4641 167.523 69.3468C167.756 69.1087 168.087 68.7751 168.489 68.3916C168.916 67.9828 169.413 67.5271 169.945 67.0754ZM171.612 61.1919C170.702 61.5849 169.843 62.1295 169.115 62.6478C168.586 63.0245 168.071 63.4289 167.586 63.8326C167.244 64.0466 166.906 64.258 166.577 64.4658C165.523 65.1312 164.397 65.8566 163.797 66.4237C163.649 66.563 163.382 66.8292 163.186 67.193C163.176 67.2118 163.165 67.2333 163.153 67.2573C163.093 67.181 163.031 67.1039 162.969 67.0259C162.696 66.6852 162.285 66.2133 161.846 65.7105L161.638 65.472C161.104 64.8588 160.513 64.175 159.954 63.4863C159.391 62.7917 158.89 62.1293 158.527 61.5609C158.198 61.0468 158.093 60.7762 158.066 60.7068C158.061 60.6964 158.059 60.6906 158.058 60.689C158.057 60.6879 158.057 60.6892 158.058 60.6928C157.921 59.5968 156.921 58.8193 155.825 58.9563C154.729 59.0933 153.952 60.0929 154.089 61.189C154.205 62.1182 154.726 63.042 155.157 63.7155C155.639 64.4691 156.247 65.2655 156.848 66.0067C157.455 66.7538 158.085 67.4827 158.622 68.0991L158.835 68.343C159.286 68.8612 159.631 69.2562 159.846 69.5247C160.24 70.0178 160.597 70.4802 160.938 70.9228L160.98 70.9776C161.303 71.3957 161.618 71.8044 161.923 72.1844C162.558 72.9731 163.229 73.7346 164.032 74.3705C165.763 75.7402 167.785 76.2762 170.742 76.2762C174.085 76.2762 176.288 74.1282 177.387 71.6655C178.463 69.2541 178.636 66.2884 177.925 63.7994C177.697 63.0006 177.314 62.2493 176.71 61.6699C176.897 61.3948 177.074 61.113 177.241 60.8337C177.355 61.3455 177.494 61.8545 177.662 62.3535C178.438 64.6564 179.905 66.9057 182.598 68.1026C182.877 68.2266 183.246 68.4054 183.678 68.6153L183.679 68.6155L183.68 68.616C185.034 69.2734 187.016 70.2353 188.84 70.7717C190.073 71.1342 191.508 71.3983 192.878 71.1744C194.368 70.9308 195.732 70.1073 196.534 68.503C197.028 67.515 196.628 66.3137 195.64 65.8197C194.652 65.3257 193.451 65.7262 192.957 66.7141C192.796 67.0364 192.611 67.165 192.232 67.2268C191.734 67.3083 190.979 67.2312 189.969 66.9341C188.495 66.5008 187.05 65.7996 185.748 65.1677L185.747 65.1676L185.747 65.1674L185.747 65.1673L185.745 65.1663L185.744 65.1661L185.744 65.166C185.21 64.9071 184.701 64.6598 184.223 64.4474C182.864 63.8434 181.997 62.6907 181.453 61.0758C180.896 59.4255 180.743 57.4662 180.743 55.6068C180.743 55.341 180.733 55.0736 180.702 54.8225C180.675 54.6076 180.616 54.2374 180.429 53.8647C180.235 53.4756 179.676 52.6968 178.586 52.6594C177.731 52.6301 177.171 53.1132 177.018 53.2503C176.632 53.5944 176.343 54.0699 176.176 54.3522C175.97 54.7018 175.75 55.1186 175.534 55.5394C175.428 55.7446 175.322 55.954 175.214 56.1659L175.211 56.1722C174.859 56.8645 174.493 57.5842 174.101 58.2778C173.574 59.2095 173.109 59.8947 172.736 60.2675C172.48 60.5232 172.098 60.8351 171.612 61.1919ZM176.733 55.3169C176.729 55.2951 176.73 55.292 176.732 55.3129L176.733 55.3169ZM166.528 69.3471C166.531 69.3446 166.534 69.3411 166.538 69.3366C166.527 69.3469 166.522 69.352 166.523 69.352C166.523 69.352 166.525 69.3504 166.528 69.3471ZM174.074 64.628C174.074 64.628 174.072 64.6279 174.069 64.6273C174.072 64.6277 174.074 64.6279 174.074 64.628ZM173.934 64.5505L173.931 64.5472C173.929 64.5455 173.929 64.5445 173.929 64.5444C173.929 64.5442 173.931 64.5461 173.934 64.5505ZM215.415 49.606C215.415 48.3763 215.401 47.4903 215.377 46.8889C215.365 46.5918 215.35 46.3387 215.33 46.1379C215.32 46.0409 215.306 45.9224 215.284 45.8027C215.273 45.7437 215.255 45.6538 215.225 45.5508C215.205 45.4837 215.135 45.247 214.967 44.9907C214.875 44.8502 214.149 43.8157 212.816 44.1358C212.286 44.2631 211.955 44.5661 211.8 44.7359C211.638 44.914 211.542 45.0832 211.494 45.1762C211.345 45.4645 211.294 45.7433 211.285 45.7971L211.283 45.8033C211.247 45.9958 211.226 46.213 211.212 46.3908C211.182 46.7796 211.162 47.3098 211.155 47.9018C211.144 48.9345 211.173 50.2588 211.29 51.4858C211.115 52.8882 210.753 54.4373 210.177 55.6078C209.748 56.4801 209.328 56.8822 209.034 57.0262C208.866 57.1088 208.505 57.2374 207.684 56.8027C206.923 56.3998 204.78 54.8476 202.721 53.1068C201.714 52.2561 200.796 51.4174 200.134 50.7195C199.8 50.3679 199.566 50.0882 199.423 49.8868C199.391 49.8423 199.368 49.8071 199.352 49.7808C199.108 48.8159 198.178 48.1616 197.165 48.2882C196.069 48.4252 195.291 49.4248 195.428 50.5208C195.519 51.2484 195.918 51.8597 196.161 52.2015C196.457 52.6194 196.833 53.0527 197.233 53.4735C198.037 54.3205 199.078 55.2648 200.138 56.1615C202.213 57.9156 204.638 59.7165 205.812 60.3379C207.512 61.2377 209.244 61.3802 210.798 60.6162C212.228 59.9137 213.159 58.6087 213.767 57.3735C213.903 57.0955 214.03 56.8078 214.148 56.5132C216.183 57.4452 218.731 57.9972 221.128 57.9136C223.886 57.8173 227.044 56.8257 228.54 53.8343C229.034 52.8463 228.633 51.6449 227.645 51.151C226.657 50.657 225.456 51.0574 224.962 52.0454C224.422 53.1246 223.107 53.842 220.988 53.916C219.085 53.9825 217.016 53.4846 215.534 52.7427C215.456 52.4661 215.38 52.0579 215.317 51.5311L215.313 51.4996C215.384 50.8067 215.415 50.1625 215.415 49.606ZM199.318 49.7225L199.317 49.7204C199.317 49.7203 199.318 49.7237 199.322 49.7305L199.318 49.7225ZM245.677 45.4906C247.123 45.8975 248.24 47.0417 248.64 48.8424C248.853 49.8022 248.955 50.6419 248.911 51.3552C248.868 52.0577 248.67 52.824 248.093 53.3995C247.487 54.0045 246.725 54.1408 246.116 54.1141C245.529 54.0883 244.95 53.9111 244.456 53.7178C243.873 53.4895 243.247 53.1709 242.656 52.8509C242.498 52.829 242.342 52.7815 242.192 52.7066C241.751 52.4857 241.347 52.2288 240.997 51.938C240.757 51.8102 240.537 51.6986 240.336 51.6065C240.169 51.5298 240.033 51.4745 239.923 51.4372C239.869 51.4188 239.827 51.4066 239.796 51.3987C239.78 51.3949 239.768 51.3923 239.76 51.3907L239.751 51.389L239.748 51.3886C238.925 51.2858 238.342 50.5361 238.445 49.7141C238.534 49.0073 239.1 48.4771 239.78 48.4077C240.117 47.2935 241.025 46.4752 241.886 46.0026C242.944 45.4222 244.346 45.116 245.677 45.4906ZM242.746 49.4727C242.822 49.5145 242.898 49.5564 242.973 49.5981C243.102 49.6695 243.23 49.7402 243.355 49.81L243.357 49.8112C244.17 50.2632 244.905 50.6721 245.549 50.924C245.695 50.9812 245.819 51.0227 245.921 51.0521C245.925 50.7259 245.874 50.2249 245.712 49.4932C245.614 49.0535 245.46 48.8041 245.331 48.6617C245.204 48.5216 245.051 48.4308 244.865 48.3784C244.455 48.2632 243.864 48.3391 243.33 48.6324C242.755 48.9482 242.648 49.2735 242.645 49.3098L242.645 49.3103C242.645 49.3125 242.645 49.3136 242.646 49.3192C242.648 49.3263 242.659 49.359 242.701 49.4164C242.713 49.4333 242.728 49.4521 242.746 49.4727ZM245.883 51.3991C245.882 51.4016 245.882 51.403 245.882 51.4031C245.882 51.4031 245.882 51.4028 245.882 51.4021L245.883 51.3991Z" fill="white"/>
</svg>
