<svg width="235" height="54" viewBox="0 0 235 54" fill="none" xmlns="http://www.w3.org/2000/svg">
<g id="Vector 9">
<path d="M140.372 9.80874C139.568 9.89827 138.762 10.0163 137.957 10.1566C132.507 11.3838 127.519 13.9866 122.593 16.5564L122.546 16.5811C109.374 23.4533 96.1519 30.0894 82.614 36.2136C74.098 40.0661 65.5805 45.532 56.7583 48.5858C56.3583 48.7243 55.8517 48.9752 55.2985 49.2812C52.8206 50.6518 49.4091 53.1273 50.4611 51.5492C51.0549 50.6586 52.9588 49.9145 55.2985 49.2812C55.8517 48.9752 56.3583 48.7243 56.7583 48.5858C65.5805 45.532 74.098 40.0661 82.614 36.2136C96.1519 30.0894 109.374 23.4533 122.546 16.5811L122.593 16.5564C127.519 13.9866 132.507 11.3838 137.957 10.1566C138.349 10.0682 138.744 9.987 139.141 9.91343C139.354 9.87406 139.805 9.8393 140.372 9.80874C141.471 9.68626 142.568 9.61708 143.66 9.61708C148.001 9.61708 142.97 9.6687 140.372 9.80874Z" fill="white"/>
<path d="M2.37988 17.6183C25.5928 17.6183 48.8071 17.6967 72.0199 17.6183C88.6515 17.5621 105.061 17.4238 121.435 14.2104C128.627 12.7989 136.253 9.61708 143.66 9.61708C148.948 9.61708 140.328 9.69369 139.141 9.91343C133.208 11.012 127.841 13.8183 122.546 16.5811C109.374 23.4533 96.1519 30.0894 82.614 36.2136C74.098 40.0661 65.5805 45.532 56.7583 48.5858C54.5661 49.3447 49.1743 53.4795 50.4611 51.5492C52.1653 48.993 64.6633 47.6431 67.2784 46.6596C92.844 37.0452 117.773 25.5783 143.586 16.6552C158.047 11.6562 172.974 8.0693 187.444 3.24577C188.103 3.02622 195.987 0.873241 194.927 2.35675C190.236 8.92481 184.907 15.382 179.74 21.6189C174.501 27.9416 157.003 44.3529 164.478 40.9551C178.515 34.5745 193.346 29.8666 207.447 23.5451C212.999 21.0565 218.637 18.6078 224.487 17.5442C227.351 17.0235 231.767 16.2451 233.081 13.6177" stroke="white" stroke-width="3" stroke-linecap="round"/>
</g>
</svg>
