<svg width="1440" height="2264" viewBox="0 0 1440 2264" fill="none" xmlns="http://www.w3.org/2000/svg">
<path fill-rule="evenodd" clip-rule="evenodd" d="M91.9243 701.34C77.482 704.79 82.2961 711.579 96.0339 708.574C120.926 703.121 157.561 717.032 177.991 737.175C211.573 770.227 225.78 865.6 204.645 917.682C184.567 967.428 171.064 983.342 130.202 1006.16C69.7324 1039.88 15.8378 1038.87 -56.0216 982.563C-121.188 931.593 -111.207 850.354 -33.0078 790.259C-22.088 781.913 -1.07026 761.881 14.5462 745.188C34.155 724.155 47.4231 714.25 60.4564 711.023C72.0807 708.24 71.1414 705.125 58.8126 705.125C39.4387 705.125 22.6481 716.364 -7.05853 748.971C-20.4441 763.66 -35.1213 777.127 -48.272 786.587C-137.391 851.022 -135.865 939.939 -43.8102 1005.71C-15.63 1025.85 65.2705 1055.34 130.202 1021.62C184.567 993.356 195.839 981.561 219.792 926.585C244.215 870.386 232.003 774.455 195.721 737.286C172.707 713.916 120.457 694.663 91.9243 701.34ZM56.8165 741.849C51.6501 745.188 47.6579 748.192 44.1354 751.086C38.2646 755.871 44.7225 764.552 51.4153 760.991C56.8165 758.097 64.2138 752.199 73.0201 746.078C80.1826 741.181 79.3606 738.288 70.3195 736.952C65.9751 736.284 64.6835 736.619 56.8165 741.849ZM134.312 761.769C128.441 763.772 103.783 782.024 103.783 784.472C103.783 786.364 109.302 788.7 113.764 788.7C117.404 788.7 148.402 768.669 148.402 766.332C148.402 763.773 138.187 760.433 134.312 761.769ZM26.6402 806.506C14.5462 811.18 -0.365753 824.312 3.97869 826.537C9.96697 829.542 40.4955 816.076 40.4955 810.401C40.3781 807.396 31.2195 804.725 26.6402 806.506ZM87.8147 821.642C63.5093 837.111 62.3351 838.669 70.9066 841.117C75.8381 842.564 106.249 827.539 106.249 823.755C106.132 818.525 94.7423 817.19 87.8147 821.642ZM162.61 830.545C155.095 833.661 134.312 845.902 134.312 847.238C134.312 856.03 177.287 842.785 178.696 833.549C179.4 828.986 170.242 827.318 162.61 830.545ZM-41.3444 871.165C-59.5437 883.629 -61.4228 885.965 -55.1996 888.635C-48.8591 891.418 -48.6243 891.196 -20.9138 873.502C-13.2817 868.605 -12.5772 866.713 -17.7435 864.487C-24.6711 861.483 -29.133 862.707 -41.3444 871.165ZM39.791 882.071C25.4661 891.419 23.0003 893.755 25.1138 896.092C28.4015 899.875 33.6853 899.43 42.8438 894.2C47.6579 891.418 54.5856 887.523 58.2255 885.519C66.3273 881.068 67.0318 879.621 63.0396 876.616C57.521 872.388 52.8243 873.502 39.791 882.071ZM127.737 915.567C114.234 920.686 96.8558 935.266 102.022 937.158C111.768 940.719 148.519 919.797 139.478 915.791C136.073 914.233 131.259 914.231 127.737 915.567ZM16.8946 957.189C9.61472 959.638 -6.58887 971.323 -6.58887 974.105C-6.58887 980.893 24.879 969.653 29.4583 961.084C32.1588 955.965 25.9357 954.073 16.8946 957.189ZM140.065 965.423C118.461 975.773 110.828 985.232 124.566 984.898C129.263 984.787 154.86 970.989 157.561 967.205C162.022 960.528 152.394 959.414 140.065 965.423Z" fill="#F0F0EF"/>
<path fill-rule="evenodd" clip-rule="evenodd" d="M1406.92 1714.34C1392.48 1717.79 1397.3 1724.58 1411.03 1721.57C1435.93 1716.12 1472.56 1730.03 1492.99 1750.17C1526.57 1783.23 1540.78 1878.6 1519.64 1930.68C1499.57 1980.43 1486.06 1996.34 1445.2 2019.16C1384.73 2052.88 1330.84 2051.87 1258.98 1995.56C1193.81 1944.59 1203.79 1863.35 1281.99 1803.26C1292.91 1794.91 1313.93 1774.88 1329.55 1758.19C1349.15 1737.15 1362.42 1727.25 1375.46 1724.02C1387.08 1721.24 1386.14 1718.12 1373.81 1718.12C1354.44 1718.12 1337.65 1729.36 1307.94 1761.97C1294.56 1776.66 1279.88 1790.13 1266.73 1799.59C1177.61 1864.02 1179.13 1952.94 1271.19 2018.71C1299.37 2038.85 1380.27 2068.34 1445.2 2034.62C1499.57 2006.36 1510.84 1994.56 1534.79 1939.59C1559.21 1883.39 1547 1787.46 1510.72 1750.29C1487.71 1726.92 1435.46 1707.66 1406.92 1714.34ZM1371.82 1754.85C1366.65 1758.19 1362.66 1761.19 1359.14 1764.09C1353.26 1768.87 1359.72 1777.55 1366.42 1773.99C1371.82 1771.1 1379.21 1765.2 1388.02 1759.08C1395.18 1754.18 1394.36 1751.29 1385.32 1749.95C1380.98 1749.28 1379.68 1749.62 1371.82 1754.85ZM1449.31 1774.77C1443.44 1776.77 1418.78 1795.02 1418.78 1797.47C1418.78 1799.36 1424.3 1801.7 1428.76 1801.7C1432.4 1801.7 1463.4 1781.67 1463.4 1779.33C1463.4 1776.77 1453.19 1773.43 1449.31 1774.77ZM1341.64 1819.51C1329.55 1824.18 1314.63 1837.31 1318.98 1839.54C1324.97 1842.54 1355.5 1829.08 1355.5 1823.4C1355.38 1820.4 1346.22 1817.73 1341.64 1819.51ZM1402.81 1834.64C1378.51 1850.11 1377.34 1851.67 1385.91 1854.12C1390.84 1855.56 1421.25 1840.54 1421.25 1836.76C1421.13 1831.52 1409.74 1830.19 1402.81 1834.64ZM1477.61 1843.54C1470.09 1846.66 1449.31 1858.9 1449.31 1860.24C1449.31 1869.03 1492.29 1855.79 1493.7 1846.55C1494.4 1841.99 1485.24 1840.32 1477.61 1843.54ZM1273.66 1884.16C1255.46 1896.63 1253.58 1898.96 1259.8 1901.64C1266.14 1904.42 1266.38 1904.2 1294.09 1886.5C1301.72 1881.6 1302.42 1879.71 1297.26 1877.49C1290.33 1874.48 1285.87 1875.71 1273.66 1884.16ZM1354.79 1895.07C1340.47 1904.42 1338 1906.75 1340.11 1909.09C1343.4 1912.88 1348.69 1912.43 1357.84 1907.2C1362.66 1904.42 1369.59 1900.52 1373.23 1898.52C1381.33 1894.07 1382.03 1892.62 1378.04 1889.62C1372.52 1885.39 1367.82 1886.5 1354.79 1895.07ZM1442.74 1928.57C1429.23 1933.69 1411.86 1948.27 1417.02 1950.16C1426.77 1953.72 1463.52 1932.8 1454.48 1928.79C1451.07 1927.23 1446.26 1927.23 1442.74 1928.57ZM1331.89 1970.19C1324.61 1972.64 1308.41 1984.32 1308.41 1987.1C1308.41 1993.89 1339.88 1982.65 1344.46 1974.08C1347.16 1968.97 1340.94 1967.07 1331.89 1970.19ZM1455.07 1978.42C1433.46 1988.77 1425.83 1998.23 1439.57 1997.9C1444.26 1997.79 1469.86 1983.99 1472.56 1980.21C1477.02 1973.53 1467.39 1972.41 1455.07 1978.42Z" fill="#F0F0EF"/>
<path fill-rule="evenodd" clip-rule="evenodd" d="M881.87 793.929L881.848 793.931C894.528 975.841 750.009 1134.21 558.213 1148.48L558.288 1149.46C443.592 1157.33 357.058 1252.03 365.029 1360.66C374.25 1468.78 474.106 1550.11 588.425 1542.26L588.56 1544.01C780.188 1532.33 946.953 1669.18 962.162 1850.69L962.201 1850.69C962.221 1850.94 962.236 1851.2 962.25 1851.45C962.264 1851.68 962.277 1851.91 962.294 1852.14C962.314 1852.41 962.345 1852.67 962.366 1852.93L962.344 1852.93C975.071 2035.52 829.429 2194.39 636.569 2207.63L626.185 2072.33C740.881 2064.45 827.416 1969.75 819.445 1861.13C810.223 1753.01 710.367 1671.68 596.048 1679.53L595.914 1677.78C404.285 1689.45 237.521 1552.61 222.311 1371.1L222.272 1371.1C222.253 1370.84 222.238 1370.59 222.223 1370.34C222.21 1370.1 222.197 1369.87 222.18 1369.64C222.17 1369.51 222.157 1369.38 222.144 1369.24L222.143 1369.24C222.131 1369.11 222.118 1368.98 222.108 1368.86L222.13 1368.85C209.45 1186.94 353.969 1028.57 545.766 1014.31L545.69 1013.33C660.386 1005.45 746.92 910.751 738.95 802.126C729.734 694.081 630.007 612.789 515.785 620.512L515.868 621.595C323.025 634.836 154.653 497.525 139.367 315.099L139.328 315.101C139.308 314.844 139.293 314.587 139.278 314.33C139.265 314.101 139.252 313.873 139.235 313.644C139.225 313.511 139.212 313.378 139.199 313.245C139.186 313.116 139.174 312.988 139.164 312.858L139.186 312.857C135.047 253.48 147.67 196.618 173.205 146.45L472.639 58.2197L475.344 93.4615C360.648 101.336 274.113 196.037 282.084 304.663C291.3 412.707 391.027 493.999 505.249 486.276L505.166 485.193C698.009 471.952 866.381 609.263 881.667 791.689L881.706 791.687C881.725 791.94 881.74 792.193 881.755 792.446L881.755 792.449C881.768 792.68 881.782 792.912 881.798 793.144C881.809 793.277 881.822 793.409 881.835 793.542C881.847 793.671 881.86 793.8 881.87 793.929Z" fill="#B1B1B1" fill-opacity="0.09"/>
</svg>
