<svg width="52" height="56" viewBox="0 0 52 56" fill="none" xmlns="http://www.w3.org/2000/svg">
<path fill-rule="evenodd" clip-rule="evenodd" d="M26.9995 0.0624066C26.3114 0.15166 23.016 0.553295 19.6481 0.910307C11.681 1.80284 10.9567 2.42761 13.6003 5.90848C15.0489 7.82742 26.9271 8.00592 33.4094 6.22086C38.0086 4.97132 32.1419 -0.651617 26.9995 0.0624066ZM40.4349 0.374791C38.407 1.04419 38.2621 1.66896 39.6382 3.36476C41.4489 5.59609 47.4967 5.1052 47.2432 2.73999C46.9897 0.821056 43.151 -0.517739 40.4349 0.374791ZM42.1732 16.2618C32.83 18.0023 38.9502 22.688 40.5436 22.5988L44.7444 22.4203C52.4218 22.0633 54.2325 19.5195 49.0901 16.3064C47.4243 15.2354 47.6053 15.2354 42.1732 16.2618ZM9.72539 18.9394C3.85871 21.0368 2.98957 22.1079 5.30728 24.5177C6.68341 25.9458 7.66119 25.9458 13.0571 24.607C17.8373 23.4467 18.3806 22.5095 16.0266 19.6088C14.5419 17.8237 13.3106 17.6899 9.72539 18.9394ZM27.6152 31.0778C23.523 31.7918 22.2193 33.9339 24.537 36.076C26.3839 37.7718 36.053 36.2991 36.053 34.3355C36.053 31.2117 33.0835 30.096 27.6152 31.0778ZM44.672 45.4922C39.8193 47.6342 43.4407 51.1151 49.1263 49.7763C51.6251 49.1961 52.3132 48.4375 51.6613 46.9202C50.756 44.8674 47.5691 44.198 44.672 45.4922ZM19.9378 46.4739C4.65542 48.7499 14.8678 53.7481 15.5196 53.7481C19.3221 53.6588 28.0135 52.0969 28.9189 51.2936C32.2506 48.3036 26.9271 45.4475 19.9378 46.4739ZM0.961584 50.7581C-0.269695 51.5614 -0.305909 52.0969 0.780514 53.7034C2.19286 55.8009 6.90069 55.31 7.62497 52.9894C8.27683 50.8473 3.42414 49.2408 0.961584 50.7581Z" fill="#D7DB2D"/>
</svg>
