<svg width="58" height="67" viewBox="0 0 58 67" fill="none" xmlns="http://www.w3.org/2000/svg">
<path fill-rule="evenodd" clip-rule="evenodd" d="M28.6915 0.337311C26.0245 1.05133 21.9925 3.44527 18.3176 6.49026C-8.24732 28.5611 -5.4334 60.6492 23.6095 66.5711C46.6044 71.2541 69.3683 29.7161 51.5394 15.6042C40.4095 6.78432 23.0005 16.6962 19.7666 33.6641C17.0156 48.154 31.2745 58.7172 40.7665 49.2462C50.5524 39.4813 50.4474 25.8311 40.5565 25.7471C32.8705 25.6841 28.3345 37.5701 35.0755 40.0901C39.0655 41.5811 43.7694 36.9401 40.6405 34.6091C39.6115 33.8321 38.9185 34.0001 38.5615 35.0501C37.8685 37.2341 35.5585 38.7881 35.1805 37.3391C34.0675 33.2231 40.6195 25.8101 43.2024 28.2671C46.8774 31.7531 43.7694 41.7491 37.0705 47.944C27.1585 57.121 18.5906 42.0013 25.6885 27.8263C33.8575 11.5093 51.0354 9.61926 54.1644 24.6971C57.5454 40.9301 40.4515 64.8909 25.9615 64.1139C7.39758 63.127 -2.11539 44.1643 7.46056 25.3064C12.4586 15.4364 23.1895 4.78929 31.1485 1.8073C34.3405 0.610309 32.2825 -0.607684 28.6915 0.337311Z" fill="#D7DB2D"/>
</svg>
