<svg width="444" height="17" viewBox="0 0 444 17" fill="none" xmlns="http://www.w3.org/2000/svg">
<path fill-rule="evenodd" clip-rule="evenodd" d="M74.2489 3.58486L74.2496 3.58486C194.823 3.41329 346.032 3.19813 441.952 6.28498C442.78 6.31163 443.473 5.66201 443.499 4.83401C443.526 4.00601 442.876 3.31318 442.048 3.28654C346.072 0.197862 194.791 0.413217 74.2201 0.584854C48.4662 0.621516 24.1134 0.656183 2 0.65623C1.17157 0.656232 0.5 1.32781 0.5 2.15623C0.5 2.98466 1.17158 3.65623 2 3.65623C24.1259 3.65618 48.4881 3.62152 74.2489 3.58486ZM4.41797 13.5C3.58954 13.5 2.91797 14.1716 2.91797 15C2.91797 15.8285 3.58954 16.5 4.41797 16.5H5.12441H5.83163H6.53963H7.24842H7.95798H8.66831H9.37942H10.0913H10.804H11.5174H12.2316H12.9466H13.6623H14.3788H15.0961H15.8141H16.5329H17.2524H17.9727H18.6938H19.4156H20.1382H20.8615H21.5856H22.3105H23.0361H23.7624H24.4895H25.2173H25.9459H26.6752H27.4053H28.1361H28.8677H29.5999H30.333H31.0667H31.8012H32.5365H33.2724H34.0091H34.7465H35.4847H36.2236H36.9632H37.7035H38.4446H39.1863H39.9288H40.672H41.416H42.1606H42.906H43.6521H44.3989H45.1464H45.8946H46.6435H47.3931H48.1435H48.8945H49.6463H50.3987H51.1519H51.9057H52.6603H53.4155H54.1715H54.9281H55.6854H56.4435H57.2022H57.9616H58.7217H59.4824H60.2439H61.0061H61.7689H62.5324H63.2966H64.0615H64.827H65.5933H66.3602H67.1278H67.896H68.6649H69.4345H70.2048H70.9757H71.7473H72.5196H73.2925H74.0661H74.8404H75.6153H76.3908H77.1671H77.944H78.7215H79.4997H80.2785H81.058H81.8382H82.6189H83.4004H84.1825H84.9652H85.7486H86.5326H87.3172H88.1025H88.8885H89.675H90.4622H91.2501H92.0386H92.8277H93.6174H94.4077H95.1987H95.9903H96.7826H97.5755H98.3689H99.1631H99.9578H100.753H101.549H102.346H103.143H103.941H104.739H105.538H106.338H107.138H107.939H108.74H109.542H110.345H111.148H111.952H112.757H113.562H114.367H115.174H115.98H116.788H117.596H118.405H119.214H120.024H120.834H121.645H122.457H123.269H124.081H124.895H125.709H126.523H127.338H128.154H128.97H129.787H130.604H131.422H132.24H133.059H133.879H134.699H135.52H136.341H137.163H137.985H138.808H139.632H140.456H141.28H142.106H142.931H143.758H144.584H145.412H146.24H147.068H147.897H148.727H149.557H150.387H151.219H152.05H152.883H153.715H154.549H155.383H156.217H157.052H157.887H158.723H159.56H160.397H161.234H162.072H162.911H163.75H164.589H165.43H166.27H167.111H167.953H168.795H169.638H170.481H171.325H172.169H173.014H173.859H174.705H175.551H176.398H177.245H178.093H178.941H179.789H180.639H181.488H182.338H183.189H184.04H184.892H185.744H186.597H187.45H188.303H189.157H190.012H190.867H191.722H192.578H193.435H194.292H195.149H196.007H196.865H197.724H198.583H199.443H200.303H201.164H202.025H202.886H203.749H204.611H205.474H206.337H207.201H208.065H208.93H209.795H210.661H211.527H212.394H213.261H214.128H214.996H215.864H216.733H217.602H218.472H219.342H220.212H221.083H221.954H222.826H223.698H224.571H225.444H226.318H227.191H228.066H228.94H229.816H230.691H231.567H232.444H233.32H234.198H235.075H235.953H236.832H237.711H238.59H239.47H240.35H241.23H242.111H242.992H243.874H244.756H245.639H246.522H247.405H248.289H249.173H250.057H250.942H251.827H252.713H253.599H254.485H255.372H256.259H257.146H258.034H258.923H259.811H260.7H261.59H262.479H263.37H264.26H265.151H266.042H266.934H267.826H268.718H269.611H270.504H271.397H272.291H273.185H274.08H274.974H275.87H276.765H277.661H278.557H279.454H280.351H281.248H282.146H283.044H283.942H284.84H285.739H286.639H287.538H288.438H289.339H290.239H291.14H292.042H292.943H293.845H294.747H295.65H296.553H297.456H298.36H299.264H300.168H301.072H301.977H302.882H303.788H304.693H305.6H306.506H307.413H308.32H309.227H310.134H311.042H311.951H312.859H313.768H314.677H315.586H316.496H317.406H318.316H319.227H320.138H321.049H321.96H322.872H323.784H324.696H325.609H326.522H327.435H328.348H329.262H330.176H331.09H332.004H332.919H333.834H334.749H335.665H336.581H337.497H338.413H339.33H340.247H341.164H342.081H342.999H343.917H344.835H345.753H346.672H347.591H348.51H349.429H350.349H351.269H352.189H353.109H354.03H354.951H355.872H356.793H357.715H358.637H359.559H360.481H361.403H362.326H363.249H364.172H365.096H366.019H366.943H367.867H368.791H369.716H370.641H371.566H372.491H373.416H374.342H375.267H376.194H377.12H378.046H378.973H379.9H380.827H381.754H382.681H383.609H384.537H385.465H386.393H387.321H388.25H389.179H390.108H391.037H391.966H392.896H393.826H394.756H395.686H396.616H397.547H398.477H399.408H400.339H401.27H402.202H403.133H404.065H404.997H405.929H406.861H407.793H408.726H409.658H410.591H411.524H412.457H413.391H414.324H415.258H416.192H417.126H418.06H418.994H419.928H420.863H421.798H422.732H423.667H424.603H425.538H426.473H427.409H428.344H429.28H430.216H431.152H432.089H433.025H433.961H434.898H435.835H436.772H437.709H438.646H439.583C440.411 16.5 441.083 15.8285 441.083 15C441.083 14.1716 440.411 13.5 439.583 13.5H438.646H437.709H436.772H435.835H434.898H433.961H433.025H432.089H431.152H430.216H429.28H428.344H427.409H426.473H425.538H424.603H423.667H422.732H421.798H420.863H419.928H418.994H418.06H417.126H416.192H415.258H414.324H413.391H412.457H411.524H410.591H409.658H408.726H407.793H406.861H405.929H404.997H404.065H403.133H402.202H401.27H400.339H399.408H398.477H397.547H396.616H395.686H394.756H393.826H392.896H391.966H391.037H390.108H389.179H388.25H387.321H386.393H385.465H384.537H383.609H382.681H381.754H380.827H379.9H378.973H378.046H377.12H376.194H375.267H374.342H373.416H372.491H371.566H370.641H369.716H368.791H367.867H366.943H366.019H365.096H364.172H363.249H362.326H361.403H360.481H359.559H358.637H357.715H356.793H355.872H354.951H354.03H353.109H352.189H351.269H350.349H349.429H348.51H347.591H346.672H345.753H344.835H343.917H342.999H342.081H341.164H340.247H339.33H338.413H337.497H336.581H335.665H334.749H333.834H332.919H332.004H331.09H330.176H329.262H328.348H327.435H326.522H325.609H324.696H323.784H322.872H321.96H321.049H320.138H319.227H318.316H317.406H316.496H315.586H314.677H313.768H312.859H311.951H311.042H310.134H309.227H308.32H307.413H306.506H305.6H304.693H303.788H302.882H301.977H301.072H300.168H299.264H298.36H297.456H296.553H295.65H294.747H293.845H292.943H292.042H291.14H290.239H289.339H288.438H287.538H286.639H285.739H284.84H283.942H283.044H282.146H281.248H280.351H279.454H278.557H277.661H276.765H275.87H274.974H274.08H273.185H272.291H271.397H270.504H269.611H268.718H267.826H266.934H266.042H265.151H264.26H263.37H262.479H261.59H260.7H259.811H258.923H258.034H257.146H256.259H255.372H254.485H253.599H252.713H251.827H250.942H250.057H249.173H248.289H247.405H246.522H245.639H244.756H243.874H242.992H242.111H241.23H240.35H239.47H238.59H237.711H236.832H235.953H235.075H234.198H233.32H232.444H231.567H230.691H229.816H228.94H228.066H227.191H226.318H225.444H224.571H223.698H222.826H221.954H221.083H220.212H219.342H218.472H217.602H216.733H215.864H214.996H214.128H213.261H212.394H211.527H210.661H209.795H208.93H208.065H207.201H206.337H205.474H204.611H203.749H202.886H202.025H201.164H200.303H199.443H198.583H197.724H196.865H196.007H195.149H194.292H193.435H192.578H191.722H190.867H190.012H189.157H188.303H187.45H186.597H185.744H184.892H184.04H183.189H182.338H181.488H180.639H179.789H178.941H178.093H177.245H176.398H175.551H174.705H173.859H173.014H172.169H171.325H170.481H169.638H168.795H167.953H167.111H166.27H165.43H164.589H163.75H162.911H162.072H161.234H160.397H159.56H158.723H157.887H157.052H156.217H155.383H154.549H153.715H152.883H152.05H151.219H150.387H149.557H148.727H147.897H147.068H146.24H145.412H144.584H143.758H142.931H142.106H141.28H140.456H139.632H138.808H137.985H137.163H136.341H135.52H134.699H133.879H133.059H132.24H131.422H130.604H129.787H128.97H128.154H127.338H126.523H125.709H124.895H124.081H123.269H122.457H121.645H120.834H120.024H119.214H118.405H117.596H116.788H115.98H115.174H114.367H113.562H112.757H111.952H111.148H110.345H109.542H108.74H107.939H107.138H106.338H105.538H104.739H103.941H103.143H102.346H101.549H100.753H99.9578H99.1631H98.3689H97.5755H96.7826H95.9903H95.1987H94.4077H93.6174H92.8277H92.0386H91.2501H90.4622H89.675H88.8885H88.1025H87.3172H86.5326H85.7486H84.9652H84.1825H83.4004H82.6189H81.8382H81.058H80.2785H79.4997H78.7215H77.944H77.1671H76.3908H75.6153H74.8404H74.0661H73.2925H72.5196H71.7473H70.9757H70.2048H69.4345H68.6649H67.896H67.1278H66.3602H65.5933H64.827H64.0615H63.2966H62.5324H61.7689H61.0061H60.2439H59.4824H58.7217H57.9616H57.2022H56.4435H55.6854H54.9281H54.1715H53.4155H52.6603H51.9057H51.1519H50.3987H49.6463H48.8945H48.1435H47.3931H46.6435H45.8946H45.1464H44.3989H43.6521H42.906H42.1606H41.416H40.672H39.9288H39.1863H38.4446H37.7035H36.9632H36.2236H35.4847H34.7465H34.0091H33.2724H32.5365H31.8012H31.0667H30.333H29.5999H28.8677H28.1361H27.4053H26.6752H25.9459H25.2173H24.4895H23.7624H23.0361H22.3105H21.5856H20.8615H20.1382H19.4156H18.6938H17.9727H17.2524H16.5329H15.8141H15.0961H14.3788H13.6623H12.9466H12.2316H11.5174H10.804H10.0913H9.37942H8.66831H7.95798H7.24842H6.53963H5.83163H5.12441H4.41797Z" fill="#D7DB2D"/>
</svg>
