<svg width="913" height="2560" viewBox="0 0 913 2560" fill="none" xmlns="http://www.w3.org/2000/svg">
<path fill-rule="evenodd" clip-rule="evenodd" d="M882.955 1328.62L882.976 1328.62C882.973 1328.48 882.967 1328.35 882.961 1328.21C882.955 1328.07 882.949 1327.93 882.945 1327.79C882.941 1327.54 882.939 1327.3 882.938 1327.05C882.936 1326.78 882.935 1326.52 882.929 1326.25L882.89 1326.25C877.097 1133.26 716.057 980.322 522.758 984.84L522.784 985.986C408.298 988.535 312.912 897.99 309.319 783.681C306.999 668.82 398.348 573.258 513.316 570.571L512.445 533.3L208.787 611.628C180.677 663.247 165.116 722.551 166.166 785.325L166.144 785.325C166.147 785.461 166.153 785.597 166.159 785.732L166.159 785.736C166.165 785.877 166.171 786.016 166.175 786.157C166.18 786.398 166.181 786.639 166.182 786.88C166.184 787.152 166.185 787.424 166.192 787.696L166.231 787.696C172.024 980.686 333.063 1133.62 526.363 1129.11L526.336 1127.96C640.822 1125.41 736.208 1215.96 739.801 1330.26C742.121 1445.13 650.772 1540.69 535.804 1543.37L535.828 1544.41C343.521 1550.06 190.949 1709.88 194.166 1902.2L194.145 1902.2C194.148 1902.34 194.154 1902.47 194.16 1902.61L194.16 1902.61C194.166 1902.75 194.172 1902.89 194.176 1903.03C194.177 1903.12 194.179 1903.2 194.18 1903.29L194.181 1903.46L194.182 1903.62C194.184 1903.94 194.185 1904.26 194.192 1904.57L194.231 1904.57C199.996 2096.6 359.453 2248.97 551.459 2246.04L551.502 2247.89C666.091 2245.21 761.604 2335.8 765.2 2450.19C765.563 2468.17 766.261 2480.91 766.737 2489.62C767.347 2500.75 767.595 2505.28 766.323 2505.76C765.448 2506.09 763.853 2504.49 761.162 2501.8C751.281 2491.92 726.618 2467.27 668.501 2468.63L752.368 2526.63C832.51 2524.75 873.567 2544.19 893.942 2553.83C902.349 2557.81 907.234 2560.13 909.892 2558.59C913.58 2556.45 912.977 2546.9 911.538 2524.1C910.464 2507.09 908.925 2482.71 908.353 2448.54L908.375 2448.54C908.368 2448.26 908.351 2447.99 908.344 2447.71C908.339 2447.47 908.338 2447.22 908.337 2446.98C908.335 2446.71 908.334 2446.44 908.327 2446.17L908.288 2446.17C902.524 2254.15 743.066 2101.78 551.061 2104.71L551.018 2102.86C436.428 2105.54 340.915 2014.94 337.32 1900.56C335 1785.7 426.349 1690.13 541.317 1687.45L541.293 1686.41C733.6 1680.76 886.172 1520.94 882.955 1328.62ZM7.98834 132.35L8.00991 132.346C-5.0082 70.9274 -1.05836 9.74323 16.6775 -46.2936L299.79 -181.167L307.762 -144.748C195.423 -120.157 124.004 -8.90838 148.215 103.395C173.588 214.99 284.642 285.675 396.612 261.164L427.227 401.017C238.347 442.364 51.0664 322.993 8.52635 134.662L8.48804 134.669C8.42985 134.403 8.37651 134.137 8.32317 133.87C8.27578 133.634 8.22837 133.397 8.1775 133.161C8.14723 133.023 8.11457 132.887 8.08186 132.75C8.04998 132.618 8.01806 132.485 7.98834 132.35Z" fill="#B1B1B1" fill-opacity="0.09"/>
</svg>
