<svg width="830" height="2269" viewBox="0 0 830 2269" fill="none" xmlns="http://www.w3.org/2000/svg">
<path fill-rule="evenodd" clip-rule="evenodd" d="M745.321 775.782L745.3 775.784C758.486 967.677 614.408 1135.2 422.652 1150.81L422.73 1151.85C308.056 1160.49 221.786 1260.66 230.059 1375.25C239.581 1489.29 339.663 1574.81 453.96 1566.19L454.099 1568.04C645.694 1555.16 812.839 1699.05 828.553 1890.52L828.592 1890.52C828.612 1890.78 828.628 1891.05 828.643 1891.31L828.643 1891.32L828.644 1891.32C828.657 1891.57 828.671 1891.81 828.689 1892.05C828.7 1892.19 828.713 1892.33 828.726 1892.47L828.727 1892.47C828.739 1892.61 828.752 1892.74 828.763 1892.88L828.741 1892.88C841.976 2085.49 696.777 2253.54 503.954 2268.08L493.195 2125.35C607.868 2116.7 694.139 2016.53 685.866 1901.95C676.343 1787.9 576.261 1702.39 461.964 1711L461.825 1709.16C270.23 1722.04 103.085 1578.14 87.3708 1386.68L87.3318 1386.68C87.312 1386.41 87.2967 1386.15 87.2814 1385.88L87.2811 1385.88C87.2671 1385.63 87.2531 1385.39 87.2357 1385.14C87.2143 1384.87 87.1833 1384.59 87.1615 1384.31L87.1832 1384.31C73.9971 1192.42 218.076 1024.9 409.831 1009.29L409.753 1008.25C524.427 999.606 610.697 899.435 602.424 784.85C592.908 670.88 492.955 585.403 378.755 593.887L378.841 595.03C186.035 609.566 17.282 465.185 1.48854 272.756L1.44956 272.758C1.42909 272.487 1.41358 272.216 1.39801 271.946C1.38414 271.704 1.37026 271.462 1.35292 271.221C1.33165 270.945 1.30059 270.67 1.27885 270.392L1.30088 270.391C-3.0031 207.756 9.46152 147.724 34.8572 94.7173L334.045 0.747907L336.847 37.923C222.174 46.5684 135.903 146.74 144.176 261.325C153.692 375.294 253.646 460.771 367.846 452.288L367.759 451.145C560.565 436.609 729.318 580.989 745.112 773.419L745.151 773.417C745.171 773.684 745.186 773.951 745.202 774.218C745.216 774.463 745.23 774.708 745.247 774.954C745.258 775.094 745.272 775.234 745.285 775.374C745.298 775.509 745.311 775.645 745.321 775.782Z" fill="#B1B1B1" fill-opacity="0.09"/>
</svg>
