<svg width="830" height="1963" viewBox="0 0 830 1963" fill="none" xmlns="http://www.w3.org/2000/svg">
<path fill-rule="evenodd" clip-rule="evenodd" d="M744.929 548.056L744.908 548.058C758.094 729.931 614.016 888.704 422.26 903.503L422.338 904.484C307.664 912.678 221.394 1007.62 229.667 1116.22C239.189 1224.31 339.271 1305.36 453.568 1297.2L453.707 1298.95C645.302 1286.74 812.447 1423.12 828.161 1604.59L828.2 1604.59C828.221 1604.84 828.236 1605.1 828.251 1605.35L828.252 1605.36C828.259 1605.48 828.267 1605.61 828.275 1605.73L828.285 1605.88L828.297 1606.04C828.318 1606.31 828.349 1606.57 828.371 1606.83L828.349 1606.83C841.584 1789.38 696.384 1948.66 503.562 1962.43L492.802 1827.16C607.476 1818.97 693.747 1724.03 685.474 1615.42C675.951 1507.33 575.869 1426.28 461.572 1434.45L461.433 1432.7C269.838 1444.91 102.693 1308.52 86.9787 1127.06L86.9398 1127.06C86.9289 1126.92 86.9193 1126.78 86.9104 1126.64C86.903 1126.53 86.896 1126.41 86.8891 1126.3C86.8751 1126.06 86.8611 1125.83 86.8436 1125.6C86.8364 1125.51 86.8281 1125.42 86.8194 1125.34L86.803 1125.17C86.7911 1125.05 86.7793 1124.93 86.7694 1124.82L86.7911 1124.81C73.6049 942.941 217.683 784.168 409.439 769.369L409.361 768.388C524.035 760.194 610.305 665.253 602.032 556.65C592.516 448.631 492.563 367.617 378.363 375.658L378.449 376.741C185.643 390.518 16.8899 253.676 1.09644 71.294L1.05749 71.2958C1.03697 71.0389 1.02137 70.7818 1.00583 70.5248C0.992006 70.2962 0.978176 70.0677 0.960842 69.8391C0.950053 69.7064 0.936762 69.5741 0.92342 69.4415C0.910445 69.3127 0.897479 69.1836 0.886792 69.0538L0.90879 69.0524C-3.39516 9.68745 9.06946 -47.2094 34.4651 -97.4488L333.653 -186.512L336.455 -151.278C221.782 -143.084 135.511 -48.1427 143.784 60.4602C153.3 168.479 253.254 249.493 367.454 241.452L367.367 240.369C560.173 226.592 728.926 363.434 744.72 545.816L744.759 545.815C744.779 546.068 744.794 546.321 744.809 546.574C744.824 546.806 744.838 547.038 744.855 547.271C744.86 547.324 744.864 547.378 744.87 547.432C744.877 547.51 744.885 547.589 744.893 547.668L744.893 547.669C744.906 547.798 744.919 547.927 744.929 548.056Z" fill="#B1B1B1" fill-opacity="0.09"/>
</svg>
