<svg width="530" height="17" viewBox="0 0 530 17" fill="none" xmlns="http://www.w3.org/2000/svg">
<path fill-rule="evenodd" clip-rule="evenodd" d="M88.3657 3.58482H88.3658C232.505 3.41325 413.281 3.19806 527.96 6.28518C528.788 6.30748 529.477 5.65422 529.499 4.82609C529.522 3.99796 528.868 3.30856 528.04 3.28627C413.315 0.197866 232.478 0.413192 88.3412 0.584818C57.5522 0.621479 28.4378 0.656146 2 0.656193C1.17157 0.656195 0.5 1.32777 0.5 2.1562C0.5 2.98462 1.17158 3.65619 2 3.65619C28.4484 3.65615 57.5709 3.62148 88.3657 3.58482ZM4.89014 13.5C4.06171 13.5 3.39014 14.1716 3.39014 15C3.39014 15.8284 4.06171 16.5 4.89014 16.5H5.73465H6.58011H7.42649H8.27381H9.12205H9.97123H10.8213H11.6724H12.5243H13.3772H14.231H15.0857H15.9413H16.7978H17.6553H18.5137H19.3729H20.2331H21.0942H21.9562H22.8192H23.683H24.5477H25.4133H26.2798H27.1472H28.0155H28.8847H29.7548H30.6258H31.4977H32.3704H33.2441H34.1186H34.994H35.8703H36.7475H37.6256H38.5045H39.3843H40.265H41.1466H42.029H42.9123H43.7964H44.6815H45.5674H46.4541H47.3417H48.2302H49.1196H50.0098H50.9008H51.7927H52.6855H53.5791H54.4735H55.3688H56.265H57.162H58.0598H58.9585H59.858H60.7584H61.6596H62.5616H63.4645H64.3682H65.2727H66.178H67.0842H67.9912H68.8991H69.8077H70.7172H71.6275H72.5386H73.4506H74.3633H75.2769H76.1912H77.1064H78.0224H78.9392H79.8568H80.7752H81.6945H82.6145H83.5353H84.4569H85.3793H86.3025H87.2265H88.1513H89.0769H90.0033H90.9304H91.8584H92.7871H93.7166H94.6469H95.578H96.5098H97.4424H98.3758H99.31H100.245H101.181H102.117H103.054H103.992H104.931H105.871H106.811H107.752H108.694H109.637H110.58H111.524H112.469H113.414H114.361H115.308H116.256H117.204H118.154H119.104H120.054H121.006H121.958H122.911H123.865H124.819H125.775H126.731H127.687H128.645H129.603H130.562H131.521H132.481H133.442H134.404H135.367H136.33H137.293H138.258H139.223H140.189H141.156H142.123H143.091H144.06H145.03H146H146.971H147.942H148.915H149.888H150.861H151.835H152.811H153.786H154.763H155.74H156.717H157.696H158.675H159.655H160.635H161.616H162.598H163.581H164.564H165.548H166.532H167.517H168.503H169.489H170.477H171.464H172.453H173.442H174.432H175.422H176.413H177.405H178.397H179.39H180.384H181.378H182.373H183.368H184.365H185.361H186.359H187.357H188.356H189.355H190.355H191.356H192.357H193.359H194.361H195.364H196.368H197.372H198.377H199.383H200.389H201.396H202.403H203.411H204.42H205.429H206.439H207.449H208.46H209.472H210.484H211.497H212.51H213.524H214.539H215.554H216.57H217.586H218.603H219.62H220.639H221.657H222.676H223.696H224.717H225.738H226.759H227.781H228.804H229.827H230.851H231.876H232.9H233.926H234.952H235.979H237.006H238.034H239.062H240.091H241.12H242.15H243.181H244.212H245.243H246.275H247.308H248.341H249.375H250.409H251.444H252.48H253.516H254.552H255.589H256.626H257.664H258.703H259.742H260.782H261.822H262.862H263.903H264.945H265.987H267.03H268.073H269.117H270.161H271.206H272.251H273.297H274.343H275.389H276.437H277.484H278.533H279.581H280.63H281.68H282.73H283.781H284.832H285.884H286.936H287.988H289.041H290.095H291.149H292.204H293.259H294.314H295.37H296.426H297.483H298.54H299.598H300.656H301.715H302.774H303.834H304.894H305.955H307.016H308.077H309.139H310.201H311.264H312.327H313.391H314.455H315.52H316.585H317.65H318.716H319.782H320.849H321.916H322.984H324.052H325.12H326.189H327.258H328.328H329.398H330.469H331.54H332.611H333.683H334.755H335.828H336.901H337.974H339.048H340.122H341.197H342.272H343.348H344.424H345.5H346.576H347.654H348.731H349.809H350.887H351.966H353.045H354.124H355.204H356.284H357.365H358.446H359.527H360.608H361.691H362.773H363.856H364.939H366.022H367.106H368.191H369.275H370.36H371.446H372.531H373.617H374.704H375.791H376.878H377.965H379.053H380.141H381.23H382.319H383.408H384.497H385.587H386.678H387.768H388.859H389.95H391.042H392.134H393.226H394.319H395.411H396.505H397.598H398.692H399.786H400.881H401.976H403.071H404.166H405.262H406.358H407.454H408.551H409.648H410.745H411.843H412.941H414.039H415.138H416.236H417.335H418.435H419.534H420.634H421.735H422.835H423.936H425.037H426.139H427.24H428.342H429.445H430.547H431.65H432.753H433.856H434.96H436.064H437.168H438.272H439.377H440.482H441.587H442.693H443.798H444.904H446.011H447.117H448.224H449.331H450.438H451.546H452.653H453.761H454.87H455.978H457.087H458.196H459.305H460.414H461.524H462.634H463.744H464.854H465.965H467.076H468.187H469.298H470.409H471.521H472.633H473.745H474.857H475.97H477.083H478.196H479.309H480.422H481.536H482.65H483.764H484.878H485.992H487.107H488.222H489.337H490.452H491.567H492.683H493.798H494.914H496.03H497.147H498.263H499.38H500.497H501.614H502.731H503.848H504.966H506.084H507.202H508.32H509.438H510.556H511.675H512.794H513.912H515.032H516.151H517.27H518.39H519.509H520.629H521.749H522.869H523.99H525.11C525.938 16.5 526.61 15.8284 526.61 15C526.61 14.1716 525.938 13.5 525.11 13.5H523.99H522.869H521.749H520.629H519.509H518.39H517.27H516.151H515.032H513.912H512.794H511.675H510.556H509.438H508.32H507.202H506.084H504.966H503.848H502.731H501.614H500.497H499.38H498.263H497.147H496.03H494.914H493.798H492.683H491.567H490.452H489.337H488.222H487.107H485.992H484.878H483.764H482.65H481.536H480.422H479.309H478.196H477.083H475.97H474.857H473.745H472.633H471.521H470.409H469.298H468.187H467.076H465.965H464.854H463.744H462.634H461.524H460.414H459.305H458.196H457.087H455.978H454.87H453.761H452.653H451.546H450.438H449.331H448.224H447.117H446.011H444.904H443.798H442.693H441.587H440.482H439.377H438.272H437.168H436.064H434.96H433.856H432.753H431.65H430.547H429.445H428.342H427.24H426.139H425.037H423.936H422.835H421.735H420.634H419.534H418.435H417.335H416.236H415.138H414.039H412.941H411.843H410.745H409.648H408.551H407.454H406.358H405.262H404.166H403.071H401.976H400.881H399.786H398.692H397.598H396.505H395.411H394.319H393.226H392.134H391.042H389.95H388.859H387.768H386.678H385.587H384.497H383.408H382.319H381.23H380.141H379.053H377.965H376.878H375.791H374.704H373.617H372.531H371.446H370.36H369.275H368.191H367.106H366.022H364.939H363.856H362.773H361.691H360.608H359.527H358.446H357.365H356.284H355.204H354.124H353.045H351.966H350.887H349.809H348.731H347.654H346.576H345.5H344.424H343.348H342.272H341.197H340.122H339.048H337.974H336.901H335.828H334.755H333.683H332.611H331.54H330.469H329.398H328.328H327.258H326.189H325.12H324.052H322.984H321.916H320.849H319.782H318.716H317.65H316.585H315.52H314.455H313.391H312.327H311.264H310.201H309.139H308.077H307.016H305.955H304.894H303.834H302.774H301.715H300.656H299.598H298.54H297.483H296.426H295.37H294.314H293.259H292.204H291.149H290.095H289.041H287.988H286.936H285.884H284.832H283.781H282.73H281.68H280.63H279.581H278.533H277.484H276.437H275.389H274.343H273.297H272.251H271.206H270.161H269.117H268.073H267.03H265.987H264.945H263.903H262.862H261.822H260.782H259.742H258.703H257.664H256.626H255.589H254.552H253.516H252.48H251.444H250.409H249.375H248.341H247.308H246.275H245.243H244.212H243.181H242.15H241.12H240.091H239.062H238.034H237.006H235.979H234.952H233.926H232.9H231.876H230.851H229.827H228.804H227.781H226.759H225.738H224.717H223.696H222.676H221.657H220.639H219.62H218.603H217.586H216.57H215.554H214.539H213.524H212.51H211.497H210.484H209.472H208.46H207.449H206.439H205.429H204.42H203.411H202.403H201.396H200.389H199.383H198.377H197.372H196.368H195.364H194.361H193.359H192.357H191.356H190.355H189.355H188.356H187.357H186.359H185.361H184.365H183.368H182.373H181.378H180.384H179.39H178.397H177.405H176.413H175.422H174.432H173.442H172.453H171.464H170.477H169.489H168.503H167.517H166.532H165.548H164.564H163.581H162.598H161.616H160.635H159.655H158.675H157.696H156.717H155.74H154.763H153.786H152.811H151.835H150.861H149.888H148.915H147.942H146.971H146H145.03H144.06H143.091H142.123H141.156H140.189H139.223H138.258H137.293H136.33H135.367H134.404H133.442H132.481H131.521H130.562H129.603H128.645H127.687H126.731H125.775H124.819H123.865H122.911H121.958H121.006H120.054H119.104H118.154H117.204H116.256H115.308H114.361H113.414H112.469H111.524H110.58H109.637H108.694H107.752H106.811H105.871H104.931H103.992H103.054H102.117H101.181H100.245H99.31H98.3758H97.4424H96.5098H95.578H94.6469H93.7166H92.7871H91.8584H90.9304H90.0033H89.0769H88.1513H87.2265H86.3025H85.3793H84.4569H83.5353H82.6145H81.6945H80.7752H79.8568H78.9392H78.0224H77.1064H76.1912H75.2769H74.3633H73.4506H72.5386H71.6275H70.7172H69.8077H68.8991H67.9912H67.0842H66.178H65.2727H64.3682H63.4645H62.5616H61.6596H60.7584H59.858H58.9585H58.0598H57.162H56.265H55.3688H54.4735H53.5791H52.6855H51.7927H50.9008H50.0098H49.1196H48.2302H47.3417H46.4541H45.5674H44.6815H43.7964H42.9123H42.029H41.1466H40.265H39.3843H38.5045H37.6256H36.7475H35.8703H34.994H34.1186H33.2441H32.3704H31.4977H30.6258H29.7548H28.8847H28.0155H27.1472H26.2798H25.4133H24.5477H23.683H22.8192H21.9562H21.0942H20.2331H19.3729H18.5137H17.6553H16.7978H15.9413H15.0857H14.231H13.3772H12.5243H11.6724H10.8213H9.97123H9.12205H8.27381H7.42649H6.58011H5.73465H4.89014Z" fill="#D7DB2D"/>
</svg>
